0
SECTION
2
HEADER
9
$EXTMIN
10
89
20
89
9
$EXTMAX
10
111
20
111
9
$LIMMIN
10
89
20
89
9
$LIMMAX
10
111
20
111
0
ENDSEC
0
SECTION
2
TABLES
0
TABLE
2
LTYPE
70
255
0
LTYPE
2
1
70
0
3
SOLID
72
65
73
0
40
0
0
ENDTAB
0
TABLE
2
LAYER
70
4
0
LAYER
2
0
62
7
6
1
70
64
0
ENDTAB
0
TABLE
2
STYLE
70
1
0
STYLE
2
STD
70
0
40
0
41
1
50
0
71
0
42
.2
3
txt
0
ENDTAB
0
ENDSEC
0
SECTION
2
BLOCKS
0
BLOCK
2
CROSS
70
0
10
0
20
0
0
LINE
8
0
62
0
10
-50
20
0
11
50
21
0
0
LINE
8
0
62
0
10
0
20
-50
11
0
21
50
0
ENDBLK
0
ENDSEC
0
SECTION
2
ENTITIES0
INSERT
8
POINT
62
2
2
CROSS
10
499.9999            
20
983.9246            
30
10.1624             
41
0.002
42
0.002
43
0.002
50
0.0
0
TEXT
8
CODE
62
3
7
STD
40
0.25
41
1.0
50
0.0
51
0.0
10
499.9999            
20
983.9246            
30
10.1624             
1
vazio
0
TEXT
8
PT_ID
62
3
7
STD
40
0.25
41
1.0
50
0.0
51
0.0
10
499.9999            
20
983.9246            
30
10.1624             
1
 1
0
TEXT
8
HEIGHT
62
3
7
STD
40
0.25
41
1.0
50
0.0
51
0.0
10
499.9999            
20
983.9246            
30
10.1624             
1
 10.162
0
TEXT
8
CO_ORDS
62
3
7
STD
40
0.25
41
1.0
50
0.0
51
0.0
10
499.9999            
20
983.9246            
30
10.1624             
1
 500.000 983.9250
INSERT
8
POINT
62
2
2
CROSS
10
502.1901            
20
956.7190            
30
10.1889             
41
0.002
42
0.002
43
0.002
50
0.0
0
TEXT
8
CODE
62
3
7
STD
40
0.25
41
1.0
50
0.0
51
0.0
10
502.1901            
20
956.7190            
30
10.1889             
1
 AUX
0
TEXT
8
PT_ID
62
3
7
STD
40
0.25
41
1.0
50
0.0
51
0.0
10
502.1901            
20
956.7190            
30
10.1889             
1
 2
0
TEXT
8
HEIGHT
62
3
7
STD
40
0.25
41
1.0
50
0.0
51
0.0
10
502.1901            
20
956.7190            
30
10.1889             
1
 10.189
0
TEXT
8
CO_ORDS
62
3
7
STD
40
0.25
41
1.0
50
0.0
51
0.0
10
502.1901            
20
956.7190            
30
10.1889             
1
 502.190 956.7190
INSERT
8
POINT
62
2
2
CROSS
10
495.7976            
20
924.2456            
30
10.1387             
41
0.002
42
0.002
43
0.002
50
0.0
0
TEXT
8
CODE
62
3
7
STD
40
0.25
41
1.0
50
0.0
51
0.0
10
495.7976            
20
924.2456            
30
10.1387             
1
 AUX
0
TEXT
8
PT_ID
62
3
7
STD
40
0.25
41
1.0
50
0.0
51
0.0
10
495.7976            
20
924.2456            
30
10.1387             
1
 3
0
TEXT
8
HEIGHT
62
3
7
STD
40
0.25
41
1.0
50
0.0
51
0.0
10
495.7976            
20
924.2456            
30
10.1387             
1
 10.139
0
TEXT
8
CO_ORDS
62
3
7
STD
40
0.25
41
1.0
50
0.0
51
0.0
10
495.7976            
20
924.2456            
30
10.1387             
1
 495.798 924.2460
INSERT
8
POINT
62
2
2
CROSS
10
475.0642            
20
927.1915            
30
10.4398             
41
0.002
42
0.002
43
0.002
50
0.0
0
TEXT
8
CODE
62
3
7
STD
40
0.25
41
1.0
50
0.0
51
0.0
10
475.0642            
20
927.1915            
30
10.4398             
1
 AUX
0
TEXT
8
PT_ID
62
3
7
STD
40
0.25
41
1.0
50
0.0
51
0.0
10
475.0642            
20
927.1915            
30
10.4398             
1
 4
0
TEXT
8
HEIGHT
62
3
7
STD
40
0.25
41
1.0
50
0.0
51
0.0
10
475.0642            
20
927.1915            
30
10.4398             
1
 10.440
0
TEXT
8
CO_ORDS
62
3
7
STD
40
0.25
41
1.0
50
0.0
51
0.0
10
475.0642            
20
927.1915            
30
10.4398             
1
 475.064 927.1920
INSERT
8
POINT
62
2
2
CROSS
10
490.0833            
20
927.9850            
30
11.3189             
41
0.002
42
0.002
43
0.002
50
0.0
0
TEXT
8
CODE
62
3
7
STD
40
0.25
41
1.0
50
0.0
51
0.0
10
490.0833            
20
927.9850            
30
11.3189             
1
 BASE
0
TEXT
8
PT_ID
62
3
7
STD
40
0.25
41
1.0
50
0.0
51
0.0
10
490.0833            
20
927.9850            
30
11.3189             
1
 5
0
TEXT
8
HEIGHT
62
3
7
STD
40
0.25
41
1.0
50
0.0
51
0.0
10
490.0833            
20
927.9850            
30
11.3189             
1
 11.319
0
TEXT
8
CO_ORDS
62
3
7
STD
40
0.25
41
1.0
50
0.0
51
0.0
10
490.0833            
20
927.9850            
30
11.3189             
1
 490.083 927.9850
INSERT
8
POINT
62
2
2
CROSS
10
490.5927            
20
928.0059            
30
11.3211             
41
0.002
42
0.002
43
0.002
50
0.0
0
TEXT
8
CODE
62
3
7
STD
40
0.25
41
1.0
50
0.0
51
0.0
10
490.5927            
20
928.0059            
30
11.3211             
1
 BASE
0
TEXT
8
PT_ID
62
3
7
STD
40
0.25
41
1.0
50
0.0
51
0.0
10
490.5927            
20
928.0059            
30
11.3211             
1
 6
0
TEXT
8
HEIGHT
62
3
7
STD
40
0.25
41
1.0
50
0.0
51
0.0
10
490.5927            
20
928.0059            
30
11.3211             
1
 11.321
0
TEXT
8
CO_ORDS
62
3
7
STD
40
0.25
41
1.0
50
0.0
51
0.0
10
490.5927            
20
928.0059            
30
11.3211             
1
 490.593 928.0060
INSERT
8
POINT
62
2
2
CROSS
10
490.5713            
20
928.9114            
30
10.4189             
41
0.002
42
0.002
43
0.002
50
0.0
0
TEXT
8
CODE
62
3
7
STD
40
0.25
41
1.0
50
0.0
51
0.0
10
490.5713            
20
928.9114            
30
10.4189             
1
 BASE
0
TEXT
8
PT_ID
62
3
7
STD
40
0.25
41
1.0
50
0.0
51
0.0
10
490.5713            
20
928.9114            
30
10.4189             
1
 7
0
TEXT
8
HEIGHT
62
3
7
STD
40
0.25
41
1.0
50
0.0
51
0.0
10
490.5713            
20
928.9114            
30
10.4189             
1
 10.419
0
TEXT
8
CO_ORDS
62
3
7
STD
40
0.25
41
1.0
50
0.0
51
0.0
10
490.5713            
20
928.9114            
30
10.4189             
1
 490.571 928.9110
INSERT
8
POINT
62
2
2
CROSS
10
492.2762            
20
928.0537            
30
10.1035             
41
0.002
42
0.002
43
0.002
50
0.0
0
TEXT
8
CODE
62
3
7
STD
40
0.25
41
1.0
50
0.0
51
0.0
10
492.2762            
20
928.0537            
30
10.1035             
1
 BASE
0
TEXT
8
PT_ID
62
3
7
STD
40
0.25
41
1.0
50
0.0
51
0.0
10
492.2762            
20
928.0537            
30
10.1035             
1
 8
0
TEXT
8
HEIGHT
62
3
7
STD
40
0.25
41
1.0
50
0.0
51
0.0
10
492.2762            
20
928.0537            
30
10.1035             
1
 10.104
0
TEXT
8
CO_ORDS
62
3
7
STD
40
0.25
41
1.0
50
0.0
51
0.0
10
492.2762            
20
928.0537            
30
10.1035             
1
 492.276 928.0540
INSERT
8
POINT
62
2
2
CROSS
10
492.7969            
20
928.0726            
30
10.0962             
41
0.002
42
0.002
43
0.002
50
0.0
0
TEXT
8
CODE
62
3
7
STD
40
0.25
41
1.0
50
0.0
51
0.0
10
492.7969            
20
928.0726            
30
10.0962             
1
 BASE
0
TEXT
8
PT_ID
62
3
7
STD
40
0.25
41
1.0
50
0.0
51
0.0
10
492.7969            
20
928.0726            
30
10.0962             
1
 9
0
TEXT
8
HEIGHT
62
3
7
STD
40
0.25
41
1.0
50
0.0
51
0.0
10
492.7969            
20
928.0726            
30
10.0962             
1
 10.096
0
TEXT
8
CO_ORDS
62
3
7
STD
40
0.25
41
1.0
50
0.0
51
0.0
10
492.7969            
20
928.0726            
30
10.0962             
1
 492.797 928.0730
INSERT
8
POINT
62
2
2
CROSS
10
492.7647            
20
928.9628            
30
10.1000             
41
0.002
42
0.002
43
0.002
50
0.0
0
TEXT
8
CODE
62
3
7
STD
40
0.25
41
1.0
50
0.0
51
0.0
10
492.7647            
20
928.9628            
30
10.1000             
1
 BASE
0
TEXT
8
PT_ID
62
3
7
STD
40
0.25
41
1.0
50
0.0
51
0.0
10
492.7647            
20
928.9628            
30
10.1000             
1
 10
0
TEXT
8
HEIGHT
62
3
7
STD
40
0.25
41
1.0
50
0.0
51
0.0
10
492.7647            
20
928.9628            
30
10.1000             
1
 10.100
0
TEXT
8
CO_ORDS
62
3
7
STD
40
0.25
41
1.0
50
0.0
51
0.0
10
492.7647            
20
928.9628            
30
10.1000             
1
 492.765 928.9630
INSERT
8
POINT
62
2
2
CROSS
10
494.3257            
20
929.8346            
30
10.1355             
41
0.002
42
0.002
43
0.002
50
0.0
0
TEXT
8
CODE
62
3
7
STD
40
0.25
41
1.0
50
0.0
51
0.0
10
494.3257            
20
929.8346            
30
10.1355             
1
 BASE
0
TEXT
8
PT_ID
62
3
7
STD
40
0.25
41
1.0
50
0.0
51
0.0
10
494.3257            
20
929.8346            
30
10.1355             
1
 11
0
TEXT
8
HEIGHT
62
3
7
STD
40
0.25
41
1.0
50
0.0
51
0.0
10
494.3257            
20
929.8346            
30
10.1355             
1
 10.136
0
TEXT
8
CO_ORDS
62
3
7
STD
40
0.25
41
1.0
50
0.0
51
0.0
10
494.3257            
20
929.8346            
30
10.1355             
1
 494.326 929.8350
INSERT
8
POINT
62
2
2
CROSS
10
495.1567            
20
929.8372            
30
10.1436             
41
0.002
42
0.002
43
0.002
50
0.0
0
TEXT
8
CODE
62
3
7
STD
40
0.25
41
1.0
50
0.0
51
0.0
10
495.1567            
20
929.8372            
30
10.1436             
1
 BASE
0
TEXT
8
PT_ID
62
3
7
STD
40
0.25
41
1.0
50
0.0
51
0.0
10
495.1567            
20
929.8372            
30
10.1436             
1
 12
0
TEXT
8
HEIGHT
62
3
7
STD
40
0.25
41
1.0
50
0.0
51
0.0
10
495.1567            
20
929.8372            
30
10.1436             
1
 10.144
0
TEXT
8
CO_ORDS
62
3
7
STD
40
0.25
41
1.0
50
0.0
51
0.0
10
495.1567            
20
929.8372            
30
10.1436             
1
 495.157 929.8370
INSERT
8
POINT
62
2
2
CROSS
10
495.1460            
20
930.4649            
30
10.1493             
41
0.002
42
0.002
43
0.002
50
0.0
0
TEXT
8
CODE
62
3
7
STD
40
0.25
41
1.0
50
0.0
51
0.0
10
495.1460            
20
930.4649            
30
10.1493             
1
 BASE
0
TEXT
8
PT_ID
62
3
7
STD
40
0.25
41
1.0
50
0.0
51
0.0
10
495.1460            
20
930.4649            
30
10.1493             
1
 13
0
TEXT
8
HEIGHT
62
3
7
STD
40
0.25
41
1.0
50
0.0
51
0.0
10
495.1460            
20
930.4649            
30
10.1493             
1
 10.149
0
TEXT
8
CO_ORDS
62
3
7
STD
40
0.25
41
1.0
50
0.0
51
0.0
10
495.1460            
20
930.4649            
30
10.1493             
1
 495.146 930.4650
INSERT
8
POINT
62
2
2
CROSS
10
453.2197            
20
923.8640            
30
10.7161             
41
0.002
42
0.002
43
0.002
50
0.0
0
TEXT
8
CODE
62
3
7
STD
40
0.25
41
1.0
50
0.0
51
0.0
10
453.2197            
20
923.8640            
30
10.7161             
1
 AUX
0
TEXT
8
PT_ID
62
3
7
STD
40
0.25
41
1.0
50
0.0
51
0.0
10
453.2197            
20
923.8640            
30
10.7161             
1
 14
0
TEXT
8
HEIGHT
62
3
7
STD
40
0.25
41
1.0
50
0.0
51
0.0
10
453.2197            
20
923.8640            
30
10.7161             
1
 10.716
0
TEXT
8
CO_ORDS
62
3
7
STD
40
0.25
41
1.0
50
0.0
51
0.0
10
453.2197            
20
923.8640            
30
10.7161             
1
 453.220 923.8640
INSERT
8
POINT
62
2
2
CROSS
10
488.5533            
20
924.5319            
30
10.2091             
41
0.002
42
0.002
43
0.002
50
0.0
0
TEXT
8
CODE
62
3
7
STD
40
0.25
41
1.0
50
0.0
51
0.0
10
488.5533            
20
924.5319            
30
10.2091             
1
 TQ1
0
TEXT
8
PT_ID
62
3
7
STD
40
0.25
41
1.0
50
0.0
51
0.0
10
488.5533            
20
924.5319            
30
10.2091             
1
 15
0
TEXT
8
HEIGHT
62
3
7
STD
40
0.25
41
1.0
50
0.0
51
0.0
10
488.5533            
20
924.5319            
30
10.2091             
1
 10.209
0
TEXT
8
CO_ORDS
62
3
7
STD
40
0.25
41
1.0
50
0.0
51
0.0
10
488.5533            
20
924.5319            
30
10.2091             
1
 488.553 924.5320
INSERT
8
POINT
62
2
2
CROSS
10
475.4923            
20
910.6496            
30
11.1569             
41
0.002
42
0.002
43
0.002
50
0.0
0
TEXT
8
CODE
62
3
7
STD
40
0.25
41
1.0
50
0.0
51
0.0
10
475.4923            
20
910.6496            
30
11.1569             
1
 TQCIRCULAR
0
TEXT
8
PT_ID
62
3
7
STD
40
0.25
41
1.0
50
0.0
51
0.0
10
475.4923            
20
910.6496            
30
11.1569             
1
 16
0
TEXT
8
HEIGHT
62
3
7
STD
40
0.25
41
1.0
50
0.0
51
0.0
10
475.4923            
20
910.6496            
30
11.1569             
1
 11.157
0
TEXT
8
CO_ORDS
62
3
7
STD
40
0.25
41
1.0
50
0.0
51
0.0
10
475.4923            
20
910.6496            
30
11.1569             
1
 475.492 910.6500
INSERT
8
POINT
62
2
2
CROSS
10
463.0444            
20
911.9410            
30
10.9835             
41
0.002
42
0.002
43
0.002
50
0.0
0
TEXT
8
CODE
62
3
7
STD
40
0.25
41
1.0
50
0.0
51
0.0
10
463.0444            
20
911.9410            
30
10.9835             
1
 TQCIRCULAR
0
TEXT
8
PT_ID
62
3
7
STD
40
0.25
41
1.0
50
0.0
51
0.0
10
463.0444            
20
911.9410            
30
10.9835             
1
 17
0
TEXT
8
HEIGHT
62
3
7
STD
40
0.25
41
1.0
50
0.0
51
0.0
10
463.0444            
20
911.9410            
30
10.9835             
1
 10.984
0
TEXT
8
CO_ORDS
62
3
7
STD
40
0.25
41
1.0
50
0.0
51
0.0
10
463.0444            
20
911.9410            
30
10.9835             
1
 463.044 911.9410
INSERT
8
POINT
62
2
2
CROSS
10
457.0711            
20
910.3776            
30
11.3760             
41
0.002
42
0.002
43
0.002
50
0.0
0
TEXT
8
CODE
62
3
7
STD
40
0.25
41
1.0
50
0.0
51
0.0
10
457.0711            
20
910.3776            
30
11.3760             
1
 TQCIRCULAR
0
TEXT
8
PT_ID
62
3
7
STD
40
0.25
41
1.0
50
0.0
51
0.0
10
457.0711            
20
910.3776            
30
11.3760             
1
 18
0
TEXT
8
HEIGHT
62
3
7
STD
40
0.25
41
1.0
50
0.0
51
0.0
10
457.0711            
20
910.3776            
30
11.3760             
1
 11.376
0
TEXT
8
CO_ORDS
62
3
7
STD
40
0.25
41
1.0
50
0.0
51
0.0
10
457.0711            
20
910.3776            
30
11.3760             
1
 457.071 910.3780
INSERT
8
POINT
62
2
2
CROSS
10
474.5057            
20
910.9762            
30
11.7991             
41
0.002
42
0.002
43
0.002
50
0.0
0
TEXT
8
CODE
62
3
7
STD
40
0.25
41
1.0
50
0.0
51
0.0
10
474.5057            
20
910.9762            
30
11.7991             
1
 TQC
0
TEXT
8
PT_ID
62
3
7
STD
40
0.25
41
1.0
50
0.0
51
0.0
10
474.5057            
20
910.9762            
30
11.7991             
1
 19
0
TEXT
8
HEIGHT
62
3
7
STD
40
0.25
41
1.0
50
0.0
51
0.0
10
474.5057            
20
910.9762            
30
11.7991             
1
 11.799
0
TEXT
8
CO_ORDS
62
3
7
STD
40
0.25
41
1.0
50
0.0
51
0.0
10
474.5057            
20
910.9762            
30
11.7991             
1
 474.506 910.9760
INSERT
8
POINT
62
2
2
CROSS
10
463.4085            
20
912.0258            
30
11.8252             
41
0.002
42
0.002
43
0.002
50
0.0
0
TEXT
8
CODE
62
3
7
STD
40
0.25
41
1.0
50
0.0
51
0.0
10
463.4085            
20
912.0258            
30
11.8252             
1
 TQC
0
TEXT
8
PT_ID
62
3
7
STD
40
0.25
41
1.0
50
0.0
51
0.0
10
463.4085            
20
912.0258            
30
11.8252             
1
 20
0
TEXT
8
HEIGHT
62
3
7
STD
40
0.25
41
1.0
50
0.0
51
0.0
10
463.4085            
20
912.0258            
30
11.8252             
1
 11.825
0
TEXT
8
CO_ORDS
62
3
7
STD
40
0.25
41
1.0
50
0.0
51
0.0
10
463.4085            
20
912.0258            
30
11.8252             
1
 463.408 912.0260
INSERT
8
POINT
62
2
2
CROSS
10
454.1292            
20
908.9747            
30
11.8533             
41
0.002
42
0.002
43
0.002
50
0.0
0
TEXT
8
CODE
62
3
7
STD
40
0.25
41
1.0
50
0.0
51
0.0
10
454.1292            
20
908.9747            
30
11.8533             
1
 TQC
0
TEXT
8
PT_ID
62
3
7
STD
40
0.25
41
1.0
50
0.0
51
0.0
10
454.1292            
20
908.9747            
30
11.8533             
1
 21
0
TEXT
8
HEIGHT
62
3
7
STD
40
0.25
41
1.0
50
0.0
51
0.0
10
454.1292            
20
908.9747            
30
11.8533             
1
 11.853
0
TEXT
8
CO_ORDS
62
3
7
STD
40
0.25
41
1.0
50
0.0
51
0.0
10
454.1292            
20
908.9747            
30
11.8533             
1
 454.129 908.9750
INSERT
8
POINT
62
2
2
CROSS
10
449.8308            
20
906.0185            
30
11.7267             
41
0.002
42
0.002
43
0.002
50
0.0
0
TEXT
8
CODE
62
3
7
STD
40
0.25
41
1.0
50
0.0
51
0.0
10
449.8308            
20
906.0185            
30
11.7267             
1
 TQC
0
TEXT
8
PT_ID
62
3
7
STD
40
0.25
41
1.0
50
0.0
51
0.0
10
449.8308            
20
906.0185            
30
11.7267             
1
 22
0
TEXT
8
HEIGHT
62
3
7
STD
40
0.25
41
1.0
50
0.0
51
0.0
10
449.8308            
20
906.0185            
30
11.7267             
1
 11.727
0
TEXT
8
CO_ORDS
62
3
7
STD
40
0.25
41
1.0
50
0.0
51
0.0
10
449.8308            
20
906.0185            
30
11.7267             
1
 449.831 906.0190
INSERT
8
POINT
62
2
2
CROSS
10
446.7658            
20
902.9427            
30
11.5811             
41
0.002
42
0.002
43
0.002
50
0.0
0
TEXT
8
CODE
62
3
7
STD
40
0.25
41
1.0
50
0.0
51
0.0
10
446.7658            
20
902.9427            
30
11.5811             
1
 TQC
0
TEXT
8
PT_ID
62
3
7
STD
40
0.25
41
1.0
50
0.0
51
0.0
10
446.7658            
20
902.9427            
30
11.5811             
1
 23
0
TEXT
8
HEIGHT
62
3
7
STD
40
0.25
41
1.0
50
0.0
51
0.0
10
446.7658            
20
902.9427            
30
11.5811             
1
 11.581
0
TEXT
8
CO_ORDS
62
3
7
STD
40
0.25
41
1.0
50
0.0
51
0.0
10
446.7658            
20
902.9427            
30
11.5811             
1
 446.766 902.9430
INSERT
8
POINT
62
2
2
CROSS
10
468.0696            
20
923.7342            
30
10.3417             
41
0.002
42
0.002
43
0.002
50
0.0
0
TEXT
8
CODE
62
3
7
STD
40
0.25
41
1.0
50
0.0
51
0.0
10
468.0696            
20
923.7342            
30
10.3417             
1
 TQ1
0
TEXT
8
PT_ID
62
3
7
STD
40
0.25
41
1.0
50
0.0
51
0.0
10
468.0696            
20
923.7342            
30
10.3417             
1
 24
0
TEXT
8
HEIGHT
62
3
7
STD
40
0.25
41
1.0
50
0.0
51
0.0
10
468.0696            
20
923.7342            
30
10.3417             
1
 10.342
0
TEXT
8
CO_ORDS
62
3
7
STD
40
0.25
41
1.0
50
0.0
51
0.0
10
468.0696            
20
923.7342            
30
10.3417             
1
 468.070 923.7340
INSERT
8
POINT
62
2
2
CROSS
10
468.1166            
20
923.2513            
30
10.5851             
41
0.002
42
0.002
43
0.002
50
0.0
0
TEXT
8
CODE
62
3
7
STD
40
0.25
41
1.0
50
0.0
51
0.0
10
468.1166            
20
923.2513            
30
10.5851             
1
 TQ1
0
TEXT
8
PT_ID
62
3
7
STD
40
0.25
41
1.0
50
0.0
51
0.0
10
468.1166            
20
923.2513            
30
10.5851             
1
 25
0
TEXT
8
HEIGHT
62
3
7
STD
40
0.25
41
1.0
50
0.0
51
0.0
10
468.1166            
20
923.2513            
30
10.5851             
1
 10.585
0
TEXT
8
CO_ORDS
62
3
7
STD
40
0.25
41
1.0
50
0.0
51
0.0
10
468.1166            
20
923.2513            
30
10.5851             
1
 468.117 923.2510
INSERT
8
POINT
62
2
2
CROSS
10
465.5385            
20
923.1688            
30
10.4352             
41
0.002
42
0.002
43
0.002
50
0.0
0
TEXT
8
CODE
62
3
7
STD
40
0.25
41
1.0
50
0.0
51
0.0
10
465.5385            
20
923.1688            
30
10.4352             
1
 TQ1
0
TEXT
8
PT_ID
62
3
7
STD
40
0.25
41
1.0
50
0.0
51
0.0
10
465.5385            
20
923.1688            
30
10.4352             
1
 26
0
TEXT
8
HEIGHT
62
3
7
STD
40
0.25
41
1.0
50
0.0
51
0.0
10
465.5385            
20
923.1688            
30
10.4352             
1
 10.435
0
TEXT
8
CO_ORDS
62
3
7
STD
40
0.25
41
1.0
50
0.0
51
0.0
10
465.5385            
20
923.1688            
30
10.4352             
1
 465.538 923.1690
INSERT
8
POINT
62
2
2
CROSS
10
465.7052            
20
917.5582            
30
10.4810             
41
0.002
42
0.002
43
0.002
50
0.0
0
TEXT
8
CODE
62
3
7
STD
40
0.25
41
1.0
50
0.0
51
0.0
10
465.7052            
20
917.5582            
30
10.4810             
1
 TQ1
0
TEXT
8
PT_ID
62
3
7
STD
40
0.25
41
1.0
50
0.0
51
0.0
10
465.7052            
20
917.5582            
30
10.4810             
1
 27
0
TEXT
8
HEIGHT
62
3
7
STD
40
0.25
41
1.0
50
0.0
51
0.0
10
465.7052            
20
917.5582            
30
10.4810             
1
 10.481
0
TEXT
8
CO_ORDS
62
3
7
STD
40
0.25
41
1.0
50
0.0
51
0.0
10
465.7052            
20
917.5582            
30
10.4810             
1
 465.705 917.5580
INSERT
8
POINT
62
2
2
CROSS
10
500.0474            
20
980.1435            
30
10.2199             
41
0.002
42
0.002
43
0.002
50
0.0
0
TEXT
8
CODE
62
3
7
STD
40
0.25
41
1.0
50
0.0
51
0.0
10
500.0474            
20
980.1435            
30
10.2199             
1
 AUX
0
TEXT
8
PT_ID
62
3
7
STD
40
0.25
41
1.0
50
0.0
51
0.0
10
500.0474            
20
980.1435            
30
10.2199             
1
 28
0
TEXT
8
HEIGHT
62
3
7
STD
40
0.25
41
1.0
50
0.0
51
0.0
10
500.0474            
20
980.1435            
30
10.2199             
1
 10.220
0
TEXT
8
CO_ORDS
62
3
7
STD
40
0.25
41
1.0
50
0.0
51
0.0
10
500.0474            
20
980.1435            
30
10.2199             
1
 500.047 980.1440
INSERT
8
POINT
62
2
2
CROSS
10
566.0492            
20
978.6551            
30
10.1023             
41
0.002
42
0.002
43
0.002
50
0.0
0
TEXT
8
CODE
62
3
7
STD
40
0.25
41
1.0
50
0.0
51
0.0
10
566.0492            
20
978.6551            
30
10.1023             
1
 AUX
0
TEXT
8
PT_ID
62
3
7
STD
40
0.25
41
1.0
50
0.0
51
0.0
10
566.0492            
20
978.6551            
30
10.1023             
1
 29
0
TEXT
8
HEIGHT
62
3
7
STD
40
0.25
41
1.0
50
0.0
51
0.0
10
566.0492            
20
978.6551            
30
10.1023             
1
 10.102
0
TEXT
8
CO_ORDS
62
3
7
STD
40
0.25
41
1.0
50
0.0
51
0.0
10
566.0492            
20
978.6551            
30
10.1023             
1
 566.049 978.6550
INSERT
8
POINT
62
2
2
CROSS
10
585.7852            
20
989.9804            
30
10.2378             
41
0.002
42
0.002
43
0.002
50
0.0
0
TEXT
8
CODE
62
3
7
STD
40
0.25
41
1.0
50
0.0
51
0.0
10
585.7852            
20
989.9804            
30
10.2378             
1
 RN
0
TEXT
8
PT_ID
62
3
7
STD
40
0.25
41
1.0
50
0.0
51
0.0
10
585.7852            
20
989.9804            
30
10.2378             
1
 30
0
TEXT
8
HEIGHT
62
3
7
STD
40
0.25
41
1.0
50
0.0
51
0.0
10
585.7852            
20
989.9804            
30
10.2378             
1
 10.238
0
TEXT
8
CO_ORDS
62
3
7
STD
40
0.25
41
1.0
50
0.0
51
0.0
10
585.7852            
20
989.9804            
30
10.2378             
1
 585.785 989.9800
INSERT
8
POINT
62
2
2
CROSS
10
579.1330            
20
989.7822            
30
10.2566             
41
0.002
42
0.002
43
0.002
50
0.0
0
TEXT
8
CODE
62
3
7
STD
40
0.25
41
1.0
50
0.0
51
0.0
10
579.1330            
20
989.7822            
30
10.2566             
1
 RN
0
TEXT
8
PT_ID
62
3
7
STD
40
0.25
41
1.0
50
0.0
51
0.0
10
579.1330            
20
989.7822            
30
10.2566             
1
 31
0
TEXT
8
HEIGHT
62
3
7
STD
40
0.25
41
1.0
50
0.0
51
0.0
10
579.1330            
20
989.7822            
30
10.2566             
1
 10.257
0
TEXT
8
CO_ORDS
62
3
7
STD
40
0.25
41
1.0
50
0.0
51
0.0
10
579.1330            
20
989.7822            
30
10.2566             
1
 579.133 989.7820
INSERT
8
POINT
62
2
2
CROSS
10
569.8144            
20
989.5696            
30
10.2693             
41
0.002
42
0.002
43
0.002
50
0.0
0
TEXT
8
CODE
62
3
7
STD
40
0.25
41
1.0
50
0.0
51
0.0
10
569.8144            
20
989.5696            
30
10.2693             
1
 RN
0
TEXT
8
PT_ID
62
3
7
STD
40
0.25
41
1.0
50
0.0
51
0.0
10
569.8144            
20
989.5696            
30
10.2693             
1
 32
0
TEXT
8
HEIGHT
62
3
7
STD
40
0.25
41
1.0
50
0.0
51
0.0
10
569.8144            
20
989.5696            
30
10.2693             
1
 10.269
0
TEXT
8
CO_ORDS
62
3
7
STD
40
0.25
41
1.0
50
0.0
51
0.0
10
569.8144            
20
989.5696            
30
10.2693             
1
 569.814 989.5700
INSERT
8
POINT
62
2
2
CROSS
10
562.8753            
20
989.3839            
30
10.2550             
41
0.002
42
0.002
43
0.002
50
0.0
0
TEXT
8
CODE
62
3
7
STD
40
0.25
41
1.0
50
0.0
51
0.0
10
562.8753            
20
989.3839            
30
10.2550             
1
 RN
0
TEXT
8
PT_ID
62
3
7
STD
40
0.25
41
1.0
50
0.0
51
0.0
10
562.8753            
20
989.3839            
30
10.2550             
1
 33
0
TEXT
8
HEIGHT
62
3
7
STD
40
0.25
41
1.0
50
0.0
51
0.0
10
562.8753            
20
989.3839            
30
10.2550             
1
 10.255
0
TEXT
8
CO_ORDS
62
3
7
STD
40
0.25
41
1.0
50
0.0
51
0.0
10
562.8753            
20
989.3839            
30
10.2550             
1
 562.875 989.3840
INSERT
8
POINT
62
2
2
CROSS
10
585.8010            
20
990.2764            
30
12.1502             
41
0.002
42
0.002
43
0.002
50
0.0
0
TEXT
8
CODE
62
3
7
STD
40
0.25
41
1.0
50
0.0
51
0.0
10
585.8010            
20
990.2764            
30
12.1502             
1
 PILAR
0
TEXT
8
PT_ID
62
3
7
STD
40
0.25
41
1.0
50
0.0
51
0.0
10
585.8010            
20
990.2764            
30
12.1502             
1
 34
0
TEXT
8
HEIGHT
62
3
7
STD
40
0.25
41
1.0
50
0.0
51
0.0
10
585.8010            
20
990.2764            
30
12.1502             
1
 12.150
0
TEXT
8
CO_ORDS
62
3
7
STD
40
0.25
41
1.0
50
0.0
51
0.0
10
585.8010            
20
990.2764            
30
12.1502             
1
 585.801 990.2760
INSERT
8
POINT
62
2
2
CROSS
10
585.4287            
20
990.2668            
30
12.1454             
41
0.002
42
0.002
43
0.002
50
0.0
0
TEXT
8
CODE
62
3
7
STD
40
0.25
41
1.0
50
0.0
51
0.0
10
585.4287            
20
990.2668            
30
12.1454             
1
 PILAR
0
TEXT
8
PT_ID
62
3
7
STD
40
0.25
41
1.0
50
0.0
51
0.0
10
585.4287            
20
990.2668            
30
12.1454             
1
 35
0
TEXT
8
HEIGHT
62
3
7
STD
40
0.25
41
1.0
50
0.0
51
0.0
10
585.4287            
20
990.2668            
30
12.1454             
1
 12.145
0
TEXT
8
CO_ORDS
62
3
7
STD
40
0.25
41
1.0
50
0.0
51
0.0
10
585.4287            
20
990.2668            
30
12.1454             
1
 585.429 990.2670
INSERT
8
POINT
62
2
2
CROSS
10
585.4163            
20
990.5586            
30
12.3624             
41
0.002
42
0.002
43
0.002
50
0.0
0
TEXT
8
CODE
62
3
7
STD
40
0.25
41
1.0
50
0.0
51
0.0
10
585.4163            
20
990.5586            
30
12.3624             
1
 PILAR
0
TEXT
8
PT_ID
62
3
7
STD
40
0.25
41
1.0
50
0.0
51
0.0
10
585.4163            
20
990.5586            
30
12.3624             
1
 36
0
TEXT
8
HEIGHT
62
3
7
STD
40
0.25
41
1.0
50
0.0
51
0.0
10
585.4163            
20
990.5586            
30
12.3624             
1
 12.362
0
TEXT
8
CO_ORDS
62
3
7
STD
40
0.25
41
1.0
50
0.0
51
0.0
10
585.4163            
20
990.5586            
30
12.3624             
1
 585.416 990.5590
INSERT
8
POINT
62
2
2
CROSS
10
579.0875            
20
990.0486            
30
12.5980             
41
0.002
42
0.002
43
0.002
50
0.0
0
TEXT
8
CODE
62
3
7
STD
40
0.25
41
1.0
50
0.0
51
0.0
10
579.0875            
20
990.0486            
30
12.5980             
1
 PILAR
0
TEXT
8
PT_ID
62
3
7
STD
40
0.25
41
1.0
50
0.0
51
0.0
10
579.0875            
20
990.0486            
30
12.5980             
1
 37
0
TEXT
8
HEIGHT
62
3
7
STD
40
0.25
41
1.0
50
0.0
51
0.0
10
579.0875            
20
990.0486            
30
12.5980             
1
 12.598
0
TEXT
8
CO_ORDS
62
3
7
STD
40
0.25
41
1.0
50
0.0
51
0.0
10
579.0875            
20
990.0486            
30
12.5980             
1
 579.087 990.0490
INSERT
8
POINT
62
2
2
CROSS
10
578.4582            
20
990.0258            
30
12.4302             
41
0.002
42
0.002
43
0.002
50
0.0
0
TEXT
8
CODE
62
3
7
STD
40
0.25
41
1.0
50
0.0
51
0.0
10
578.4582            
20
990.0258            
30
12.4302             
1
 PILAR
0
TEXT
8
PT_ID
62
3
7
STD
40
0.25
41
1.0
50
0.0
51
0.0
10
578.4582            
20
990.0258            
30
12.4302             
1
 38
0
TEXT
8
HEIGHT
62
3
7
STD
40
0.25
41
1.0
50
0.0
51
0.0
10
578.4582            
20
990.0258            
30
12.4302             
1
 12.430
0
TEXT
8
CO_ORDS
62
3
7
STD
40
0.25
41
1.0
50
0.0
51
0.0
10
578.4582            
20
990.0258            
30
12.4302             
1
 578.458 990.0260
INSERT
8
POINT
62
2
2
CROSS
10
578.4403            
20
990.4061            
30
12.4392             
41
0.002
42
0.002
43
0.002
50
0.0
0
TEXT
8
CODE
62
3
7
STD
40
0.25
41
1.0
50
0.0
51
0.0
10
578.4403            
20
990.4061            
30
12.4392             
1
 PILAR
0
TEXT
8
PT_ID
62
3
7
STD
40
0.25
41
1.0
50
0.0
51
0.0
10
578.4403            
20
990.4061            
30
12.4392             
1
 39
0
TEXT
8
HEIGHT
62
3
7
STD
40
0.25
41
1.0
50
0.0
51
0.0
10
578.4403            
20
990.4061            
30
12.4392             
1
 12.439
0
TEXT
8
CO_ORDS
62
3
7
STD
40
0.25
41
1.0
50
0.0
51
0.0
10
578.4403            
20
990.4061            
30
12.4392             
1
 578.440 990.4060
INSERT
8
POINT
62
2
2
CROSS
10
569.7927            
20
989.8020            
30
12.2442             
41
0.002
42
0.002
43
0.002
50
0.0
0
TEXT
8
CODE
62
3
7
STD
40
0.25
41
1.0
50
0.0
51
0.0
10
569.7927            
20
989.8020            
30
12.2442             
1
 PILAR
0
TEXT
8
PT_ID
62
3
7
STD
40
0.25
41
1.0
50
0.0
51
0.0
10
569.7927            
20
989.8020            
30
12.2442             
1
 40
0
TEXT
8
HEIGHT
62
3
7
STD
40
0.25
41
1.0
50
0.0
51
0.0
10
569.7927            
20
989.8020            
30
12.2442             
1
 12.244
0
TEXT
8
CO_ORDS
62
3
7
STD
40
0.25
41
1.0
50
0.0
51
0.0
10
569.7927            
20
989.8020            
30
12.2442             
1
 569.793 989.8020
INSERT
8
POINT
62
2
2
CROSS
10
569.1578            
20
989.7851            
30
12.2369             
41
0.002
42
0.002
43
0.002
50
0.0
0
TEXT
8
CODE
62
3
7
STD
40
0.25
41
1.0
50
0.0
51
0.0
10
569.1578            
20
989.7851            
30
12.2369             
1
 PILAR
0
TEXT
8
PT_ID
62
3
7
STD
40
0.25
41
1.0
50
0.0
51
0.0
10
569.1578            
20
989.7851            
30
12.2369             
1
 41
0
TEXT
8
HEIGHT
62
3
7
STD
40
0.25
41
1.0
50
0.0
51
0.0
10
569.1578            
20
989.7851            
30
12.2369             
1
 12.237
0
TEXT
8
CO_ORDS
62
3
7
STD
40
0.25
41
1.0
50
0.0
51
0.0
10
569.1578            
20
989.7851            
30
12.2369             
1
 569.158 989.7850
INSERT
8
POINT
62
2
2
CROSS
10
569.1398            
20
990.1504            
30
12.2497             
41
0.002
42
0.002
43
0.002
50
0.0
0
TEXT
8
CODE
62
3
7
STD
40
0.25
41
1.0
50
0.0
51
0.0
10
569.1398            
20
990.1504            
30
12.2497             
1
 PILAR
0
TEXT
8
PT_ID
62
3
7
STD
40
0.25
41
1.0
50
0.0
51
0.0
10
569.1398            
20
990.1504            
30
12.2497             
1
 42
0
TEXT
8
HEIGHT
62
3
7
STD
40
0.25
41
1.0
50
0.0
51
0.0
10
569.1398            
20
990.1504            
30
12.2497             
1
 12.250
0
TEXT
8
CO_ORDS
62
3
7
STD
40
0.25
41
1.0
50
0.0
51
0.0
10
569.1398            
20
990.1504            
30
12.2497             
1
 569.140 990.1500
INSERT
8
POINT
62
2
2
CROSS
10
562.8140            
20
989.9349            
30
12.1349             
41
0.002
42
0.002
43
0.002
50
0.0
0
TEXT
8
CODE
62
3
7
STD
40
0.25
41
1.0
50
0.0
51
0.0
10
562.8140            
20
989.9349            
30
12.1349             
1
 PILAR
0
TEXT
8
PT_ID
62
3
7
STD
40
0.25
41
1.0
50
0.0
51
0.0
10
562.8140            
20
989.9349            
30
12.1349             
1
 43
0
TEXT
8
HEIGHT
62
3
7
STD
40
0.25
41
1.0
50
0.0
51
0.0
10
562.8140            
20
989.9349            
30
12.1349             
1
 12.135
0
TEXT
8
CO_ORDS
62
3
7
STD
40
0.25
41
1.0
50
0.0
51
0.0
10
562.8140            
20
989.9349            
30
12.1349             
1
 562.814 989.9350
INSERT
8
POINT
62
2
2
CROSS
10
562.8151            
20
989.6563            
30
12.1276             
41
0.002
42
0.002
43
0.002
50
0.0
0
TEXT
8
CODE
62
3
7
STD
40
0.25
41
1.0
50
0.0
51
0.0
10
562.8151            
20
989.6563            
30
12.1276             
1
 PILAR
0
TEXT
8
PT_ID
62
3
7
STD
40
0.25
41
1.0
50
0.0
51
0.0
10
562.8151            
20
989.6563            
30
12.1276             
1
 44
0
TEXT
8
HEIGHT
62
3
7
STD
40
0.25
41
1.0
50
0.0
51
0.0
10
562.8151            
20
989.6563            
30
12.1276             
1
 12.128
0
TEXT
8
CO_ORDS
62
3
7
STD
40
0.25
41
1.0
50
0.0
51
0.0
10
562.8151            
20
989.6563            
30
12.1276             
1
 562.815 989.6560
INSERT
8
POINT
62
2
2
CROSS
10
562.4319            
20
989.6502            
30
12.1306             
41
0.002
42
0.002
43
0.002
50
0.0
0
TEXT
8
CODE
62
3
7
STD
40
0.25
41
1.0
50
0.0
51
0.0
10
562.4319            
20
989.6502            
30
12.1306             
1
 PILAR
0
TEXT
8
PT_ID
62
3
7
STD
40
0.25
41
1.0
50
0.0
51
0.0
10
562.4319            
20
989.6502            
30
12.1306             
1
 45
0
TEXT
8
HEIGHT
62
3
7
STD
40
0.25
41
1.0
50
0.0
51
0.0
10
562.4319            
20
989.6502            
30
12.1306             
1
 12.131
0
TEXT
8
CO_ORDS
62
3
7
STD
40
0.25
41
1.0
50
0.0
51
0.0
10
562.4319            
20
989.6502            
30
12.1306             
1
 562.432 989.6500
INSERT
8
POINT
62
2
2
CROSS
10
557.9685            
20
989.7965            
30
11.7691             
41
0.002
42
0.002
43
0.002
50
0.0
0
TEXT
8
CODE
62
3
7
STD
40
0.25
41
1.0
50
0.0
51
0.0
10
557.9685            
20
989.7965            
30
11.7691             
1
 PILAR
0
TEXT
8
PT_ID
62
3
7
STD
40
0.25
41
1.0
50
0.0
51
0.0
10
557.9685            
20
989.7965            
30
11.7691             
1
 46
0
TEXT
8
HEIGHT
62
3
7
STD
40
0.25
41
1.0
50
0.0
51
0.0
10
557.9685            
20
989.7965            
30
11.7691             
1
 11.769
0
TEXT
8
CO_ORDS
62
3
7
STD
40
0.25
41
1.0
50
0.0
51
0.0
10
557.9685            
20
989.7965            
30
11.7691             
1
 557.969 989.7960
INSERT
8
POINT
62
2
2
CROSS
10
557.9602            
20
989.5218            
30
11.7698             
41
0.002
42
0.002
43
0.002
50
0.0
0
TEXT
8
CODE
62
3
7
STD
40
0.25
41
1.0
50
0.0
51
0.0
10
557.9602            
20
989.5218            
30
11.7698             
1
 PILAR
0
TEXT
8
PT_ID
62
3
7
STD
40
0.25
41
1.0
50
0.0
51
0.0
10
557.9602            
20
989.5218            
30
11.7698             
1
 47
0
TEXT
8
HEIGHT
62
3
7
STD
40
0.25
41
1.0
50
0.0
51
0.0
10
557.9602            
20
989.5218            
30
11.7698             
1
 11.770
0
TEXT
8
CO_ORDS
62
3
7
STD
40
0.25
41
1.0
50
0.0
51
0.0
10
557.9602            
20
989.5218            
30
11.7698             
1
 557.960 989.5220
INSERT
8
POINT
62
2
2
CROSS
10
557.6871            
20
989.5119            
30
11.7694             
41
0.002
42
0.002
43
0.002
50
0.0
0
TEXT
8
CODE
62
3
7
STD
40
0.25
41
1.0
50
0.0
51
0.0
10
557.6871            
20
989.5119            
30
11.7694             
1
 PILAR
0
TEXT
8
PT_ID
62
3
7
STD
40
0.25
41
1.0
50
0.0
51
0.0
10
557.6871            
20
989.5119            
30
11.7694             
1
 48
0
TEXT
8
HEIGHT
62
3
7
STD
40
0.25
41
1.0
50
0.0
51
0.0
10
557.6871            
20
989.5119            
30
11.7694             
1
 11.769
0
TEXT
8
CO_ORDS
62
3
7
STD
40
0.25
41
1.0
50
0.0
51
0.0
10
557.6871            
20
989.5119            
30
11.7694             
1
 557.687 989.5120
INSERT
8
POINT
62
2
2
CROSS
10
500.0495            
20
980.1439            
30
10.2140             
41
0.002
42
0.002
43
0.002
50
0.0
0
TEXT
8
CODE
62
3
7
STD
40
0.25
41
1.0
50
0.0
51
0.0
10
500.0495            
20
980.1439            
30
10.2140             
1
 28
0
TEXT
8
PT_ID
62
3
7
STD
40
0.25
41
1.0
50
0.0
51
0.0
10
500.0495            
20
980.1439            
30
10.2140             
1
 49
0
TEXT
8
HEIGHT
62
3
7
STD
40
0.25
41
1.0
50
0.0
51
0.0
10
500.0495            
20
980.1439            
30
10.2140             
1
 10.214
0
TEXT
8
CO_ORDS
62
3
7
STD
40
0.25
41
1.0
50
0.0
51
0.0
10
500.0495            
20
980.1439            
30
10.2140             
1
 500.049 980.1440
INSERT
8
POINT
62
2
2
CROSS
10
500.0003            
20
983.9285            
30
10.1570             
41
0.002
42
0.002
43
0.002
50
0.0
0
TEXT
8
CODE
62
3
7
STD
40
0.25
41
1.0
50
0.0
51
0.0
10
500.0003            
20
983.9285            
30
10.1570             
1
 1
0
TEXT
8
PT_ID
62
3
7
STD
40
0.25
41
1.0
50
0.0
51
0.0
10
500.0003            
20
983.9285            
30
10.1570             
1
 50
0
TEXT
8
HEIGHT
62
3
7
STD
40
0.25
41
1.0
50
0.0
51
0.0
10
500.0003            
20
983.9285            
30
10.1570             
1
 10.157
0
TEXT
8
CO_ORDS
62
3
7
STD
40
0.25
41
1.0
50
0.0
51
0.0
10
500.0003            
20
983.9285            
30
10.1570             
1
 500.000 983.9280
INSERT
8
POINT
62
2
2
CROSS
10
580.7252            
20
985.7982            
30
10.1989             
41
0.002
42
0.002
43
0.002
50
0.0
0
TEXT
8
CODE
62
3
7
STD
40
0.25
41
1.0
50
0.0
51
0.0
10
580.7252            
20
985.7982            
30
10.1989             
1
 AUX
0
TEXT
8
PT_ID
62
3
7
STD
40
0.25
41
1.0
50
0.0
51
0.0
10
580.7252            
20
985.7982            
30
10.1989             
1
 51
0
TEXT
8
HEIGHT
62
3
7
STD
40
0.25
41
1.0
50
0.0
51
0.0
10
580.7252            
20
985.7982            
30
10.1989             
1
 10.199
0
TEXT
8
CO_ORDS
62
3
7
STD
40
0.25
41
1.0
50
0.0
51
0.0
10
580.7252            
20
985.7982            
30
10.1989             
1
 580.725 985.7980
INSERT
8
POINT
62
2
2
CROSS
10
604.2769            
20
988.6079            
30
10.2429             
41
0.002
42
0.002
43
0.002
50
0.0
0
TEXT
8
CODE
62
3
7
STD
40
0.25
41
1.0
50
0.0
51
0.0
10
604.2769            
20
988.6079            
30
10.2429             
1
 AUX
0
TEXT
8
PT_ID
62
3
7
STD
40
0.25
41
1.0
50
0.0
51
0.0
10
604.2769            
20
988.6079            
30
10.2429             
1
 52
0
TEXT
8
HEIGHT
62
3
7
STD
40
0.25
41
1.0
50
0.0
51
0.0
10
604.2769            
20
988.6079            
30
10.2429             
1
 10.243
0
TEXT
8
CO_ORDS
62
3
7
STD
40
0.25
41
1.0
50
0.0
51
0.0
10
604.2769            
20
988.6079            
30
10.2429             
1
 604.277 988.6080
INSERT
8
POINT
62
2
2
CROSS
10
604.1724            
20
1069.7052           
30
10.2022             
41
0.002
42
0.002
43
0.002
50
0.0
0
TEXT
8
CODE
62
3
7
STD
40
0.25
41
1.0
50
0.0
51
0.0
10
604.1724            
20
1069.7052           
30
10.2022             
1
 AUX
0
TEXT
8
PT_ID
62
3
7
STD
40
0.25
41
1.0
50
0.0
51
0.0
10
604.1724            
20
1069.7052           
30
10.2022             
1
 53
0
TEXT
8
HEIGHT
62
3
7
STD
40
0.25
41
1.0
50
0.0
51
0.0
10
604.1724            
20
1069.7052           
30
10.2022             
1
 10.202
0
TEXT
8
CO_ORDS
62
3
7
STD
40
0.25
41
1.0
50
0.0
51
0.0
10
604.1724            
20
1069.7052           
30
10.2022             
1
 604.172 1069.7050
INSERT
8
POINT
62
2
2
CROSS
10
490.4313            
20
1065.6899           
30
10.3952             
41
0.002
42
0.002
43
0.002
50
0.0
0
TEXT
8
CODE
62
3
7
STD
40
0.25
41
1.0
50
0.0
51
0.0
10
490.4313            
20
1065.6899           
30
10.3952             
1
 AUX
0
TEXT
8
PT_ID
62
3
7
STD
40
0.25
41
1.0
50
0.0
51
0.0
10
490.4313            
20
1065.6899           
30
10.3952             
1
 54
0
TEXT
8
HEIGHT
62
3
7
STD
40
0.25
41
1.0
50
0.0
51
0.0
10
490.4313            
20
1065.6899           
30
10.3952             
1
 10.395
0
TEXT
8
CO_ORDS
62
3
7
STD
40
0.25
41
1.0
50
0.0
51
0.0
10
490.4313            
20
1065.6899           
30
10.3952             
1
 490.431 1065.6900
INSERT
8
POINT
62
2
2
CROSS
10
490.3924            
20
1061.7974           
30
10.2559             
41
0.002
42
0.002
43
0.002
50
0.0
0
TEXT
8
CODE
62
3
7
STD
40
0.25
41
1.0
50
0.0
51
0.0
10
490.3924            
20
1061.7974           
30
10.2559             
1
 AUX
0
TEXT
8
PT_ID
62
3
7
STD
40
0.25
41
1.0
50
0.0
51
0.0
10
490.3924            
20
1061.7974           
30
10.2559             
1
 55
0
TEXT
8
HEIGHT
62
3
7
STD
40
0.25
41
1.0
50
0.0
51
0.0
10
490.3924            
20
1061.7974           
30
10.2559             
1
 10.256
0
TEXT
8
CO_ORDS
62
3
7
STD
40
0.25
41
1.0
50
0.0
51
0.0
10
490.3924            
20
1061.7974           
30
10.2559             
1
 490.392 1061.7970
INSERT
8
POINT
62
2
2
CROSS
10
488.2034            
20
1066.7488           
30
10.4687             
41
0.002
42
0.002
43
0.002
50
0.0
0
TEXT
8
CODE
62
3
7
STD
40
0.25
41
1.0
50
0.0
51
0.0
10
488.2034            
20
1066.7488           
30
10.4687             
1
 AUX
0
TEXT
8
PT_ID
62
3
7
STD
40
0.25
41
1.0
50
0.0
51
0.0
10
488.2034            
20
1066.7488           
30
10.4687             
1
 56
0
TEXT
8
HEIGHT
62
3
7
STD
40
0.25
41
1.0
50
0.0
51
0.0
10
488.2034            
20
1066.7488           
30
10.4687             
1
 10.469
0
TEXT
8
CO_ORDS
62
3
7
STD
40
0.25
41
1.0
50
0.0
51
0.0
10
488.2034            
20
1066.7488           
30
10.4687             
1
 488.203 1066.7490
INSERT
8
POINT
62
2
2
CROSS
10
469.4556            
20
1062.3681           
30
10.5151             
41
0.002
42
0.002
43
0.002
50
0.0
0
TEXT
8
CODE
62
3
7
STD
40
0.25
41
1.0
50
0.0
51
0.0
10
469.4556            
20
1062.3681           
30
10.5151             
1
 BAND
0
TEXT
8
PT_ID
62
3
7
STD
40
0.25
41
1.0
50
0.0
51
0.0
10
469.4556            
20
1062.3681           
30
10.5151             
1
 57
0
TEXT
8
HEIGHT
62
3
7
STD
40
0.25
41
1.0
50
0.0
51
0.0
10
469.4556            
20
1062.3681           
30
10.5151             
1
 10.515
0
TEXT
8
CO_ORDS
62
3
7
STD
40
0.25
41
1.0
50
0.0
51
0.0
10
469.4556            
20
1062.3681           
30
10.5151             
1
 469.456 1062.3680
INSERT
8
POINT
62
2
2
CROSS
10
469.4236            
20
1064.0327           
30
10.2517             
41
0.002
42
0.002
43
0.002
50
0.0
0
TEXT
8
CODE
62
3
7
STD
40
0.25
41
1.0
50
0.0
51
0.0
10
469.4236            
20
1064.0327           
30
10.2517             
1
 BAND
0
TEXT
8
PT_ID
62
3
7
STD
40
0.25
41
1.0
50
0.0
51
0.0
10
469.4236            
20
1064.0327           
30
10.2517             
1
 58
0
TEXT
8
HEIGHT
62
3
7
STD
40
0.25
41
1.0
50
0.0
51
0.0
10
469.4236            
20
1064.0327           
30
10.2517             
1
 10.252
0
TEXT
8
CO_ORDS
62
3
7
STD
40
0.25
41
1.0
50
0.0
51
0.0
10
469.4236            
20
1064.0327           
30
10.2517             
1
 469.424 1064.0330
INSERT
8
POINT
62
2
2
CROSS
10
486.5136            
20
1065.1072           
30
10.5122             
41
0.002
42
0.002
43
0.002
50
0.0
0
TEXT
8
CODE
62
3
7
STD
40
0.25
41
1.0
50
0.0
51
0.0
10
486.5136            
20
1065.1072           
30
10.5122             
1
 BAND
0
TEXT
8
PT_ID
62
3
7
STD
40
0.25
41
1.0
50
0.0
51
0.0
10
486.5136            
20
1065.1072           
30
10.5122             
1
 59
0
TEXT
8
HEIGHT
62
3
7
STD
40
0.25
41
1.0
50
0.0
51
0.0
10
486.5136            
20
1065.1072           
30
10.5122             
1
 10.512
0
TEXT
8
CO_ORDS
62
3
7
STD
40
0.25
41
1.0
50
0.0
51
0.0
10
486.5136            
20
1065.1072           
30
10.5122             
1
 486.514 1065.1070
INSERT
8
POINT
62
2
2
CROSS
10
468.9334            
20
1059.9735           
30
10.2833             
41
0.002
42
0.002
43
0.002
50
0.0
0
TEXT
8
CODE
62
3
7
STD
40
0.25
41
1.0
50
0.0
51
0.0
10
468.9334            
20
1059.9735           
30
10.2833             
1
 AUX
0
TEXT
8
PT_ID
62
3
7
STD
40
0.25
41
1.0
50
0.0
51
0.0
10
468.9334            
20
1059.9735           
30
10.2833             
1
 60
0
TEXT
8
HEIGHT
62
3
7
STD
40
0.25
41
1.0
50
0.0
51
0.0
10
468.9334            
20
1059.9735           
30
10.2833             
1
 10.283
0
TEXT
8
CO_ORDS
62
3
7
STD
40
0.25
41
1.0
50
0.0
51
0.0
10
468.9334            
20
1059.9735           
30
10.2833             
1
 468.933 1059.9740
INSERT
8
POINT
62
2
2
CROSS
10
486.2976            
20
1060.1040           
30
8.7332              
41
0.002
42
0.002
43
0.002
50
0.0
0
TEXT
8
CODE
62
3
7
STD
40
0.25
41
1.0
50
0.0
51
0.0
10
486.2976            
20
1060.1040           
30
8.7332              
1
 BAND
0
TEXT
8
PT_ID
62
3
7
STD
40
0.25
41
1.0
50
0.0
51
0.0
10
486.2976            
20
1060.1040           
30
8.7332              
1
 61
0
TEXT
8
HEIGHT
62
3
7
STD
40
0.25
41
1.0
50
0.0
51
0.0
10
486.2976            
20
1060.1040           
30
8.7332              
1
 8.733
0
TEXT
8
CO_ORDS
62
3
7
STD
40
0.25
41
1.0
50
0.0
51
0.0
10
486.2976            
20
1060.1040           
30
8.7332              
1
 486.298 1060.1040
INSERT
8
POINT
62
2
2
CROSS
10
470.8119            
20
1064.6164           
30
9.8875              
41
0.002
42
0.002
43
0.002
50
0.0
0
TEXT
8
CODE
62
3
7
STD
40
0.25
41
1.0
50
0.0
51
0.0
10
470.8119            
20
1064.6164           
30
9.8875              
1
  
0
TEXT
8
PT_ID
62
3
7
STD
40
0.25
41
1.0
50
0.0
51
0.0
10
470.8119            
20
1064.6164           
30
9.8875              
1
 62
0
TEXT
8
HEIGHT
62
3
7
STD
40
0.25
41
1.0
50
0.0
51
0.0
10
470.8119            
20
1064.6164           
30
9.8875              
1
 9.888
0
TEXT
8
CO_ORDS
62
3
7
STD
40
0.25
41
1.0
50
0.0
51
0.0
10
470.8119            
20
1064.6164           
30
9.8875              
1
 470.812 1064.6160
INSERT
8
POINT
62
2
2
CROSS
10
472.4045            
20
1063.3528           
30
9.2780              
41
0.002
42
0.002
43
0.002
50
0.0
0
TEXT
8
CODE
62
3
7
STD
40
0.25
41
1.0
50
0.0
51
0.0
10
472.4045            
20
1063.3528           
30
9.2780              
1
  
0
TEXT
8
PT_ID
62
3
7
STD
40
0.25
41
1.0
50
0.0
51
0.0
10
472.4045            
20
1063.3528           
30
9.2780              
1
 63
0
TEXT
8
HEIGHT
62
3
7
STD
40
0.25
41
1.0
50
0.0
51
0.0
10
472.4045            
20
1063.3528           
30
9.2780              
1
 9.278
0
TEXT
8
CO_ORDS
62
3
7
STD
40
0.25
41
1.0
50
0.0
51
0.0
10
472.4045            
20
1063.3528           
30
9.2780              
1
 472.405 1063.3530
INSERT
8
POINT
62
2
2
CROSS
10
488.5253            
20
1061.2656           
30
8.3392              
41
0.002
42
0.002
43
0.002
50
0.0
0
TEXT
8
CODE
62
3
7
STD
40
0.25
41
1.0
50
0.0
51
0.0
10
488.5253            
20
1061.2656           
30
8.3392              
1
 BAND
0
TEXT
8
PT_ID
62
3
7
STD
40
0.25
41
1.0
50
0.0
51
0.0
10
488.5253            
20
1061.2656           
30
8.3392              
1
 64
0
TEXT
8
HEIGHT
62
3
7
STD
40
0.25
41
1.0
50
0.0
51
0.0
10
488.5253            
20
1061.2656           
30
8.3392              
1
 8.339
0
TEXT
8
CO_ORDS
62
3
7
STD
40
0.25
41
1.0
50
0.0
51
0.0
10
488.5253            
20
1061.2656           
30
8.3392              
1
 488.525 1061.2660
INSERT
8
POINT
62
2
2
CROSS
10
488.4715            
20
1062.6014           
30
8.5396              
41
0.002
42
0.002
43
0.002
50
0.0
0
TEXT
8
CODE
62
3
7
STD
40
0.25
41
1.0
50
0.0
51
0.0
10
488.4715            
20
1062.6014           
30
8.5396              
1
 BAND
0
TEXT
8
PT_ID
62
3
7
STD
40
0.25
41
1.0
50
0.0
51
0.0
10
488.4715            
20
1062.6014           
30
8.5396              
1
 65
0
TEXT
8
HEIGHT
62
3
7
STD
40
0.25
41
1.0
50
0.0
51
0.0
10
488.4715            
20
1062.6014           
30
8.5396              
1
 8.540
0
TEXT
8
CO_ORDS
62
3
7
STD
40
0.25
41
1.0
50
0.0
51
0.0
10
488.4715            
20
1062.6014           
30
8.5396              
1
 488.472 1062.601 0
ENDSEC
 0
EOF0
SECTION
2
HEADER
9
$EXTMIN
10
89
20
89
9
$EXTMAX
10
111
20
111
9
$LIMMIN
10
89
20
89
9
$LIMMAX
10
111
20
111
0
ENDSEC
0
SECTION
2
TABLES
0
TABLE
2
LTYPE
70
255
0
LTYPE
2
1
70
0
3
SOLID
72
65
73
0
40
0
0
ENDTAB
0
TABLE
2
LAYER
70
4
0
LAYER
2
0
62
7
6
1
70
64
0
ENDTAB
0
TABLE
2
STYLE
70
1
0
STYLE
2
STD
70
0
40
0
41
1
50
0
71
0
42
.2
3
txt
0
ENDTAB
0
ENDSEC
0
SECTION
2
BLOCKS
0
BLOCK
2
CROSS
70
0
10
0
20
0
0
LINE
8
0
62
0
10
-50
20
0
11
50
21
0
0
LINE
8
0
62
0
10
0
20
-50
11
0
21
50
0
ENDBLK
0
ENDSEC
0
SECTION
2
ENTITIES0
INSERT
8
POINT
62
2
2
CROSS
10
500.0000            
20
1000.0000           
30
10.0000             
41
0.002
42
0.002
43
0.002
50
0.0
0
TEXT
8
CODE
62
3
7
STD
40
0.25
41
1.0
50
0.0
51
0.0
10
500.0000            
20
1000.0000           
30
10.0000             
1
  
0
TEXT
8
PT_ID
62
3
7
STD
40
0.25
41
1.0
50
0.0
51
0.0
10
500.0000            
20
1000.0000           
30
10.0000             
1
 0
0
TEXT
8
HEIGHT
62
3
7
STD
40
0.25
41
1.0
50
0.0
51
0.0
10
500.0000            
20
1000.0000           
30
10.0000             
1
 10.000
0
TEXT
8
CO_ORDS
62
3
7
STD
40
0.25
41
1.0
50
0.0
51
0.0
10
500.0000            
20
1000.0000           
30
10.0000             
1
 500.000 1000.0000
INSERT
8
POINT
62
2
2
CROSS
10
485.4407            
20
928.3335            
30
0                   
41
0.002
42
0.002
43
0.002
50
0.0
0
TEXT
8
CODE
62
3
7
STD
40
0.25
41
1.0
50
0.0
51
0.0
10
485.4407            
20
928.3335            
30
0                   
1
  
0
TEXT
8
PT_ID
62
3
7
STD
40
0.25
41
1.0
50
0.0
51
0.0
10
485.4407            
20
928.3335            
30
0                   
1
 B0-0
0
TEXT
8
HEIGHT
62
3
7
STD
40
0.25
41
1.0
50
0.0
51
0.0
10
485.4407            
20
928.3335            
30
0                   
1
 0
0
TEXT
8
CO_ORDS
62
3
7
STD
40
0.25
41
1.0
50
0.0
51
0.0
10
485.4407            
20
928.3335            
30
0                   
1
 485.441 928.3330
INSERT
8
POINT
62
2
2
CROSS
10
485.3956            
20
930.5839            
30
0.0000              
41
0.002
42
0.002
43
0.002
50
0.0
0
TEXT
8
CODE
62
3
7
STD
40
0.25
41
1.0
50
0.0
51
0.0
10
485.3956            
20
930.5839            
30
0.0000              
1
  
0
TEXT
8
PT_ID
62
3
7
STD
40
0.25
41
1.0
50
0.0
51
0.0
10
485.3956            
20
930.5839            
30
0.0000              
1
 B0-1
0
TEXT
8
HEIGHT
62
3
7
STD
40
0.25
41
1.0
50
0.0
51
0.0
10
485.3956            
20
930.5839            
30
0.0000              
1
 0.000
0
TEXT
8
CO_ORDS
62
3
7
STD
40
0.25
41
1.0
50
0.0
51
0.0
10
485.3956            
20
930.5839            
30
0.0000              
1
 485.396 930.5840
INSERT
8
POINT
62
2
2
CROSS
10
483.5453            
20
930.5428            
30
0.0000              
41
0.002
42
0.002
43
0.002
50
0.0
0
TEXT
8
CODE
62
3
7
STD
40
0.25
41
1.0
50
0.0
51
0.0
10
483.5453            
20
930.5428            
30
0.0000              
1
  
0
TEXT
8
PT_ID
62
3
7
STD
40
0.25
41
1.0
50
0.0
51
0.0
10
483.5453            
20
930.5428            
30
0.0000              
1
 B0-2
0
TEXT
8
HEIGHT
62
3
7
STD
40
0.25
41
1.0
50
0.0
51
0.0
10
483.5453            
20
930.5428            
30
0.0000              
1
 0.000
0
TEXT
8
CO_ORDS
62
3
7
STD
40
0.25
41
1.0
50
0.0
51
0.0
10
483.5453            
20
930.5428            
30
0.0000              
1
 483.545 930.5430
INSERT
8
POINT
62
2
2
CROSS
10
483.3904            
20
928.2924            
30
0.0000              
41
0.002
42
0.002
43
0.002
50
0.0
0
TEXT
8
CODE
62
3
7
STD
40
0.25
41
1.0
50
0.0
51
0.0
10
483.3904            
20
928.2924            
30
0.0000              
1
  
0
TEXT
8
PT_ID
62
3
7
STD
40
0.25
41
1.0
50
0.0
51
0.0
10
483.3904            
20
928.2924            
30
0.0000              
1
 B0-3
0
TEXT
8
HEIGHT
62
3
7
STD
40
0.25
41
1.0
50
0.0
51
0.0
10
483.3904            
20
928.2924            
30
0.0000              
1
 0.000
0
TEXT
8
CO_ORDS
62
3
7
STD
40
0.25
41
1.0
50
0.0
51
0.0
10
483.3904            
20
928.2924            
30
0.0000              
1
 483.390 928.2920
INSERT
8
POINT
62
2
2
CROSS
10
480.3628            
20
928.1856            
30
0                   
41
0.002
42
0.002
43
0.002
50
0.0
0
TEXT
8
CODE
62
3
7
STD
40
0.25
41
1.0
50
0.0
51
0.0
10
480.3628            
20
928.1856            
30
0                   
1
  
0
TEXT
8
PT_ID
62
3
7
STD
40
0.25
41
1.0
50
0.0
51
0.0
10
480.3628            
20
928.1856            
30
0                   
1
 B1-0
0
TEXT
8
HEIGHT
62
3
7
STD
40
0.25
41
1.0
50
0.0
51
0.0
10
480.3628            
20
928.1856            
30
0                   
1
 0
0
TEXT
8
CO_ORDS
62
3
7
STD
40
0.25
41
1.0
50
0.0
51
0.0
10
480.3628            
20
928.1856            
30
0                   
1
 480.363 928.1860
INSERT
8
POINT
62
2
2
CROSS
10
480.3207            
20
930.2859            
30
0                   
41
0.002
42
0.002
43
0.002
50
0.0
0
TEXT
8
CODE
62
3
7
STD
40
0.25
41
1.0
50
0.0
51
0.0
10
480.3207            
20
930.2859            
30
0                   
1
  
0
TEXT
8
PT_ID
62
3
7
STD
40
0.25
41
1.0
50
0.0
51
0.0
10
480.3207            
20
930.2859            
30
0                   
1
 B1-1
0
TEXT
8
HEIGHT
62
3
7
STD
40
0.25
41
1.0
50
0.0
51
0.0
10
480.3207            
20
930.2859            
30
0                   
1
 0
0
TEXT
8
CO_ORDS
62
3
7
STD
40
0.25
41
1.0
50
0.0
51
0.0
10
480.3207            
20
930.2859            
30
0                   
1
 480.321 930.2860
INSERT
8
POINT
62
2
2
CROSS
10
478.4205            
20
930.2479            
30
0                   
41
0.002
42
0.002
43
0.002
50
0.0
0
TEXT
8
CODE
62
3
7
STD
40
0.25
41
1.0
50
0.0
51
0.0
10
478.4205            
20
930.2479            
30
0                   
1
  
0
TEXT
8
PT_ID
62
3
7
STD
40
0.25
41
1.0
50
0.0
51
0.0
10
478.4205            
20
930.2479            
30
0                   
1
 B1-2
0
TEXT
8
HEIGHT
62
3
7
STD
40
0.25
41
1.0
50
0.0
51
0.0
10
478.4205            
20
930.2479            
30
0                   
1
 0
0
TEXT
8
CO_ORDS
62
3
7
STD
40
0.25
41
1.0
50
0.0
51
0.0
10
478.4205            
20
930.2479            
30
0                   
1
 478.421 930.2480
INSERT
8
POINT
62
2
2
CROSS
10
478.4625            
20
928.1476            
30
0                   
41
0.002
42
0.002
43
0.002
50
0.0
0
TEXT
8
CODE
62
3
7
STD
40
0.25
41
1.0
50
0.0
51
0.0
10
478.4625            
20
928.1476            
30
0                   
1
  
0
TEXT
8
PT_ID
62
3
7
STD
40
0.25
41
1.0
50
0.0
51
0.0
10
478.4625            
20
928.1476            
30
0                   
1
 B1-3
0
TEXT
8
HEIGHT
62
3
7
STD
40
0.25
41
1.0
50
0.0
51
0.0
10
478.4625            
20
928.1476            
30
0                   
1
 0
0
TEXT
8
CO_ORDS
62
3
7
STD
40
0.25
41
1.0
50
0.0
51
0.0
10
478.4625            
20
928.1476            
30
0                   
1
 478.462 928.1480
INSERT
8
POINT
62
2
2
CROSS
10
473.1042            
20
928.0202            
30
0                   
41
0.002
42
0.002
43
0.002
50
0.0
0
TEXT
8
CODE
62
3
7
STD
40
0.25
41
1.0
50
0.0
51
0.0
10
473.1042            
20
928.0202            
30
0                   
1
  
0
TEXT
8
PT_ID
62
3
7
STD
40
0.25
41
1.0
50
0.0
51
0.0
10
473.1042            
20
928.0202            
30
0                   
1
 B2-0
0
TEXT
8
HEIGHT
62
3
7
STD
40
0.25
41
1.0
50
0.0
51
0.0
10
473.1042            
20
928.0202            
30
0                   
1
 0
0
TEXT
8
CO_ORDS
62
3
7
STD
40
0.25
41
1.0
50
0.0
51
0.0
10
473.1042            
20
928.0202            
30
0                   
1
 473.104 928.0200
INSERT
8
POINT
62
2
2
CROSS
10
471.9415            
20
929.1202            
30
0                   
41
0.002
42
0.002
43
0.002
50
0.0
0
TEXT
8
CODE
62
3
7
STD
40
0.25
41
1.0
50
0.0
51
0.0
10
471.9415            
20
929.1202            
30
0                   
1
  
0
TEXT
8
PT_ID
62
3
7
STD
40
0.25
41
1.0
50
0.0
51
0.0
10
471.9415            
20
929.1202            
30
0                   
1
 B2-1
0
TEXT
8
HEIGHT
62
3
7
STD
40
0.25
41
1.0
50
0.0
51
0.0
10
471.9415            
20
929.1202            
30
0                   
1
 0
0
TEXT
8
CO_ORDS
62
3
7
STD
40
0.25
41
1.0
50
0.0
51
0.0
10
471.9415            
20
929.1202            
30
0                   
1
 471.942 929.1200
INSERT
8
POINT
62
2
2
CROSS
10
470.9790            
20
928.1029            
30
0                   
41
0.002
42
0.002
43
0.002
50
0.0
0
TEXT
8
CODE
62
3
7
STD
40
0.25
41
1.0
50
0.0
51
0.0
10
470.9790            
20
928.1029            
30
0                   
1
  
0
TEXT
8
PT_ID
62
3
7
STD
40
0.25
41
1.0
50
0.0
51
0.0
10
470.9790            
20
928.1029            
30
0                   
1
 B2-2
0
TEXT
8
HEIGHT
62
3
7
STD
40
0.25
41
1.0
50
0.0
51
0.0
10
470.9790            
20
928.1029            
30
0                   
1
 0
0
TEXT
8
CO_ORDS
62
3
7
STD
40
0.25
41
1.0
50
0.0
51
0.0
10
470.9790            
20
928.1029            
30
0                   
1
 470.979 928.1030
INSERT
8
POINT
62
2
2
CROSS
10
472.1416            
20
927.0029            
30
0                   
41
0.002
42
0.002
43
0.002
50
0.0
0
TEXT
8
CODE
62
3
7
STD
40
0.25
41
1.0
50
0.0
51
0.0
10
472.1416            
20
927.0029            
30
0                   
1
  
0
TEXT
8
PT_ID
62
3
7
STD
40
0.25
41
1.0
50
0.0
51
0.0
10
472.1416            
20
927.0029            
30
0                   
1
 B2-3
0
TEXT
8
HEIGHT
62
3
7
STD
40
0.25
41
1.0
50
0.0
51
0.0
10
472.1416            
20
927.0029            
30
0                   
1
 0
0
TEXT
8
CO_ORDS
62
3
7
STD
40
0.25
41
1.0
50
0.0
51
0.0
10
472.1416            
20
927.0029            
30
0                   
1
 472.142 927.0030
INSERT
8
POINT
62
2
2
CROSS
10
469.3098            
20
926.6902            
30
0                   
41
0.002
42
0.002
43
0.002
50
0.0
0
TEXT
8
CODE
62
3
7
STD
40
0.25
41
1.0
50
0.0
51
0.0
10
469.3098            
20
926.6902            
30
0                   
1
  
0
TEXT
8
PT_ID
62
3
7
STD
40
0.25
41
1.0
50
0.0
51
0.0
10
469.3098            
20
926.6902            
30
0                   
1
 B3-0
0
TEXT
8
HEIGHT
62
3
7
STD
40
0.25
41
1.0
50
0.0
51
0.0
10
469.3098            
20
926.6902            
30
0                   
1
 0
0
TEXT
8
CO_ORDS
62
3
7
STD
40
0.25
41
1.0
50
0.0
51
0.0
10
469.3098            
20
926.6902            
30
0                   
1
 469.310 926.6900
INSERT
8
POINT
62
2
2
CROSS
10
468.2466            
20
927.7491            
30
0                   
41
0.002
42
0.002
43
0.002
50
0.0
0
TEXT
8
CODE
62
3
7
STD
40
0.25
41
1.0
50
0.0
51
0.0
10
468.2466            
20
927.7491            
30
0                   
1
  
0
TEXT
8
PT_ID
62
3
7
STD
40
0.25
41
1.0
50
0.0
51
0.0
10
468.2466            
20
927.7491            
30
0                   
1
 B3-1
0
TEXT
8
HEIGHT
62
3
7
STD
40
0.25
41
1.0
50
0.0
51
0.0
10
468.2466            
20
927.7491            
30
0                   
1
 0
0
TEXT
8
CO_ORDS
62
3
7
STD
40
0.25
41
1.0
50
0.0
51
0.0
10
468.2466            
20
927.7491            
30
0                   
1
 468.247 927.7490
INSERT
8
POINT
62
2
2
CROSS
10
467.1877            
20
926.6859            
30
0                   
41
0.002
42
0.002
43
0.002
50
0.0
0
TEXT
8
CODE
62
3
7
STD
40
0.25
41
1.0
50
0.0
51
0.0
10
467.1877            
20
926.6859            
30
0                   
1
  
0
TEXT
8
PT_ID
62
3
7
STD
40
0.25
41
1.0
50
0.0
51
0.0
10
467.1877            
20
926.6859            
30
0                   
1
 B3-2
0
TEXT
8
HEIGHT
62
3
7
STD
40
0.25
41
1.0
50
0.0
51
0.0
10
467.1877            
20
926.6859            
30
0                   
1
 0
0
TEXT
8
CO_ORDS
62
3
7
STD
40
0.25
41
1.0
50
0.0
51
0.0
10
467.1877            
20
926.6859            
30
0                   
1
 467.188 926.6860
INSERT
8
POINT
62
2
2
CROSS
10
468.2509            
20
925.6270            
30
0                   
41
0.002
42
0.002
43
0.002
50
0.0
0
TEXT
8
CODE
62
3
7
STD
40
0.25
41
1.0
50
0.0
51
0.0
10
468.2509            
20
925.6270            
30
0                   
1
  
0
TEXT
8
PT_ID
62
3
7
STD
40
0.25
41
1.0
50
0.0
51
0.0
10
468.2509            
20
925.6270            
30
0                   
1
 B3-3
0
TEXT
8
HEIGHT
62
3
7
STD
40
0.25
41
1.0
50
0.0
51
0.0
10
468.2509            
20
925.6270            
30
0                   
1
 0
0
TEXT
8
CO_ORDS
62
3
7
STD
40
0.25
41
1.0
50
0.0
51
0.0
10
468.2509            
20
925.6270            
30
0                   
1
 468.251 925.6270
INSERT
8
POINT
62
2
2
CROSS
10
465.2463            
20
920.9673            
30
0                   
41
0.002
42
0.002
43
0.002
50
0.0
0
TEXT
8
CODE
62
3
7
STD
40
0.25
41
1.0
50
0.0
51
0.0
10
465.2463            
20
920.9673            
30
0                   
1
  
0
TEXT
8
PT_ID
62
3
7
STD
40
0.25
41
1.0
50
0.0
51
0.0
10
465.2463            
20
920.9673            
30
0                   
1
 B4-0
0
TEXT
8
HEIGHT
62
3
7
STD
40
0.25
41
1.0
50
0.0
51
0.0
10
465.2463            
20
920.9673            
30
0                   
1
 0
0
TEXT
8
CO_ORDS
62
3
7
STD
40
0.25
41
1.0
50
0.0
51
0.0
10
465.2463            
20
920.9673            
30
0                   
1
 465.246 920.9670
INSERT
8
POINT
62
2
2
CROSS
10
464.1563            
20
921.9986            
30
0                   
41
0.002
42
0.002
43
0.002
50
0.0
0
TEXT
8
CODE
62
3
7
STD
40
0.25
41
1.0
50
0.0
51
0.0
10
464.1563            
20
921.9986            
30
0                   
1
  
0
TEXT
8
PT_ID
62
3
7
STD
40
0.25
41
1.0
50
0.0
51
0.0
10
464.1563            
20
921.9986            
30
0                   
1
 B4-1
0
TEXT
8
HEIGHT
62
3
7
STD
40
0.25
41
1.0
50
0.0
51
0.0
10
464.1563            
20
921.9986            
30
0                   
1
 0
0
TEXT
8
CO_ORDS
62
3
7
STD
40
0.25
41
1.0
50
0.0
51
0.0
10
464.1563            
20
921.9986            
30
0                   
1
 464.156 921.9990
INSERT
8
POINT
62
2
2
CROSS
10
463.1250            
20
920.9086            
30
0                   
41
0.002
42
0.002
43
0.002
50
0.0
0
TEXT
8
CODE
62
3
7
STD
40
0.25
41
1.0
50
0.0
51
0.0
10
463.1250            
20
920.9086            
30
0                   
1
  
0
TEXT
8
PT_ID
62
3
7
STD
40
0.25
41
1.0
50
0.0
51
0.0
10
463.1250            
20
920.9086            
30
0                   
1
 B4-2
0
TEXT
8
HEIGHT
62
3
7
STD
40
0.25
41
1.0
50
0.0
51
0.0
10
463.1250            
20
920.9086            
30
0                   
1
 0
0
TEXT
8
CO_ORDS
62
3
7
STD
40
0.25
41
1.0
50
0.0
51
0.0
10
463.1250            
20
920.9086            
30
0                   
1
 463.125 920.9090
INSERT
8
POINT
62
2
2
CROSS
10
464.2150            
20
919.8774            
30
0                   
41
0.002
42
0.002
43
0.002
50
0.0
0
TEXT
8
CODE
62
3
7
STD
40
0.25
41
1.0
50
0.0
51
0.0
10
464.2150            
20
919.8774            
30
0                   
1
  
0
TEXT
8
PT_ID
62
3
7
STD
40
0.25
41
1.0
50
0.0
51
0.0
10
464.2150            
20
919.8774            
30
0                   
1
 B4-3
0
TEXT
8
HEIGHT
62
3
7
STD
40
0.25
41
1.0
50
0.0
51
0.0
10
464.2150            
20
919.8774            
30
0                   
1
 0
0
TEXT
8
CO_ORDS
62
3
7
STD
40
0.25
41
1.0
50
0.0
51
0.0
10
464.2150            
20
919.8774            
30
0                   
1
 464.215 919.8770
INSERT
8
POINT
62
2
2
CROSS
10
461.2813            
20
916.9551            
30
0                   
41
0.002
42
0.002
43
0.002
50
0.0
0
TEXT
8
CODE
62
3
7
STD
40
0.25
41
1.0
50
0.0
51
0.0
10
461.2813            
20
916.9551            
30
0                   
1
  
0
TEXT
8
PT_ID
62
3
7
STD
40
0.25
41
1.0
50
0.0
51
0.0
10
461.2813            
20
916.9551            
30
0                   
1
 B5-0
0
TEXT
8
HEIGHT
62
3
7
STD
40
0.25
41
1.0
50
0.0
51
0.0
10
461.2813            
20
916.9551            
30
0                   
1
 0
0
TEXT
8
CO_ORDS
62
3
7
STD
40
0.25
41
1.0
50
0.0
51
0.0
10
461.2813            
20
916.9551            
30
0                   
1
 461.281 916.9550
INSERT
8
POINT
62
2
2
CROSS
10
460.1186            
20
918.0552            
30
0                   
41
0.002
42
0.002
43
0.002
50
0.0
0
TEXT
8
CODE
62
3
7
STD
40
0.25
41
1.0
50
0.0
51
0.0
10
460.1186            
20
918.0552            
30
0                   
1
  
0
TEXT
8
PT_ID
62
3
7
STD
40
0.25
41
1.0
50
0.0
51
0.0
10
460.1186            
20
918.0552            
30
0                   
1
 B5-1
0
TEXT
8
HEIGHT
62
3
7
STD
40
0.25
41
1.0
50
0.0
51
0.0
10
460.1186            
20
918.0552            
30
0                   
1
 0
0
TEXT
8
CO_ORDS
62
3
7
STD
40
0.25
41
1.0
50
0.0
51
0.0
10
460.1186            
20
918.0552            
30
0                   
1
 460.119 918.0550
INSERT
8
POINT
62
2
2
CROSS
10
459.1561            
20
917.0379            
30
0                   
41
0.002
42
0.002
43
0.002
50
0.0
0
TEXT
8
CODE
62
3
7
STD
40
0.25
41
1.0
50
0.0
51
0.0
10
459.1561            
20
917.0379            
30
0                   
1
  
0
TEXT
8
PT_ID
62
3
7
STD
40
0.25
41
1.0
50
0.0
51
0.0
10
459.1561            
20
917.0379            
30
0                   
1
 B5-2
0
TEXT
8
HEIGHT
62
3
7
STD
40
0.25
41
1.0
50
0.0
51
0.0
10
459.1561            
20
917.0379            
30
0                   
1
 0
0
TEXT
8
CO_ORDS
62
3
7
STD
40
0.25
41
1.0
50
0.0
51
0.0
10
459.1561            
20
917.0379            
30
0                   
1
 459.156 917.0380
INSERT
8
POINT
62
2
2
CROSS
10
460.3187            
20
915.9378            
30
0                   
41
0.002
42
0.002
43
0.002
50
0.0
0
TEXT
8
CODE
62
3
7
STD
40
0.25
41
1.0
50
0.0
51
0.0
10
460.3187            
20
915.9378            
30
0                   
1
  
0
TEXT
8
PT_ID
62
3
7
STD
40
0.25
41
1.0
50
0.0
51
0.0
10
460.3187            
20
915.9378            
30
0                   
1
 B5-3
0
TEXT
8
HEIGHT
62
3
7
STD
40
0.25
41
1.0
50
0.0
51
0.0
10
460.3187            
20
915.9378            
30
0                   
1
 0
0
TEXT
8
CO_ORDS
62
3
7
STD
40
0.25
41
1.0
50
0.0
51
0.0
10
460.3187            
20
915.9378            
30
0                   
1
 460.319 915.9380
INSERT
8
POINT
62
2
2
CROSS
10
456.3136            
20
912.0233            
30
0                   
41
0.002
42
0.002
43
0.002
50
0.0
0
TEXT
8
CODE
62
3
7
STD
40
0.25
41
1.0
50
0.0
51
0.0
10
456.3136            
20
912.0233            
30
0                   
1
  
0
TEXT
8
PT_ID
62
3
7
STD
40
0.25
41
1.0
50
0.0
51
0.0
10
456.3136            
20
912.0233            
30
0                   
1
 B6-0
0
TEXT
8
HEIGHT
62
3
7
STD
40
0.25
41
1.0
50
0.0
51
0.0
10
456.3136            
20
912.0233            
30
0                   
1
 0
0
TEXT
8
CO_ORDS
62
3
7
STD
40
0.25
41
1.0
50
0.0
51
0.0
10
456.3136            
20
912.0233            
30
0                   
1
 456.314 912.0230
INSERT
8
POINT
62
2
2
CROSS
10
455.1510            
20
913.1234            
30
0                   
41
0.002
42
0.002
43
0.002
50
0.0
0
TEXT
8
CODE
62
3
7
STD
40
0.25
41
1.0
50
0.0
51
0.0
10
455.1510            
20
913.1234            
30
0                   
1
  
0
TEXT
8
PT_ID
62
3
7
STD
40
0.25
41
1.0
50
0.0
51
0.0
10
455.1510            
20
913.1234            
30
0                   
1
 B6-1
0
TEXT
8
HEIGHT
62
3
7
STD
40
0.25
41
1.0
50
0.0
51
0.0
10
455.1510            
20
913.1234            
30
0                   
1
 0
0
TEXT
8
CO_ORDS
62
3
7
STD
40
0.25
41
1.0
50
0.0
51
0.0
10
455.1510            
20
913.1234            
30
0                   
1
 455.151 913.1230
INSERT
8
POINT
62
2
2
CROSS
10
454.1885            
20
912.1060            
30
0                   
41
0.002
42
0.002
43
0.002
50
0.0
0
TEXT
8
CODE
62
3
7
STD
40
0.25
41
1.0
50
0.0
51
0.0
10
454.1885            
20
912.1060            
30
0                   
1
  
0
TEXT
8
PT_ID
62
3
7
STD
40
0.25
41
1.0
50
0.0
51
0.0
10
454.1885            
20
912.1060            
30
0                   
1
 B6-2
0
TEXT
8
HEIGHT
62
3
7
STD
40
0.25
41
1.0
50
0.0
51
0.0
10
454.1885            
20
912.1060            
30
0                   
1
 0
0
TEXT
8
CO_ORDS
62
3
7
STD
40
0.25
41
1.0
50
0.0
51
0.0
10
454.1885            
20
912.1060            
30
0                   
1
 454.188 912.1060
INSERT
8
POINT
62
2
2
CROSS
10
455.3511            
20
911.0060            
30
0                   
41
0.002
42
0.002
43
0.002
50
0.0
0
TEXT
8
CODE
62
3
7
STD
40
0.25
41
1.0
50
0.0
51
0.0
10
455.3511            
20
911.0060            
30
0                   
1
  
0
TEXT
8
PT_ID
62
3
7
STD
40
0.25
41
1.0
50
0.0
51
0.0
10
455.3511            
20
911.0060            
30
0                   
1
 B6-3
0
TEXT
8
HEIGHT
62
3
7
STD
40
0.25
41
1.0
50
0.0
51
0.0
10
455.3511            
20
911.0060            
30
0                   
1
 0
0
TEXT
8
CO_ORDS
62
3
7
STD
40
0.25
41
1.0
50
0.0
51
0.0
10
455.3511            
20
911.0060            
30
0                   
1
 455.351 911.0060
INSERT
8
POINT
62
2
2
CROSS
10
451.9967            
20
910.2005            
30
0                   
41
0.002
42
0.002
43
0.002
50
0.0
0
TEXT
8
CODE
62
3
7
STD
40
0.25
41
1.0
50
0.0
51
0.0
10
451.9967            
20
910.2005            
30
0                   
1
  
0
TEXT
8
PT_ID
62
3
7
STD
40
0.25
41
1.0
50
0.0
51
0.0
10
451.9967            
20
910.2005            
30
0                   
1
 B7-0
0
TEXT
8
HEIGHT
62
3
7
STD
40
0.25
41
1.0
50
0.0
51
0.0
10
451.9967            
20
910.2005            
30
0                   
1
 0
0
TEXT
8
CO_ORDS
62
3
7
STD
40
0.25
41
1.0
50
0.0
51
0.0
10
451.9967            
20
910.2005            
30
0                   
1
 451.997 910.2010
INSERT
8
POINT
62
2
2
CROSS
10
450.9339            
20
911.2598            
30
0                   
41
0.002
42
0.002
43
0.002
50
0.0
0
TEXT
8
CODE
62
3
7
STD
40
0.25
41
1.0
50
0.0
51
0.0
10
450.9339            
20
911.2598            
30
0                   
1
  
0
TEXT
8
PT_ID
62
3
7
STD
40
0.25
41
1.0
50
0.0
51
0.0
10
450.9339            
20
911.2598            
30
0                   
1
 B7-1
0
TEXT
8
HEIGHT
62
3
7
STD
40
0.25
41
1.0
50
0.0
51
0.0
10
450.9339            
20
911.2598            
30
0                   
1
 0
0
TEXT
8
CO_ORDS
62
3
7
STD
40
0.25
41
1.0
50
0.0
51
0.0
10
450.9339            
20
911.2598            
30
0                   
1
 450.934 911.2600
INSERT
8
POINT
62
2
2
CROSS
10
449.8746            
20
910.1971            
30
0                   
41
0.002
42
0.002
43
0.002
50
0.0
0
TEXT
8
CODE
62
3
7
STD
40
0.25
41
1.0
50
0.0
51
0.0
10
449.8746            
20
910.1971            
30
0                   
1
  
0
TEXT
8
PT_ID
62
3
7
STD
40
0.25
41
1.0
50
0.0
51
0.0
10
449.8746            
20
910.1971            
30
0                   
1
 B7-2
0
TEXT
8
HEIGHT
62
3
7
STD
40
0.25
41
1.0
50
0.0
51
0.0
10
449.8746            
20
910.1971            
30
0                   
1
 0
0
TEXT
8
CO_ORDS
62
3
7
STD
40
0.25
41
1.0
50
0.0
51
0.0
10
449.8746            
20
910.1971            
30
0                   
1
 449.875 910.1970
INSERT
8
POINT
62
2
2
CROSS
10
450.9373            
20
909.1378            
30
0                   
41
0.002
42
0.002
43
0.002
50
0.0
0
TEXT
8
CODE
62
3
7
STD
40
0.25
41
1.0
50
0.0
51
0.0
10
450.9373            
20
909.1378            
30
0                   
1
  
0
TEXT
8
PT_ID
62
3
7
STD
40
0.25
41
1.0
50
0.0
51
0.0
10
450.9373            
20
909.1378            
30
0                   
1
 B7-3
0
TEXT
8
HEIGHT
62
3
7
STD
40
0.25
41
1.0
50
0.0
51
0.0
10
450.9373            
20
909.1378            
30
0                   
1
 0
0
TEXT
8
CO_ORDS
62
3
7
STD
40
0.25
41
1.0
50
0.0
51
0.0
10
450.9373            
20
909.1378            
30
0                   
1
 450.937 909.1380
INSERT
8
POINT
62
2
2
CROSS
10
447.0259            
20
905.2638            
30
0                   
41
0.002
42
0.002
43
0.002
50
0.0
0
TEXT
8
CODE
62
3
7
STD
40
0.25
41
1.0
50
0.0
51
0.0
10
447.0259            
20
905.2638            
30
0                   
1
  
0
TEXT
8
PT_ID
62
3
7
STD
40
0.25
41
1.0
50
0.0
51
0.0
10
447.0259            
20
905.2638            
30
0                   
1
 B8-0
0
TEXT
8
HEIGHT
62
3
7
STD
40
0.25
41
1.0
50
0.0
51
0.0
10
447.0259            
20
905.2638            
30
0                   
1
 0
0
TEXT
8
CO_ORDS
62
3
7
STD
40
0.25
41
1.0
50
0.0
51
0.0
10
447.0259            
20
905.2638            
30
0                   
1
 447.026 905.2640
INSERT
8
POINT
62
2
2
CROSS
10
445.9688            
20
906.3287            
30
0                   
41
0.002
42
0.002
43
0.002
50
0.0
0
TEXT
8
CODE
62
3
7
STD
40
0.25
41
1.0
50
0.0
51
0.0
10
445.9688            
20
906.3287            
30
0                   
1
  
0
TEXT
8
PT_ID
62
3
7
STD
40
0.25
41
1.0
50
0.0
51
0.0
10
445.9688            
20
906.3287            
30
0                   
1
 B8-1
0
TEXT
8
HEIGHT
62
3
7
STD
40
0.25
41
1.0
50
0.0
51
0.0
10
445.9688            
20
906.3287            
30
0                   
1
 0
0
TEXT
8
CO_ORDS
62
3
7
STD
40
0.25
41
1.0
50
0.0
51
0.0
10
445.9688            
20
906.3287            
30
0                   
1
 445.969 906.3290
INSERT
8
POINT
62
2
2
CROSS
10
444.9038            
20
905.2717            
30
0                   
41
0.002
42
0.002
43
0.002
50
0.0
0
TEXT
8
CODE
62
3
7
STD
40
0.25
41
1.0
50
0.0
51
0.0
10
444.9038            
20
905.2717            
30
0                   
1
  
0
TEXT
8
PT_ID
62
3
7
STD
40
0.25
41
1.0
50
0.0
51
0.0
10
444.9038            
20
905.2717            
30
0                   
1
 B8-2
0
TEXT
8
HEIGHT
62
3
7
STD
40
0.25
41
1.0
50
0.0
51
0.0
10
444.9038            
20
905.2717            
30
0                   
1
 0
0
TEXT
8
CO_ORDS
62
3
7
STD
40
0.25
41
1.0
50
0.0
51
0.0
10
444.9038            
20
905.2717            
30
0                   
1
 444.904 905.2720
INSERT
8
POINT
62
2
2
CROSS
10
445.9609            
20
904.2067            
30
0                   
41
0.002
42
0.002
43
0.002
50
0.0
0
TEXT
8
CODE
62
3
7
STD
40
0.25
41
1.0
50
0.0
51
0.0
10
445.9609            
20
904.2067            
30
0                   
1
  
0
TEXT
8
PT_ID
62
3
7
STD
40
0.25
41
1.0
50
0.0
51
0.0
10
445.9609            
20
904.2067            
30
0                   
1
 B8-3
0
TEXT
8
HEIGHT
62
3
7
STD
40
0.25
41
1.0
50
0.0
51
0.0
10
445.9609            
20
904.2067            
30
0                   
1
 0
0
TEXT
8
CO_ORDS
62
3
7
STD
40
0.25
41
1.0
50
0.0
51
0.0
10
445.9609            
20
904.2067            
30
0                   
1
 445.961 904.2070
INSERT
8
POINT
62
2
2
CROSS
10
443.2801            
20
899.0964            
30
0                   
41
0.002
42
0.002
43
0.002
50
0.0
0
TEXT
8
CODE
62
3
7
STD
40
0.25
41
1.0
50
0.0
51
0.0
10
443.2801            
20
899.0964            
30
0                   
1
  
0
TEXT
8
PT_ID
62
3
7
STD
40
0.25
41
1.0
50
0.0
51
0.0
10
443.2801            
20
899.0964            
30
0                   
1
 B9-0
0
TEXT
8
HEIGHT
62
3
7
STD
40
0.25
41
1.0
50
0.0
51
0.0
10
443.2801            
20
899.0964            
30
0                   
1
 0
0
TEXT
8
CO_ORDS
62
3
7
STD
40
0.25
41
1.0
50
0.0
51
0.0
10
443.2801            
20
899.0964            
30
0                   
1
 443.280 899.0960
INSERT
8
POINT
62
2
2
CROSS
10
442.1175            
20
900.1964            
30
0                   
41
0.002
42
0.002
43
0.002
50
0.0
0
TEXT
8
CODE
62
3
7
STD
40
0.25
41
1.0
50
0.0
51
0.0
10
442.1175            
20
900.1964            
30
0                   
1
  
0
TEXT
8
PT_ID
62
3
7
STD
40
0.25
41
1.0
50
0.0
51
0.0
10
442.1175            
20
900.1964            
30
0                   
1
 B9-1
0
TEXT
8
HEIGHT
62
3
7
STD
40
0.25
41
1.0
50
0.0
51
0.0
10
442.1175            
20
900.1964            
30
0                   
1
 0
0
TEXT
8
CO_ORDS
62
3
7
STD
40
0.25
41
1.0
50
0.0
51
0.0
10
442.1175            
20
900.1964            
30
0                   
1
 442.118 900.1960
INSERT
8
POINT
62
2
2
CROSS
10
441.1549            
20
899.1791            
30
0                   
41
0.002
42
0.002
43
0.002
50
0.0
0
TEXT
8
CODE
62
3
7
STD
40
0.25
41
1.0
50
0.0
51
0.0
10
441.1549            
20
899.1791            
30
0                   
1
  
0
TEXT
8
PT_ID
62
3
7
STD
40
0.25
41
1.0
50
0.0
51
0.0
10
441.1549            
20
899.1791            
30
0                   
1
 B9-2
0
TEXT
8
HEIGHT
62
3
7
STD
40
0.25
41
1.0
50
0.0
51
0.0
10
441.1549            
20
899.1791            
30
0                   
1
 0
0
TEXT
8
CO_ORDS
62
3
7
STD
40
0.25
41
1.0
50
0.0
51
0.0
10
441.1549            
20
899.1791            
30
0                   
1
 441.155 899.1790
INSERT
8
POINT
62
2
2
CROSS
10
442.3176            
20
898.0791            
30
0                   
41
0.002
42
0.002
43
0.002
50
0.0
0
TEXT
8
CODE
62
3
7
STD
40
0.25
41
1.0
50
0.0
51
0.0
10
442.3176            
20
898.0791            
30
0                   
1
  
0
TEXT
8
PT_ID
62
3
7
STD
40
0.25
41
1.0
50
0.0
51
0.0
10
442.3176            
20
898.0791            
30
0                   
1
 B9-3
0
TEXT
8
HEIGHT
62
3
7
STD
40
0.25
41
1.0
50
0.0
51
0.0
10
442.3176            
20
898.0791            
30
0                   
1
 0
0
TEXT
8
CO_ORDS
62
3
7
STD
40
0.25
41
1.0
50
0.0
51
0.0
10
442.3176            
20
898.0791            
30
0                   
1
 442.318 898.0790
INSERT
8
POINT
62
2
2
CROSS
10
438.6685            
20
894.1618            
30
0                   
41
0.002
42
0.002
43
0.002
50
0.0
0
TEXT
8
CODE
62
3
7
STD
40
0.25
41
1.0
50
0.0
51
0.0
10
438.6685            
20
894.1618            
30
0                   
1
  
0
TEXT
8
PT_ID
62
3
7
STD
40
0.25
41
1.0
50
0.0
51
0.0
10
438.6685            
20
894.1618            
30
0                   
1
 B10-0
0
TEXT
8
HEIGHT
62
3
7
STD
40
0.25
41
1.0
50
0.0
51
0.0
10
438.6685            
20
894.1618            
30
0                   
1
 0
0
TEXT
8
CO_ORDS
62
3
7
STD
40
0.25
41
1.0
50
0.0
51
0.0
10
438.6685            
20
894.1618            
30
0                   
1
 438.668 894.1620
INSERT
8
POINT
62
2
2
CROSS
10
437.1544            
20
895.6180            
30
0                   
41
0.002
42
0.002
43
0.002
50
0.0
0
TEXT
8
CODE
62
3
7
STD
40
0.25
41
1.0
50
0.0
51
0.0
10
437.1544            
20
895.6180            
30
0                   
1
  
0
TEXT
8
PT_ID
62
3
7
STD
40
0.25
41
1.0
50
0.0
51
0.0
10
437.1544            
20
895.6180            
30
0                   
1
 B10-1
0
TEXT
8
HEIGHT
62
3
7
STD
40
0.25
41
1.0
50
0.0
51
0.0
10
437.1544            
20
895.6180            
30
0                   
1
 0
0
TEXT
8
CO_ORDS
62
3
7
STD
40
0.25
41
1.0
50
0.0
51
0.0
10
437.1544            
20
895.6180            
30
0                   
1
 437.154 895.6180
INSERT
8
POINT
62
2
2
CROSS
10
435.8369            
20
894.2481            
30
0                   
41
0.002
42
0.002
43
0.002
50
0.0
0
TEXT
8
CODE
62
3
7
STD
40
0.25
41
1.0
50
0.0
51
0.0
10
435.8369            
20
894.2481            
30
0                   
1
  
0
TEXT
8
PT_ID
62
3
7
STD
40
0.25
41
1.0
50
0.0
51
0.0
10
435.8369            
20
894.2481            
30
0                   
1
 B10-2
0
TEXT
8
HEIGHT
62
3
7
STD
40
0.25
41
1.0
50
0.0
51
0.0
10
435.8369            
20
894.2481            
30
0                   
1
 0
0
TEXT
8
CO_ORDS
62
3
7
STD
40
0.25
41
1.0
50
0.0
51
0.0
10
435.8369            
20
894.2481            
30
0                   
1
 435.837 894.2480
INSERT
8
POINT
62
2
2
CROSS
10
437.3510            
20
892.7919            
30
0                   
41
0.002
42
0.002
43
0.002
50
0.0
0
TEXT
8
CODE
62
3
7
STD
40
0.25
41
1.0
50
0.0
51
0.0
10
437.3510            
20
892.7919            
30
0                   
1
  
0
TEXT
8
PT_ID
62
3
7
STD
40
0.25
41
1.0
50
0.0
51
0.0
10
437.3510            
20
892.7919            
30
0                   
1
 B10-3
0
TEXT
8
HEIGHT
62
3
7
STD
40
0.25
41
1.0
50
0.0
51
0.0
10
437.3510            
20
892.7919            
30
0                   
1
 0
0
TEXT
8
CO_ORDS
62
3
7
STD
40
0.25
41
1.0
50
0.0
51
0.0
10
437.3510            
20
892.7919            
30
0                   
1
 437.351 892.7920
INSERT
8
POINT
62
2
2
CROSS
10
434.9670            
20
893.1829            
30
0                   
41
0.002
42
0.002
43
0.002
50
0.0
0
TEXT
8
CODE
62
3
7
STD
40
0.25
41
1.0
50
0.0
51
0.0
10
434.9670            
20
893.1829            
30
0                   
1
  
0
TEXT
8
PT_ID
62
3
7
STD
40
0.25
41
1.0
50
0.0
51
0.0
10
434.9670            
20
893.1829            
30
0                   
1
 B11-0
0
TEXT
8
HEIGHT
62
3
7
STD
40
0.25
41
1.0
50
0.0
51
0.0
10
434.9670            
20
893.1829            
30
0                   
1
 0
0
TEXT
8
CO_ORDS
62
3
7
STD
40
0.25
41
1.0
50
0.0
51
0.0
10
434.9670            
20
893.1829            
30
0                   
1
 434.967 893.1830
INSERT
8
POINT
62
2
2
CROSS
10
433.6787            
20
894.5116            
30
0                   
41
0.002
42
0.002
43
0.002
50
0.0
0
TEXT
8
CODE
62
3
7
STD
40
0.25
41
1.0
50
0.0
51
0.0
10
433.6787            
20
894.5116            
30
0                   
1
  
0
TEXT
8
PT_ID
62
3
7
STD
40
0.25
41
1.0
50
0.0
51
0.0
10
433.6787            
20
894.5116            
30
0                   
1
 B11-1
0
TEXT
8
HEIGHT
62
3
7
STD
40
0.25
41
1.0
50
0.0
51
0.0
10
433.6787            
20
894.5116            
30
0                   
1
 0
0
TEXT
8
CO_ORDS
62
3
7
STD
40
0.25
41
1.0
50
0.0
51
0.0
10
433.6787            
20
894.5116            
30
0                   
1
 433.679 894.5120
INSERT
8
POINT
62
2
2
CROSS
10
432.2783            
20
893.1536            
30
0                   
41
0.002
42
0.002
43
0.002
50
0.0
0
TEXT
8
CODE
62
3
7
STD
40
0.25
41
1.0
50
0.0
51
0.0
10
432.2783            
20
893.1536            
30
0                   
1
  
0
TEXT
8
PT_ID
62
3
7
STD
40
0.25
41
1.0
50
0.0
51
0.0
10
432.2783            
20
893.1536            
30
0                   
1
 B11-2
0
TEXT
8
HEIGHT
62
3
7
STD
40
0.25
41
1.0
50
0.0
51
0.0
10
432.2783            
20
893.1536            
30
0                   
1
 0
0
TEXT
8
CO_ORDS
62
3
7
STD
40
0.25
41
1.0
50
0.0
51
0.0
10
432.2783            
20
893.1536            
30
0                   
1
 432.278 893.1540
INSERT
8
POINT
62
2
2
CROSS
10
433.5666            
20
891.8250            
30
0                   
41
0.002
42
0.002
43
0.002
50
0.0
0
TEXT
8
CODE
62
3
7
STD
40
0.25
41
1.0
50
0.0
51
0.0
10
433.5666            
20
891.8250            
30
0                   
1
  
0
TEXT
8
PT_ID
62
3
7
STD
40
0.25
41
1.0
50
0.0
51
0.0
10
433.5666            
20
891.8250            
30
0                   
1
 B11-3
0
TEXT
8
HEIGHT
62
3
7
STD
40
0.25
41
1.0
50
0.0
51
0.0
10
433.5666            
20
891.8250            
30
0                   
1
 0
0
TEXT
8
CO_ORDS
62
3
7
STD
40
0.25
41
1.0
50
0.0
51
0.0
10
433.5666            
20
891.8250            
30
0                   
1
 433.567 891.8250
INSERT
8
POINT
62
2
2
CROSS
10
431.9350            
20
896.2179            
30
0                   
41
0.002
42
0.002
43
0.002
50
0.0
0
TEXT
8
CODE
62
3
7
STD
40
0.25
41
1.0
50
0.0
51
0.0
10
431.9350            
20
896.2179            
30
0                   
1
  
0
TEXT
8
PT_ID
62
3
7
STD
40
0.25
41
1.0
50
0.0
51
0.0
10
431.9350            
20
896.2179            
30
0                   
1
 B12-0
0
TEXT
8
HEIGHT
62
3
7
STD
40
0.25
41
1.0
50
0.0
51
0.0
10
431.9350            
20
896.2179            
30
0                   
1
 0
0
TEXT
8
CO_ORDS
62
3
7
STD
40
0.25
41
1.0
50
0.0
51
0.0
10
431.9350            
20
896.2179            
30
0                   
1
 431.935 896.2180
INSERT
8
POINT
62
2
2
CROSS
10
430.6468            
20
897.5465            
30
0                   
41
0.002
42
0.002
43
0.002
50
0.0
0
TEXT
8
CODE
62
3
7
STD
40
0.25
41
1.0
50
0.0
51
0.0
10
430.6468            
20
897.5465            
30
0                   
1
  
0
TEXT
8
PT_ID
62
3
7
STD
40
0.25
41
1.0
50
0.0
51
0.0
10
430.6468            
20
897.5465            
30
0                   
1
 B12-1
0
TEXT
8
HEIGHT
62
3
7
STD
40
0.25
41
1.0
50
0.0
51
0.0
10
430.6468            
20
897.5465            
30
0                   
1
 0
0
TEXT
8
CO_ORDS
62
3
7
STD
40
0.25
41
1.0
50
0.0
51
0.0
10
430.6468            
20
897.5465            
30
0                   
1
 430.647 897.5470
INSERT
8
POINT
62
2
2
CROSS
10
429.2463            
20
896.1886            
30
0                   
41
0.002
42
0.002
43
0.002
50
0.0
0
TEXT
8
CODE
62
3
7
STD
40
0.25
41
1.0
50
0.0
51
0.0
10
429.2463            
20
896.1886            
30
0                   
1
  
0
TEXT
8
PT_ID
62
3
7
STD
40
0.25
41
1.0
50
0.0
51
0.0
10
429.2463            
20
896.1886            
30
0                   
1
 B12-2
0
TEXT
8
HEIGHT
62
3
7
STD
40
0.25
41
1.0
50
0.0
51
0.0
10
429.2463            
20
896.1886            
30
0                   
1
 0
0
TEXT
8
CO_ORDS
62
3
7
STD
40
0.25
41
1.0
50
0.0
51
0.0
10
429.2463            
20
896.1886            
30
0                   
1
 429.246 896.1890
INSERT
8
POINT
62
2
2
CROSS
10
430.5346            
20
894.8600            
30
0                   
41
0.002
42
0.002
43
0.002
50
0.0
0
TEXT
8
CODE
62
3
7
STD
40
0.25
41
1.0
50
0.0
51
0.0
10
430.5346            
20
894.8600            
30
0                   
1
  
0
TEXT
8
PT_ID
62
3
7
STD
40
0.25
41
1.0
50
0.0
51
0.0
10
430.5346            
20
894.8600            
30
0                   
1
 B12-3
0
TEXT
8
HEIGHT
62
3
7
STD
40
0.25
41
1.0
50
0.0
51
0.0
10
430.5346            
20
894.8600            
30
0                   
1
 0
0
TEXT
8
CO_ORDS
62
3
7
STD
40
0.25
41
1.0
50
0.0
51
0.0
10
430.5346            
20
894.8600            
30
0                   
1
 430.535 894.860 0
ENDSEC
 0
EOF