0
SECTION
2
HEADER
9
$EXTMIN
10
89
20
89
9
$EXTMAX
10
111
20
111
9
$LIMMIN
10
89
20
89
9
$LIMMAX
10
111
20
111
0
ENDSEC
0
SECTION
2
TABLES
0
TABLE
2
LTYPE
70
255
0
LTYPE
2
1
70
0
3
SOLID
72
65
73
0
40
0
0
ENDTAB
0
TABLE
2
LAYER
70
4
0
LAYER
2
0
62
7
6
1
70
64
0
ENDTAB
0
TABLE
2
STYLE
70
1
0
STYLE
2
STD
70
0
40
0
41
1
50
0
71
0
42
.2
3
txt
0
ENDTAB
0
ENDSEC
0
SECTION
2
BLOCKS
0
BLOCK
2
CROSS
70
0
10
0
20
0
0
LINE
8
0
62
0
10
-50
20
0
11
50
21
0
0
LINE
8
0
62
0
10
0
20
-50
11
0
21
50
0
ENDBLK
0
ENDSEC
0
SECTION
2
ENTITIES0
INSERT
8
POINT
62
2
2
CROSS
10
968.1646            
20
5037.2172           
30
54.5207             
41
0.002
42
0.002
43
0.002
50
0.0
0
TEXT
8
CODE
62
3
7
STD
40
0.25
41
1.0
50
0.0
51
0.0
10
968.1646            
20
5037.2172           
30
54.5207             
1
 AUX
0
TEXT
8
PT_ID
62
3
7
STD
40
0.25
41
1.0
50
0.0
51
0.0
10
968.1646            
20
5037.2172           
30
54.5207             
1
 1
0
TEXT
8
HEIGHT
62
3
7
STD
40
0.25
41
1.0
50
0.0
51
0.0
10
968.1646            
20
5037.2172           
30
54.5207             
1
 54.521
0
TEXT
8
CO_ORDS
62
3
7
STD
40
0.25
41
1.0
50
0.0
51
0.0
10
968.1646            
20
5037.2172           
30
54.5207             
1
 968.165 5037.2170
INSERT
8
POINT
62
2
2
CROSS
10
968.1666            
20
5037.2151           
30
52.6216             
41
0.002
42
0.002
43
0.002
50
0.0
0
TEXT
8
CODE
62
3
7
STD
40
0.25
41
1.0
50
0.0
51
0.0
10
968.1666            
20
5037.2151           
30
52.6216             
1
 AUX
0
TEXT
8
PT_ID
62
3
7
STD
40
0.25
41
1.0
50
0.0
51
0.0
10
968.1666            
20
5037.2151           
30
52.6216             
1
 1A
0
TEXT
8
HEIGHT
62
3
7
STD
40
0.25
41
1.0
50
0.0
51
0.0
10
968.1666            
20
5037.2151           
30
52.6216             
1
 52.622
0
TEXT
8
CO_ORDS
62
3
7
STD
40
0.25
41
1.0
50
0.0
51
0.0
10
968.1666            
20
5037.2151           
30
52.6216             
1
 968.167 5037.2150
INSERT
8
POINT
62
2
2
CROSS
10
946.6998            
20
5067.7356           
30
53.7032             
41
0.002
42
0.002
43
0.002
50
0.0
0
TEXT
8
CODE
62
3
7
STD
40
0.25
41
1.0
50
0.0
51
0.0
10
946.6998            
20
5067.7356           
30
53.7032             
1
 AUX
0
TEXT
8
PT_ID
62
3
7
STD
40
0.25
41
1.0
50
0.0
51
0.0
10
946.6998            
20
5067.7356           
30
53.7032             
1
 2
0
TEXT
8
HEIGHT
62
3
7
STD
40
0.25
41
1.0
50
0.0
51
0.0
10
946.6998            
20
5067.7356           
30
53.7032             
1
 53.703
0
TEXT
8
CO_ORDS
62
3
7
STD
40
0.25
41
1.0
50
0.0
51
0.0
10
946.6998            
20
5067.7356           
30
53.7032             
1
 946.700 5067.7360
INSERT
8
POINT
62
2
2
CROSS
10
995.7427            
20
4968.1461           
30
46.8673             
41
0.002
42
0.002
43
0.002
50
0.0
0
TEXT
8
CODE
62
3
7
STD
40
0.25
41
1.0
50
0.0
51
0.0
10
995.7427            
20
4968.1461           
30
46.8673             
1
 AUX
0
TEXT
8
PT_ID
62
3
7
STD
40
0.25
41
1.0
50
0.0
51
0.0
10
995.7427            
20
4968.1461           
30
46.8673             
1
 3
0
TEXT
8
HEIGHT
62
3
7
STD
40
0.25
41
1.0
50
0.0
51
0.0
10
995.7427            
20
4968.1461           
30
46.8673             
1
 46.867
0
TEXT
8
CO_ORDS
62
3
7
STD
40
0.25
41
1.0
50
0.0
51
0.0
10
995.7427            
20
4968.1461           
30
46.8673             
1
 995.743 4968.1460
INSERT
8
POINT
62
2
2
CROSS
10
989.9249            
20
4992.6996           
30
49.5374             
41
0.002
42
0.002
43
0.002
50
0.0
0
TEXT
8
CODE
62
3
7
STD
40
0.25
41
1.0
50
0.0
51
0.0
10
989.9249            
20
4992.6996           
30
49.5374             
1
 AUX
0
TEXT
8
PT_ID
62
3
7
STD
40
0.25
41
1.0
50
0.0
51
0.0
10
989.9249            
20
4992.6996           
30
49.5374             
1
 4
0
TEXT
8
HEIGHT
62
3
7
STD
40
0.25
41
1.0
50
0.0
51
0.0
10
989.9249            
20
4992.6996           
30
49.5374             
1
 49.537
0
TEXT
8
CO_ORDS
62
3
7
STD
40
0.25
41
1.0
50
0.0
51
0.0
10
989.9249            
20
4992.6996           
30
49.5374             
1
 989.925 4992.7000
INSERT
8
POINT
62
2
2
CROSS
10
960.4822            
20
4977.6069           
30
50.4679             
41
0.002
42
0.002
43
0.002
50
0.0
0
TEXT
8
CODE
62
3
7
STD
40
0.25
41
1.0
50
0.0
51
0.0
10
960.4822            
20
4977.6069           
30
50.4679             
1
 AUX
0
TEXT
8
PT_ID
62
3
7
STD
40
0.25
41
1.0
50
0.0
51
0.0
10
960.4822            
20
4977.6069           
30
50.4679             
1
 5
0
TEXT
8
HEIGHT
62
3
7
STD
40
0.25
41
1.0
50
0.0
51
0.0
10
960.4822            
20
4977.6069           
30
50.4679             
1
 50.468
0
TEXT
8
CO_ORDS
62
3
7
STD
40
0.25
41
1.0
50
0.0
51
0.0
10
960.4822            
20
4977.6069           
30
50.4679             
1
 960.482 4977.6070
INSERT
8
POINT
62
2
2
CROSS
10
932.6836            
20
5038.9632           
30
52.6532             
41
0.002
42
0.002
43
0.002
50
0.0
0
TEXT
8
CODE
62
3
7
STD
40
0.25
41
1.0
50
0.0
51
0.0
10
932.6836            
20
5038.9632           
30
52.6532             
1
 AUX
0
TEXT
8
PT_ID
62
3
7
STD
40
0.25
41
1.0
50
0.0
51
0.0
10
932.6836            
20
5038.9632           
30
52.6532             
1
 6
0
TEXT
8
HEIGHT
62
3
7
STD
40
0.25
41
1.0
50
0.0
51
0.0
10
932.6836            
20
5038.9632           
30
52.6532             
1
 52.653
0
TEXT
8
CO_ORDS
62
3
7
STD
40
0.25
41
1.0
50
0.0
51
0.0
10
932.6836            
20
5038.9632           
30
52.6532             
1
 932.684 5038.9630
INSERT
8
POINT
62
2
2
CROSS
10
919.7114            
20
5011.1652           
30
50.6395             
41
0.002
42
0.002
43
0.002
50
0.0
0
TEXT
8
CODE
62
3
7
STD
40
0.25
41
1.0
50
0.0
51
0.0
10
919.7114            
20
5011.1652           
30
50.6395             
1
 AUX
0
TEXT
8
PT_ID
62
3
7
STD
40
0.25
41
1.0
50
0.0
51
0.0
10
919.7114            
20
5011.1652           
30
50.6395             
1
 7
0
TEXT
8
HEIGHT
62
3
7
STD
40
0.25
41
1.0
50
0.0
51
0.0
10
919.7114            
20
5011.1652           
30
50.6395             
1
 50.640
0
TEXT
8
CO_ORDS
62
3
7
STD
40
0.25
41
1.0
50
0.0
51
0.0
10
919.7114            
20
5011.1652           
30
50.6395             
1
 919.711 5011.1650
INSERT
8
POINT
62
2
2
CROSS
10
978.6835            
20
5036.1184           
30
52.2978             
41
0.002
42
0.002
43
0.002
50
0.0
0
TEXT
8
CODE
62
3
7
STD
40
0.25
41
1.0
50
0.0
51
0.0
10
978.6835            
20
5036.1184           
30
52.2978             
1
 PAREDE
0
TEXT
8
PT_ID
62
3
7
STD
40
0.25
41
1.0
50
0.0
51
0.0
10
978.6835            
20
5036.1184           
30
52.2978             
1
 8
0
TEXT
8
HEIGHT
62
3
7
STD
40
0.25
41
1.0
50
0.0
51
0.0
10
978.6835            
20
5036.1184           
30
52.2978             
1
 52.298
0
TEXT
8
CO_ORDS
62
3
7
STD
40
0.25
41
1.0
50
0.0
51
0.0
10
978.6835            
20
5036.1184           
30
52.2978             
1
 978.683 5036.1180
INSERT
8
POINT
62
2
2
CROSS
10
975.7178            
20
5046.7099           
30
53.1153             
41
0.002
42
0.002
43
0.002
50
0.0
0
TEXT
8
CODE
62
3
7
STD
40
0.25
41
1.0
50
0.0
51
0.0
10
975.7178            
20
5046.7099           
30
53.1153             
1
 PAREDE
0
TEXT
8
PT_ID
62
3
7
STD
40
0.25
41
1.0
50
0.0
51
0.0
10
975.7178            
20
5046.7099           
30
53.1153             
1
 9
0
TEXT
8
HEIGHT
62
3
7
STD
40
0.25
41
1.0
50
0.0
51
0.0
10
975.7178            
20
5046.7099           
30
53.1153             
1
 53.115
0
TEXT
8
CO_ORDS
62
3
7
STD
40
0.25
41
1.0
50
0.0
51
0.0
10
975.7178            
20
5046.7099           
30
53.1153             
1
 975.718 5046.7100
INSERT
8
POINT
62
2
2
CROSS
10
972.8474            
20
5056.9521           
30
53.4017             
41
0.002
42
0.002
43
0.002
50
0.0
0
TEXT
8
CODE
62
3
7
STD
40
0.25
41
1.0
50
0.0
51
0.0
10
972.8474            
20
5056.9521           
30
53.4017             
1
 PAREDE
0
TEXT
8
PT_ID
62
3
7
STD
40
0.25
41
1.0
50
0.0
51
0.0
10
972.8474            
20
5056.9521           
30
53.4017             
1
 10
0
TEXT
8
HEIGHT
62
3
7
STD
40
0.25
41
1.0
50
0.0
51
0.0
10
972.8474            
20
5056.9521           
30
53.4017             
1
 53.402
0
TEXT
8
CO_ORDS
62
3
7
STD
40
0.25
41
1.0
50
0.0
51
0.0
10
972.8474            
20
5056.9521           
30
53.4017             
1
 972.847 5056.9520
INSERT
8
POINT
62
2
2
CROSS
10
969.8095            
20
5067.6172           
30
53.8264             
41
0.002
42
0.002
43
0.002
50
0.0
0
TEXT
8
CODE
62
3
7
STD
40
0.25
41
1.0
50
0.0
51
0.0
10
969.8095            
20
5067.6172           
30
53.8264             
1
 PAREDE
0
TEXT
8
PT_ID
62
3
7
STD
40
0.25
41
1.0
50
0.0
51
0.0
10
969.8095            
20
5067.6172           
30
53.8264             
1
 11
0
TEXT
8
HEIGHT
62
3
7
STD
40
0.25
41
1.0
50
0.0
51
0.0
10
969.8095            
20
5067.6172           
30
53.8264             
1
 53.826
0
TEXT
8
CO_ORDS
62
3
7
STD
40
0.25
41
1.0
50
0.0
51
0.0
10
969.8095            
20
5067.6172           
30
53.8264             
1
 969.809 5067.6170
INSERT
8
POINT
62
2
2
CROSS
10
968.6665            
20
5071.5132           
30
53.8727             
41
0.002
42
0.002
43
0.002
50
0.0
0
TEXT
8
CODE
62
3
7
STD
40
0.25
41
1.0
50
0.0
51
0.0
10
968.6665            
20
5071.5132           
30
53.8727             
1
 PORTAO
0
TEXT
8
PT_ID
62
3
7
STD
40
0.25
41
1.0
50
0.0
51
0.0
10
968.6665            
20
5071.5132           
30
53.8727             
1
 12
0
TEXT
8
HEIGHT
62
3
7
STD
40
0.25
41
1.0
50
0.0
51
0.0
10
968.6665            
20
5071.5132           
30
53.8727             
1
 53.873
0
TEXT
8
CO_ORDS
62
3
7
STD
40
0.25
41
1.0
50
0.0
51
0.0
10
968.6665            
20
5071.5132           
30
53.8727             
1
 968.667 5071.5130
INSERT
8
POINT
62
2
2
CROSS
10
967.0397            
20
5077.1207           
30
53.8483             
41
0.002
42
0.002
43
0.002
50
0.0
0
TEXT
8
CODE
62
3
7
STD
40
0.25
41
1.0
50
0.0
51
0.0
10
967.0397            
20
5077.1207           
30
53.8483             
1
 PORTAO
0
TEXT
8
PT_ID
62
3
7
STD
40
0.25
41
1.0
50
0.0
51
0.0
10
967.0397            
20
5077.1207           
30
53.8483             
1
 13
0
TEXT
8
HEIGHT
62
3
7
STD
40
0.25
41
1.0
50
0.0
51
0.0
10
967.0397            
20
5077.1207           
30
53.8483             
1
 53.848
0
TEXT
8
CO_ORDS
62
3
7
STD
40
0.25
41
1.0
50
0.0
51
0.0
10
967.0397            
20
5077.1207           
30
53.8483             
1
 967.040 5077.1210
INSERT
8
POINT
62
2
2
CROSS
10
965.4993            
20
5082.3605           
30
53.8833             
41
0.002
42
0.002
43
0.002
50
0.0
0
TEXT
8
CODE
62
3
7
STD
40
0.25
41
1.0
50
0.0
51
0.0
10
965.4993            
20
5082.3605           
30
53.8833             
1
 PAREDE
0
TEXT
8
PT_ID
62
3
7
STD
40
0.25
41
1.0
50
0.0
51
0.0
10
965.4993            
20
5082.3605           
30
53.8833             
1
 14
0
TEXT
8
HEIGHT
62
3
7
STD
40
0.25
41
1.0
50
0.0
51
0.0
10
965.4993            
20
5082.3605           
30
53.8833             
1
 53.883
0
TEXT
8
CO_ORDS
62
3
7
STD
40
0.25
41
1.0
50
0.0
51
0.0
10
965.4993            
20
5082.3605           
30
53.8833             
1
 965.499 5082.3610
INSERT
8
POINT
62
2
2
CROSS
10
961.2399            
20
5081.2191           
30
53.8061             
41
0.002
42
0.002
43
0.002
50
0.0
0
TEXT
8
CODE
62
3
7
STD
40
0.25
41
1.0
50
0.0
51
0.0
10
961.2399            
20
5081.2191           
30
53.8061             
1
 PAREDE
0
TEXT
8
PT_ID
62
3
7
STD
40
0.25
41
1.0
50
0.0
51
0.0
10
961.2399            
20
5081.2191           
30
53.8061             
1
 15
0
TEXT
8
HEIGHT
62
3
7
STD
40
0.25
41
1.0
50
0.0
51
0.0
10
961.2399            
20
5081.2191           
30
53.8061             
1
 53.806
0
TEXT
8
CO_ORDS
62
3
7
STD
40
0.25
41
1.0
50
0.0
51
0.0
10
961.2399            
20
5081.2191           
30
53.8061             
1
 961.240 5081.2190
INSERT
8
POINT
62
2
2
CROSS
10
959.6984            
20
5086.5344           
30
53.9146             
41
0.002
42
0.002
43
0.002
50
0.0
0
TEXT
8
CODE
62
3
7
STD
40
0.25
41
1.0
50
0.0
51
0.0
10
959.6984            
20
5086.5344           
30
53.9146             
1
 PAREDE
0
TEXT
8
PT_ID
62
3
7
STD
40
0.25
41
1.0
50
0.0
51
0.0
10
959.6984            
20
5086.5344           
30
53.9146             
1
 16
0
TEXT
8
HEIGHT
62
3
7
STD
40
0.25
41
1.0
50
0.0
51
0.0
10
959.6984            
20
5086.5344           
30
53.9146             
1
 53.915
0
TEXT
8
CO_ORDS
62
3
7
STD
40
0.25
41
1.0
50
0.0
51
0.0
10
959.6984            
20
5086.5344           
30
53.9146             
1
 959.698 5086.5340
INSERT
8
POINT
62
2
2
CROSS
10
957.1635            
20
5085.9009           
30
53.8860             
41
0.002
42
0.002
43
0.002
50
0.0
0
TEXT
8
CODE
62
3
7
STD
40
0.25
41
1.0
50
0.0
51
0.0
10
957.1635            
20
5085.9009           
30
53.8860             
1
 PAREDE
0
TEXT
8
PT_ID
62
3
7
STD
40
0.25
41
1.0
50
0.0
51
0.0
10
957.1635            
20
5085.9009           
30
53.8860             
1
 17
0
TEXT
8
HEIGHT
62
3
7
STD
40
0.25
41
1.0
50
0.0
51
0.0
10
957.1635            
20
5085.9009           
30
53.8860             
1
 53.886
0
TEXT
8
CO_ORDS
62
3
7
STD
40
0.25
41
1.0
50
0.0
51
0.0
10
957.1635            
20
5085.9009           
30
53.8860             
1
 957.163 5085.9010
INSERT
8
POINT
62
2
2
CROSS
10
954.2813            
20
5095.7688           
30
54.0808             
41
0.002
42
0.002
43
0.002
50
0.0
0
TEXT
8
CODE
62
3
7
STD
40
0.25
41
1.0
50
0.0
51
0.0
10
954.2813            
20
5095.7688           
30
54.0808             
1
 PAREDE
0
TEXT
8
PT_ID
62
3
7
STD
40
0.25
41
1.0
50
0.0
51
0.0
10
954.2813            
20
5095.7688           
30
54.0808             
1
 18
0
TEXT
8
HEIGHT
62
3
7
STD
40
0.25
41
1.0
50
0.0
51
0.0
10
954.2813            
20
5095.7688           
30
54.0808             
1
 54.081
0
TEXT
8
CO_ORDS
62
3
7
STD
40
0.25
41
1.0
50
0.0
51
0.0
10
954.2813            
20
5095.7688           
30
54.0808             
1
 954.281 5095.7690
INSERT
8
POINT
62
2
2
CROSS
10
953.4659            
20
5091.6614           
30
53.9969             
41
0.002
42
0.002
43
0.002
50
0.0
0
TEXT
8
CODE
62
3
7
STD
40
0.25
41
1.0
50
0.0
51
0.0
10
953.4659            
20
5091.6614           
30
53.9969             
1
 PAREDE
0
TEXT
8
PT_ID
62
3
7
STD
40
0.25
41
1.0
50
0.0
51
0.0
10
953.4659            
20
5091.6614           
30
53.9969             
1
 19
0
TEXT
8
HEIGHT
62
3
7
STD
40
0.25
41
1.0
50
0.0
51
0.0
10
953.4659            
20
5091.6614           
30
53.9969             
1
 53.997
0
TEXT
8
CO_ORDS
62
3
7
STD
40
0.25
41
1.0
50
0.0
51
0.0
10
953.4659            
20
5091.6614           
30
53.9969             
1
 953.466 5091.6610
INSERT
8
POINT
62
2
2
CROSS
10
948.3502            
20
5090.5417           
30
53.9560             
41
0.002
42
0.002
43
0.002
50
0.0
0
TEXT
8
CODE
62
3
7
STD
40
0.25
41
1.0
50
0.0
51
0.0
10
948.3502            
20
5090.5417           
30
53.9560             
1
 PAREDE
0
TEXT
8
PT_ID
62
3
7
STD
40
0.25
41
1.0
50
0.0
51
0.0
10
948.3502            
20
5090.5417           
30
53.9560             
1
 20
0
TEXT
8
HEIGHT
62
3
7
STD
40
0.25
41
1.0
50
0.0
51
0.0
10
948.3502            
20
5090.5417           
30
53.9560             
1
 53.956
0
TEXT
8
CO_ORDS
62
3
7
STD
40
0.25
41
1.0
50
0.0
51
0.0
10
948.3502            
20
5090.5417           
30
53.9560             
1
 948.350 5090.5420
INSERT
8
POINT
62
2
2
CROSS
10
947.4192            
20
5094.3799           
30
54.0928             
41
0.002
42
0.002
43
0.002
50
0.0
0
TEXT
8
CODE
62
3
7
STD
40
0.25
41
1.0
50
0.0
51
0.0
10
947.4192            
20
5094.3799           
30
54.0928             
1
 PAREDE
0
TEXT
8
PT_ID
62
3
7
STD
40
0.25
41
1.0
50
0.0
51
0.0
10
947.4192            
20
5094.3799           
30
54.0928             
1
 21
0
TEXT
8
HEIGHT
62
3
7
STD
40
0.25
41
1.0
50
0.0
51
0.0
10
947.4192            
20
5094.3799           
30
54.0928             
1
 54.093
0
TEXT
8
CO_ORDS
62
3
7
STD
40
0.25
41
1.0
50
0.0
51
0.0
10
947.4192            
20
5094.3799           
30
54.0928             
1
 947.419 5094.3800
INSERT
8
POINT
62
2
2
CROSS
10
938.0820            
20
5092.3954           
30
54.0960             
41
0.002
42
0.002
43
0.002
50
0.0
0
TEXT
8
CODE
62
3
7
STD
40
0.25
41
1.0
50
0.0
51
0.0
10
938.0820            
20
5092.3954           
30
54.0960             
1
 PAREDE
0
TEXT
8
PT_ID
62
3
7
STD
40
0.25
41
1.0
50
0.0
51
0.0
10
938.0820            
20
5092.3954           
30
54.0960             
1
 22
0
TEXT
8
HEIGHT
62
3
7
STD
40
0.25
41
1.0
50
0.0
51
0.0
10
938.0820            
20
5092.3954           
30
54.0960             
1
 54.096
0
TEXT
8
CO_ORDS
62
3
7
STD
40
0.25
41
1.0
50
0.0
51
0.0
10
938.0820            
20
5092.3954           
30
54.0960             
1
 938.082 5092.3950
INSERT
8
POINT
62
2
2
CROSS
10
932.4876            
20
5091.1622           
30
54.1083             
41
0.002
42
0.002
43
0.002
50
0.0
0
TEXT
8
CODE
62
3
7
STD
40
0.25
41
1.0
50
0.0
51
0.0
10
932.4876            
20
5091.1622           
30
54.1083             
1
 PAREDE
0
TEXT
8
PT_ID
62
3
7
STD
40
0.25
41
1.0
50
0.0
51
0.0
10
932.4876            
20
5091.1622           
30
54.1083             
1
 23
0
TEXT
8
HEIGHT
62
3
7
STD
40
0.25
41
1.0
50
0.0
51
0.0
10
932.4876            
20
5091.1622           
30
54.1083             
1
 54.108
0
TEXT
8
CO_ORDS
62
3
7
STD
40
0.25
41
1.0
50
0.0
51
0.0
10
932.4876            
20
5091.1622           
30
54.1083             
1
 932.488 5091.1620
INSERT
8
POINT
62
2
2
CROSS
10
953.8588            
20
5095.1376           
30
54.0590             
41
0.002
42
0.002
43
0.002
50
0.0
0
TEXT
8
CODE
62
3
7
STD
40
0.25
41
1.0
50
0.0
51
0.0
10
953.8588            
20
5095.1376           
30
54.0590             
1
 POSTE
0
TEXT
8
PT_ID
62
3
7
STD
40
0.25
41
1.0
50
0.0
51
0.0
10
953.8588            
20
5095.1376           
30
54.0590             
1
 24
0
TEXT
8
HEIGHT
62
3
7
STD
40
0.25
41
1.0
50
0.0
51
0.0
10
953.8588            
20
5095.1376           
30
54.0590             
1
 54.059
0
TEXT
8
CO_ORDS
62
3
7
STD
40
0.25
41
1.0
50
0.0
51
0.0
10
953.8588            
20
5095.1376           
30
54.0590             
1
 953.859 5095.1380
INSERT
8
POINT
62
2
2
CROSS
10
969.9192            
20
5062.5498           
30
53.6127             
41
0.002
42
0.002
43
0.002
50
0.0
0
TEXT
8
CODE
62
3
7
STD
40
0.25
41
1.0
50
0.0
51
0.0
10
969.9192            
20
5062.5498           
30
53.6127             
1
 POSTE
0
TEXT
8
PT_ID
62
3
7
STD
40
0.25
41
1.0
50
0.0
51
0.0
10
969.9192            
20
5062.5498           
30
53.6127             
1
 25
0
TEXT
8
HEIGHT
62
3
7
STD
40
0.25
41
1.0
50
0.0
51
0.0
10
969.9192            
20
5062.5498           
30
53.6127             
1
 53.613
0
TEXT
8
CO_ORDS
62
3
7
STD
40
0.25
41
1.0
50
0.0
51
0.0
10
969.9192            
20
5062.5498           
30
53.6127             
1
 969.919 5062.5500
INSERT
8
POINT
62
2
2
CROSS
10
978.8634            
20
5033.0202           
30
52.2253             
41
0.002
42
0.002
43
0.002
50
0.0
0
TEXT
8
CODE
62
3
7
STD
40
0.25
41
1.0
50
0.0
51
0.0
10
978.8634            
20
5033.0202           
30
52.2253             
1
 POSTE
0
TEXT
8
PT_ID
62
3
7
STD
40
0.25
41
1.0
50
0.0
51
0.0
10
978.8634            
20
5033.0202           
30
52.2253             
1
 26
0
TEXT
8
HEIGHT
62
3
7
STD
40
0.25
41
1.0
50
0.0
51
0.0
10
978.8634            
20
5033.0202           
30
52.2253             
1
 52.225
0
TEXT
8
CO_ORDS
62
3
7
STD
40
0.25
41
1.0
50
0.0
51
0.0
10
978.8634            
20
5033.0202           
30
52.2253             
1
 978.863 5033.0200
INSERT
8
POINT
62
2
2
CROSS
10
978.4777            
20
5032.9020           
30
52.0119             
41
0.002
42
0.002
43
0.002
50
0.0
0
TEXT
8
CODE
62
3
7
STD
40
0.25
41
1.0
50
0.0
51
0.0
10
978.4777            
20
5032.9020           
30
52.0119             
1
 MF
0
TEXT
8
PT_ID
62
3
7
STD
40
0.25
41
1.0
50
0.0
51
0.0
10
978.4777            
20
5032.9020           
30
52.0119             
1
 27
0
TEXT
8
HEIGHT
62
3
7
STD
40
0.25
41
1.0
50
0.0
51
0.0
10
978.4777            
20
5032.9020           
30
52.0119             
1
 52.012
0
TEXT
8
CO_ORDS
62
3
7
STD
40
0.25
41
1.0
50
0.0
51
0.0
10
978.4777            
20
5032.9020           
30
52.0119             
1
 978.478 5032.9020
INSERT
8
POINT
62
2
2
CROSS
10
978.5480            
20
5032.9045           
30
52.2200             
41
0.002
42
0.002
43
0.002
50
0.0
0
TEXT
8
CODE
62
3
7
STD
40
0.25
41
1.0
50
0.0
51
0.0
10
978.5480            
20
5032.9045           
30
52.2200             
1
 MF
0
TEXT
8
PT_ID
62
3
7
STD
40
0.25
41
1.0
50
0.0
51
0.0
10
978.5480            
20
5032.9045           
30
52.2200             
1
 28
0
TEXT
8
HEIGHT
62
3
7
STD
40
0.25
41
1.0
50
0.0
51
0.0
10
978.5480            
20
5032.9045           
30
52.2200             
1
 52.220
0
TEXT
8
CO_ORDS
62
3
7
STD
40
0.25
41
1.0
50
0.0
51
0.0
10
978.5480            
20
5032.9045           
30
52.2200             
1
 978.548 5032.9050
INSERT
8
POINT
62
2
2
CROSS
10
976.2850            
20
5036.5470           
30
52.2466             
41
0.002
42
0.002
43
0.002
50
0.0
0
TEXT
8
CODE
62
3
7
STD
40
0.25
41
1.0
50
0.0
51
0.0
10
976.2850            
20
5036.5470           
30
52.2466             
1
 MF
0
TEXT
8
PT_ID
62
3
7
STD
40
0.25
41
1.0
50
0.0
51
0.0
10
976.2850            
20
5036.5470           
30
52.2466             
1
 29
0
TEXT
8
HEIGHT
62
3
7
STD
40
0.25
41
1.0
50
0.0
51
0.0
10
976.2850            
20
5036.5470           
30
52.2466             
1
 52.247
0
TEXT
8
CO_ORDS
62
3
7
STD
40
0.25
41
1.0
50
0.0
51
0.0
10
976.2850            
20
5036.5470           
30
52.2466             
1
 976.285 5036.5470
INSERT
8
POINT
62
2
2
CROSS
10
976.2897            
20
5036.6035           
30
52.4394             
41
0.002
42
0.002
43
0.002
50
0.0
0
TEXT
8
CODE
62
3
7
STD
40
0.25
41
1.0
50
0.0
51
0.0
10
976.2897            
20
5036.6035           
30
52.4394             
1
 MF
0
TEXT
8
PT_ID
62
3
7
STD
40
0.25
41
1.0
50
0.0
51
0.0
10
976.2897            
20
5036.6035           
30
52.4394             
1
 30
0
TEXT
8
HEIGHT
62
3
7
STD
40
0.25
41
1.0
50
0.0
51
0.0
10
976.2897            
20
5036.6035           
30
52.4394             
1
 52.439
0
TEXT
8
CO_ORDS
62
3
7
STD
40
0.25
41
1.0
50
0.0
51
0.0
10
976.2897            
20
5036.6035           
30
52.4394             
1
 976.290 5036.6040
INSERT
8
POINT
62
2
2
CROSS
10
974.0851            
20
5040.1355           
30
52.4291             
41
0.002
42
0.002
43
0.002
50
0.0
0
TEXT
8
CODE
62
3
7
STD
40
0.25
41
1.0
50
0.0
51
0.0
10
974.0851            
20
5040.1355           
30
52.4291             
1
 MF
0
TEXT
8
PT_ID
62
3
7
STD
40
0.25
41
1.0
50
0.0
51
0.0
10
974.0851            
20
5040.1355           
30
52.4291             
1
 31
0
TEXT
8
HEIGHT
62
3
7
STD
40
0.25
41
1.0
50
0.0
51
0.0
10
974.0851            
20
5040.1355           
30
52.4291             
1
 52.429
0
TEXT
8
CO_ORDS
62
3
7
STD
40
0.25
41
1.0
50
0.0
51
0.0
10
974.0851            
20
5040.1355           
30
52.4291             
1
 974.085 5040.1350
INSERT
8
POINT
62
2
2
CROSS
10
974.1402            
20
5040.2713           
30
52.6117             
41
0.002
42
0.002
43
0.002
50
0.0
0
TEXT
8
CODE
62
3
7
STD
40
0.25
41
1.0
50
0.0
51
0.0
10
974.1402            
20
5040.2713           
30
52.6117             
1
 MF
0
TEXT
8
PT_ID
62
3
7
STD
40
0.25
41
1.0
50
0.0
51
0.0
10
974.1402            
20
5040.2713           
30
52.6117             
1
 32
0
TEXT
8
HEIGHT
62
3
7
STD
40
0.25
41
1.0
50
0.0
51
0.0
10
974.1402            
20
5040.2713           
30
52.6117             
1
 52.612
0
TEXT
8
CO_ORDS
62
3
7
STD
40
0.25
41
1.0
50
0.0
51
0.0
10
974.1402            
20
5040.2713           
30
52.6117             
1
 974.140 5040.2710
INSERT
8
POINT
62
2
2
CROSS
10
971.7378            
20
5044.1379           
30
52.6770             
41
0.002
42
0.002
43
0.002
50
0.0
0
TEXT
8
CODE
62
3
7
STD
40
0.25
41
1.0
50
0.0
51
0.0
10
971.7378            
20
5044.1379           
30
52.6770             
1
 MF
0
TEXT
8
PT_ID
62
3
7
STD
40
0.25
41
1.0
50
0.0
51
0.0
10
971.7378            
20
5044.1379           
30
52.6770             
1
 33
0
TEXT
8
HEIGHT
62
3
7
STD
40
0.25
41
1.0
50
0.0
51
0.0
10
971.7378            
20
5044.1379           
30
52.6770             
1
 52.677
0
TEXT
8
CO_ORDS
62
3
7
STD
40
0.25
41
1.0
50
0.0
51
0.0
10
971.7378            
20
5044.1379           
30
52.6770             
1
 971.738 5044.1380
INSERT
8
POINT
62
2
2
CROSS
10
971.7414            
20
5044.2426           
30
52.8408             
41
0.002
42
0.002
43
0.002
50
0.0
0
TEXT
8
CODE
62
3
7
STD
40
0.25
41
1.0
50
0.0
51
0.0
10
971.7414            
20
5044.2426           
30
52.8408             
1
 MF
0
TEXT
8
PT_ID
62
3
7
STD
40
0.25
41
1.0
50
0.0
51
0.0
10
971.7414            
20
5044.2426           
30
52.8408             
1
 34
0
TEXT
8
HEIGHT
62
3
7
STD
40
0.25
41
1.0
50
0.0
51
0.0
10
971.7414            
20
5044.2426           
30
52.8408             
1
 52.841
0
TEXT
8
CO_ORDS
62
3
7
STD
40
0.25
41
1.0
50
0.0
51
0.0
10
971.7414            
20
5044.2426           
30
52.8408             
1
 971.741 5044.2430
INSERT
8
POINT
62
2
2
CROSS
10
969.3033            
20
5047.7075           
30
52.8299             
41
0.002
42
0.002
43
0.002
50
0.0
0
TEXT
8
CODE
62
3
7
STD
40
0.25
41
1.0
50
0.0
51
0.0
10
969.3033            
20
5047.7075           
30
52.8299             
1
 MF
0
TEXT
8
PT_ID
62
3
7
STD
40
0.25
41
1.0
50
0.0
51
0.0
10
969.3033            
20
5047.7075           
30
52.8299             
1
 35
0
TEXT
8
HEIGHT
62
3
7
STD
40
0.25
41
1.0
50
0.0
51
0.0
10
969.3033            
20
5047.7075           
30
52.8299             
1
 52.830
0
TEXT
8
CO_ORDS
62
3
7
STD
40
0.25
41
1.0
50
0.0
51
0.0
10
969.3033            
20
5047.7075           
30
52.8299             
1
 969.303 5047.7070
INSERT
8
POINT
62
2
2
CROSS
10
969.3208            
20
5047.7817           
30
52.9574             
41
0.002
42
0.002
43
0.002
50
0.0
0
TEXT
8
CODE
62
3
7
STD
40
0.25
41
1.0
50
0.0
51
0.0
10
969.3208            
20
5047.7817           
30
52.9574             
1
 MF
0
TEXT
8
PT_ID
62
3
7
STD
40
0.25
41
1.0
50
0.0
51
0.0
10
969.3208            
20
5047.7817           
30
52.9574             
1
 36
0
TEXT
8
HEIGHT
62
3
7
STD
40
0.25
41
1.0
50
0.0
51
0.0
10
969.3208            
20
5047.7817           
30
52.9574             
1
 52.957
0
TEXT
8
CO_ORDS
62
3
7
STD
40
0.25
41
1.0
50
0.0
51
0.0
10
969.3208            
20
5047.7817           
30
52.9574             
1
 969.321 5047.7820
INSERT
8
POINT
62
2
2
CROSS
10
967.0196            
20
5051.1772           
30
52.9695             
41
0.002
42
0.002
43
0.002
50
0.0
0
TEXT
8
CODE
62
3
7
STD
40
0.25
41
1.0
50
0.0
51
0.0
10
967.0196            
20
5051.1772           
30
52.9695             
1
 MF
0
TEXT
8
PT_ID
62
3
7
STD
40
0.25
41
1.0
50
0.0
51
0.0
10
967.0196            
20
5051.1772           
30
52.9695             
1
 37
0
TEXT
8
HEIGHT
62
3
7
STD
40
0.25
41
1.0
50
0.0
51
0.0
10
967.0196            
20
5051.1772           
30
52.9695             
1
 52.969
0
TEXT
8
CO_ORDS
62
3
7
STD
40
0.25
41
1.0
50
0.0
51
0.0
10
967.0196            
20
5051.1772           
30
52.9695             
1
 967.020 5051.1770
INSERT
8
POINT
62
2
2
CROSS
10
967.0460            
20
5051.2576           
30
53.0988             
41
0.002
42
0.002
43
0.002
50
0.0
0
TEXT
8
CODE
62
3
7
STD
40
0.25
41
1.0
50
0.0
51
0.0
10
967.0460            
20
5051.2576           
30
53.0988             
1
 MF
0
TEXT
8
PT_ID
62
3
7
STD
40
0.25
41
1.0
50
0.0
51
0.0
10
967.0460            
20
5051.2576           
30
53.0988             
1
 38
0
TEXT
8
HEIGHT
62
3
7
STD
40
0.25
41
1.0
50
0.0
51
0.0
10
967.0460            
20
5051.2576           
30
53.0988             
1
 53.099
0
TEXT
8
CO_ORDS
62
3
7
STD
40
0.25
41
1.0
50
0.0
51
0.0
10
967.0460            
20
5051.2576           
30
53.0988             
1
 967.046 5051.2580
INSERT
8
POINT
62
2
2
CROSS
10
964.8496            
20
5054.4062           
30
53.0588             
41
0.002
42
0.002
43
0.002
50
0.0
0
TEXT
8
CODE
62
3
7
STD
40
0.25
41
1.0
50
0.0
51
0.0
10
964.8496            
20
5054.4062           
30
53.0588             
1
 MF
0
TEXT
8
PT_ID
62
3
7
STD
40
0.25
41
1.0
50
0.0
51
0.0
10
964.8496            
20
5054.4062           
30
53.0588             
1
 39
0
TEXT
8
HEIGHT
62
3
7
STD
40
0.25
41
1.0
50
0.0
51
0.0
10
964.8496            
20
5054.4062           
30
53.0588             
1
 53.059
0
TEXT
8
CO_ORDS
62
3
7
STD
40
0.25
41
1.0
50
0.0
51
0.0
10
964.8496            
20
5054.4062           
30
53.0588             
1
 964.850 5054.4060
INSERT
8
POINT
62
2
2
CROSS
10
964.8975            
20
5054.4781           
30
53.2166             
41
0.002
42
0.002
43
0.002
50
0.0
0
TEXT
8
CODE
62
3
7
STD
40
0.25
41
1.0
50
0.0
51
0.0
10
964.8975            
20
5054.4781           
30
53.2166             
1
 MF
0
TEXT
8
PT_ID
62
3
7
STD
40
0.25
41
1.0
50
0.0
51
0.0
10
964.8975            
20
5054.4781           
30
53.2166             
1
 40
0
TEXT
8
HEIGHT
62
3
7
STD
40
0.25
41
1.0
50
0.0
51
0.0
10
964.8975            
20
5054.4781           
30
53.2166             
1
 53.217
0
TEXT
8
CO_ORDS
62
3
7
STD
40
0.25
41
1.0
50
0.0
51
0.0
10
964.8975            
20
5054.4781           
30
53.2166             
1
 964.898 5054.4780
INSERT
8
POINT
62
2
2
CROSS
10
962.6269            
20
5057.8046           
30
53.2067             
41
0.002
42
0.002
43
0.002
50
0.0
0
TEXT
8
CODE
62
3
7
STD
40
0.25
41
1.0
50
0.0
51
0.0
10
962.6269            
20
5057.8046           
30
53.2067             
1
 MF
0
TEXT
8
PT_ID
62
3
7
STD
40
0.25
41
1.0
50
0.0
51
0.0
10
962.6269            
20
5057.8046           
30
53.2067             
1
 41
0
TEXT
8
HEIGHT
62
3
7
STD
40
0.25
41
1.0
50
0.0
51
0.0
10
962.6269            
20
5057.8046           
30
53.2067             
1
 53.207
0
TEXT
8
CO_ORDS
62
3
7
STD
40
0.25
41
1.0
50
0.0
51
0.0
10
962.6269            
20
5057.8046           
30
53.2067             
1
 962.627 5057.8050
INSERT
8
POINT
62
2
2
CROSS
10
962.6586            
20
5057.8999           
30
53.3685             
41
0.002
42
0.002
43
0.002
50
0.0
0
TEXT
8
CODE
62
3
7
STD
40
0.25
41
1.0
50
0.0
51
0.0
10
962.6586            
20
5057.8999           
30
53.3685             
1
 MF
0
TEXT
8
PT_ID
62
3
7
STD
40
0.25
41
1.0
50
0.0
51
0.0
10
962.6586            
20
5057.8999           
30
53.3685             
1
 42
0
TEXT
8
HEIGHT
62
3
7
STD
40
0.25
41
1.0
50
0.0
51
0.0
10
962.6586            
20
5057.8999           
30
53.3685             
1
 53.368
0
TEXT
8
CO_ORDS
62
3
7
STD
40
0.25
41
1.0
50
0.0
51
0.0
10
962.6586            
20
5057.8999           
30
53.3685             
1
 962.659 5057.9000
INSERT
8
POINT
62
2
2
CROSS
10
961.3023            
20
5061.5000           
30
53.3576             
41
0.002
42
0.002
43
0.002
50
0.0
0
TEXT
8
CODE
62
3
7
STD
40
0.25
41
1.0
50
0.0
51
0.0
10
961.3023            
20
5061.5000           
30
53.3576             
1
 MF
0
TEXT
8
PT_ID
62
3
7
STD
40
0.25
41
1.0
50
0.0
51
0.0
10
961.3023            
20
5061.5000           
30
53.3576             
1
 43
0
TEXT
8
HEIGHT
62
3
7
STD
40
0.25
41
1.0
50
0.0
51
0.0
10
961.3023            
20
5061.5000           
30
53.3576             
1
 53.358
0
TEXT
8
CO_ORDS
62
3
7
STD
40
0.25
41
1.0
50
0.0
51
0.0
10
961.3023            
20
5061.5000           
30
53.3576             
1
 961.302 5061.5000
INSERT
8
POINT
62
2
2
CROSS
10
961.6817            
20
5061.4496           
30
53.4773             
41
0.002
42
0.002
43
0.002
50
0.0
0
TEXT
8
CODE
62
3
7
STD
40
0.25
41
1.0
50
0.0
51
0.0
10
961.6817            
20
5061.4496           
30
53.4773             
1
 MF
0
TEXT
8
PT_ID
62
3
7
STD
40
0.25
41
1.0
50
0.0
51
0.0
10
961.6817            
20
5061.4496           
30
53.4773             
1
 44
0
TEXT
8
HEIGHT
62
3
7
STD
40
0.25
41
1.0
50
0.0
51
0.0
10
961.6817            
20
5061.4496           
30
53.4773             
1
 53.477
0
TEXT
8
CO_ORDS
62
3
7
STD
40
0.25
41
1.0
50
0.0
51
0.0
10
961.6817            
20
5061.4496           
30
53.4773             
1
 961.682 5061.4500
INSERT
8
POINT
62
2
2
CROSS
10
962.8880            
20
5065.8614           
30
53.5331             
41
0.002
42
0.002
43
0.002
50
0.0
0
TEXT
8
CODE
62
3
7
STD
40
0.25
41
1.0
50
0.0
51
0.0
10
962.8880            
20
5065.8614           
30
53.5331             
1
 MF
0
TEXT
8
PT_ID
62
3
7
STD
40
0.25
41
1.0
50
0.0
51
0.0
10
962.8880            
20
5065.8614           
30
53.5331             
1
 45
0
TEXT
8
HEIGHT
62
3
7
STD
40
0.25
41
1.0
50
0.0
51
0.0
10
962.8880            
20
5065.8614           
30
53.5331             
1
 53.533
0
TEXT
8
CO_ORDS
62
3
7
STD
40
0.25
41
1.0
50
0.0
51
0.0
10
962.8880            
20
5065.8614           
30
53.5331             
1
 962.888 5065.8610
INSERT
8
POINT
62
2
2
CROSS
10
963.3531            
20
5065.6889           
30
53.6734             
41
0.002
42
0.002
43
0.002
50
0.0
0
TEXT
8
CODE
62
3
7
STD
40
0.25
41
1.0
50
0.0
51
0.0
10
963.3531            
20
5065.6889           
30
53.6734             
1
 MF
0
TEXT
8
PT_ID
62
3
7
STD
40
0.25
41
1.0
50
0.0
51
0.0
10
963.3531            
20
5065.6889           
30
53.6734             
1
 46
0
TEXT
8
HEIGHT
62
3
7
STD
40
0.25
41
1.0
50
0.0
51
0.0
10
963.3531            
20
5065.6889           
30
53.6734             
1
 53.673
0
TEXT
8
CO_ORDS
62
3
7
STD
40
0.25
41
1.0
50
0.0
51
0.0
10
963.3531            
20
5065.6889           
30
53.6734             
1
 963.353 5065.6890
INSERT
8
POINT
62
2
2
CROSS
10
966.3703            
20
5068.9403           
30
53.7051             
41
0.002
42
0.002
43
0.002
50
0.0
0
TEXT
8
CODE
62
3
7
STD
40
0.25
41
1.0
50
0.0
51
0.0
10
966.3703            
20
5068.9403           
30
53.7051             
1
 MF
0
TEXT
8
PT_ID
62
3
7
STD
40
0.25
41
1.0
50
0.0
51
0.0
10
966.3703            
20
5068.9403           
30
53.7051             
1
 47
0
TEXT
8
HEIGHT
62
3
7
STD
40
0.25
41
1.0
50
0.0
51
0.0
10
966.3703            
20
5068.9403           
30
53.7051             
1
 53.705
0
TEXT
8
CO_ORDS
62
3
7
STD
40
0.25
41
1.0
50
0.0
51
0.0
10
966.3703            
20
5068.9403           
30
53.7051             
1
 966.370 5068.9400
INSERT
8
POINT
62
2
2
CROSS
10
966.6919            
20
5068.6091           
30
53.8165             
41
0.002
42
0.002
43
0.002
50
0.0
0
TEXT
8
CODE
62
3
7
STD
40
0.25
41
1.0
50
0.0
51
0.0
10
966.6919            
20
5068.6091           
30
53.8165             
1
 MF
0
TEXT
8
PT_ID
62
3
7
STD
40
0.25
41
1.0
50
0.0
51
0.0
10
966.6919            
20
5068.6091           
30
53.8165             
1
 48
0
TEXT
8
HEIGHT
62
3
7
STD
40
0.25
41
1.0
50
0.0
51
0.0
10
966.6919            
20
5068.6091           
30
53.8165             
1
 53.817
0
TEXT
8
CO_ORDS
62
3
7
STD
40
0.25
41
1.0
50
0.0
51
0.0
10
966.6919            
20
5068.6091           
30
53.8165             
1
 966.692 5068.6090
INSERT
8
POINT
62
2
2
CROSS
10
968.9264            
20
5070.0047           
30
53.8130             
41
0.002
42
0.002
43
0.002
50
0.0
0
TEXT
8
CODE
62
3
7
STD
40
0.25
41
1.0
50
0.0
51
0.0
10
968.9264            
20
5070.0047           
30
53.8130             
1
 MF
0
TEXT
8
PT_ID
62
3
7
STD
40
0.25
41
1.0
50
0.0
51
0.0
10
968.9264            
20
5070.0047           
30
53.8130             
1
 49
0
TEXT
8
HEIGHT
62
3
7
STD
40
0.25
41
1.0
50
0.0
51
0.0
10
968.9264            
20
5070.0047           
30
53.8130             
1
 53.813
0
TEXT
8
CO_ORDS
62
3
7
STD
40
0.25
41
1.0
50
0.0
51
0.0
10
968.9264            
20
5070.0047           
30
53.8130             
1
 968.926 5070.0050
INSERT
8
POINT
62
2
2
CROSS
10
969.1737            
20
5069.5817           
30
53.8917             
41
0.002
42
0.002
43
0.002
50
0.0
0
TEXT
8
CODE
62
3
7
STD
40
0.25
41
1.0
50
0.0
51
0.0
10
969.1737            
20
5069.5817           
30
53.8917             
1
 MF
0
TEXT
8
PT_ID
62
3
7
STD
40
0.25
41
1.0
50
0.0
51
0.0
10
969.1737            
20
5069.5817           
30
53.8917             
1
 50
0
TEXT
8
HEIGHT
62
3
7
STD
40
0.25
41
1.0
50
0.0
51
0.0
10
969.1737            
20
5069.5817           
30
53.8917             
1
 53.892
0
TEXT
8
CO_ORDS
62
3
7
STD
40
0.25
41
1.0
50
0.0
51
0.0
10
969.1737            
20
5069.5817           
30
53.8917             
1
 969.174 5069.5820
INSERT
8
POINT
62
2
2
CROSS
10
934.6879            
20
5073.9328           
30
53.7037             
41
0.002
42
0.002
43
0.002
50
0.0
0
TEXT
8
CODE
62
3
7
STD
40
0.25
41
1.0
50
0.0
51
0.0
10
934.6879            
20
5073.9328           
30
53.7037             
1
 MF
0
TEXT
8
PT_ID
62
3
7
STD
40
0.25
41
1.0
50
0.0
51
0.0
10
934.6879            
20
5073.9328           
30
53.7037             
1
 51
0
TEXT
8
HEIGHT
62
3
7
STD
40
0.25
41
1.0
50
0.0
51
0.0
10
934.6879            
20
5073.9328           
30
53.7037             
1
 53.704
0
TEXT
8
CO_ORDS
62
3
7
STD
40
0.25
41
1.0
50
0.0
51
0.0
10
934.6879            
20
5073.9328           
30
53.7037             
1
 934.688 5073.9330
INSERT
8
POINT
62
2
2
CROSS
10
934.6066            
20
5074.0242           
30
53.8508             
41
0.002
42
0.002
43
0.002
50
0.0
0
TEXT
8
CODE
62
3
7
STD
40
0.25
41
1.0
50
0.0
51
0.0
10
934.6066            
20
5074.0242           
30
53.8508             
1
 MF
0
TEXT
8
PT_ID
62
3
7
STD
40
0.25
41
1.0
50
0.0
51
0.0
10
934.6066            
20
5074.0242           
30
53.8508             
1
 52
0
TEXT
8
HEIGHT
62
3
7
STD
40
0.25
41
1.0
50
0.0
51
0.0
10
934.6066            
20
5074.0242           
30
53.8508             
1
 53.851
0
TEXT
8
CO_ORDS
62
3
7
STD
40
0.25
41
1.0
50
0.0
51
0.0
10
934.6066            
20
5074.0242           
30
53.8508             
1
 934.607 5074.0240
INSERT
8
POINT
62
2
2
CROSS
10
935.0688            
20
5074.4349           
30
53.7164             
41
0.002
42
0.002
43
0.002
50
0.0
0
TEXT
8
CODE
62
3
7
STD
40
0.25
41
1.0
50
0.0
51
0.0
10
935.0688            
20
5074.4349           
30
53.7164             
1
 MF
0
TEXT
8
PT_ID
62
3
7
STD
40
0.25
41
1.0
50
0.0
51
0.0
10
935.0688            
20
5074.4349           
30
53.7164             
1
 53
0
TEXT
8
HEIGHT
62
3
7
STD
40
0.25
41
1.0
50
0.0
51
0.0
10
935.0688            
20
5074.4349           
30
53.7164             
1
 53.716
0
TEXT
8
CO_ORDS
62
3
7
STD
40
0.25
41
1.0
50
0.0
51
0.0
10
935.0688            
20
5074.4349           
30
53.7164             
1
 935.069 5074.4350
INSERT
8
POINT
62
2
2
CROSS
10
935.0011            
20
5074.4815           
30
53.8541             
41
0.002
42
0.002
43
0.002
50
0.0
0
TEXT
8
CODE
62
3
7
STD
40
0.25
41
1.0
50
0.0
51
0.0
10
935.0011            
20
5074.4815           
30
53.8541             
1
 MF
0
TEXT
8
PT_ID
62
3
7
STD
40
0.25
41
1.0
50
0.0
51
0.0
10
935.0011            
20
5074.4815           
30
53.8541             
1
 54
0
TEXT
8
HEIGHT
62
3
7
STD
40
0.25
41
1.0
50
0.0
51
0.0
10
935.0011            
20
5074.4815           
30
53.8541             
1
 53.854
0
TEXT
8
CO_ORDS
62
3
7
STD
40
0.25
41
1.0
50
0.0
51
0.0
10
935.0011            
20
5074.4815           
30
53.8541             
1
 935.001 5074.4820
INSERT
8
POINT
62
2
2
CROSS
10
935.0412            
20
5075.1778           
30
53.7106             
41
0.002
42
0.002
43
0.002
50
0.0
0
TEXT
8
CODE
62
3
7
STD
40
0.25
41
1.0
50
0.0
51
0.0
10
935.0412            
20
5075.1778           
30
53.7106             
1
 MF
0
TEXT
8
PT_ID
62
3
7
STD
40
0.25
41
1.0
50
0.0
51
0.0
10
935.0412            
20
5075.1778           
30
53.7106             
1
 55
0
TEXT
8
HEIGHT
62
3
7
STD
40
0.25
41
1.0
50
0.0
51
0.0
10
935.0412            
20
5075.1778           
30
53.7106             
1
 53.711
0
TEXT
8
CO_ORDS
62
3
7
STD
40
0.25
41
1.0
50
0.0
51
0.0
10
935.0412            
20
5075.1778           
30
53.7106             
1
 935.041 5075.1780
INSERT
8
POINT
62
2
2
CROSS
10
934.9785            
20
5075.1868           
30
53.8757             
41
0.002
42
0.002
43
0.002
50
0.0
0
TEXT
8
CODE
62
3
7
STD
40
0.25
41
1.0
50
0.0
51
0.0
10
934.9785            
20
5075.1868           
30
53.8757             
1
 MF
0
TEXT
8
PT_ID
62
3
7
STD
40
0.25
41
1.0
50
0.0
51
0.0
10
934.9785            
20
5075.1868           
30
53.8757             
1
 56
0
TEXT
8
HEIGHT
62
3
7
STD
40
0.25
41
1.0
50
0.0
51
0.0
10
934.9785            
20
5075.1868           
30
53.8757             
1
 53.876
0
TEXT
8
CO_ORDS
62
3
7
STD
40
0.25
41
1.0
50
0.0
51
0.0
10
934.9785            
20
5075.1868           
30
53.8757             
1
 934.978 5075.1870
INSERT
8
POINT
62
2
2
CROSS
10
932.4064            
20
5078.1070           
30
53.8164             
41
0.002
42
0.002
43
0.002
50
0.0
0
TEXT
8
CODE
62
3
7
STD
40
0.25
41
1.0
50
0.0
51
0.0
10
932.4064            
20
5078.1070           
30
53.8164             
1
 MF
0
TEXT
8
PT_ID
62
3
7
STD
40
0.25
41
1.0
50
0.0
51
0.0
10
932.4064            
20
5078.1070           
30
53.8164             
1
 57
0
TEXT
8
HEIGHT
62
3
7
STD
40
0.25
41
1.0
50
0.0
51
0.0
10
932.4064            
20
5078.1070           
30
53.8164             
1
 53.816
0
TEXT
8
CO_ORDS
62
3
7
STD
40
0.25
41
1.0
50
0.0
51
0.0
10
932.4064            
20
5078.1070           
30
53.8164             
1
 932.406 5078.1070
INSERT
8
POINT
62
2
2
CROSS
10
932.3679            
20
5078.0474           
30
53.9975             
41
0.002
42
0.002
43
0.002
50
0.0
0
TEXT
8
CODE
62
3
7
STD
40
0.25
41
1.0
50
0.0
51
0.0
10
932.3679            
20
5078.0474           
30
53.9975             
1
 MF
0
TEXT
8
PT_ID
62
3
7
STD
40
0.25
41
1.0
50
0.0
51
0.0
10
932.3679            
20
5078.0474           
30
53.9975             
1
 58
0
TEXT
8
HEIGHT
62
3
7
STD
40
0.25
41
1.0
50
0.0
51
0.0
10
932.3679            
20
5078.0474           
30
53.9975             
1
 53.998
0
TEXT
8
CO_ORDS
62
3
7
STD
40
0.25
41
1.0
50
0.0
51
0.0
10
932.3679            
20
5078.0474           
30
53.9975             
1
 932.368 5078.0470
INSERT
8
POINT
62
2
2
CROSS
10
930.0145            
20
5080.7233           
30
53.9006             
41
0.002
42
0.002
43
0.002
50
0.0
0
TEXT
8
CODE
62
3
7
STD
40
0.25
41
1.0
50
0.0
51
0.0
10
930.0145            
20
5080.7233           
30
53.9006             
1
 MF
0
TEXT
8
PT_ID
62
3
7
STD
40
0.25
41
1.0
50
0.0
51
0.0
10
930.0145            
20
5080.7233           
30
53.9006             
1
 59
0
TEXT
8
HEIGHT
62
3
7
STD
40
0.25
41
1.0
50
0.0
51
0.0
10
930.0145            
20
5080.7233           
30
53.9006             
1
 53.901
0
TEXT
8
CO_ORDS
62
3
7
STD
40
0.25
41
1.0
50
0.0
51
0.0
10
930.0145            
20
5080.7233           
30
53.9006             
1
 930.014 5080.7230
INSERT
8
POINT
62
2
2
CROSS
10
929.9494            
20
5080.5978           
30
54.0388             
41
0.002
42
0.002
43
0.002
50
0.0
0
TEXT
8
CODE
62
3
7
STD
40
0.25
41
1.0
50
0.0
51
0.0
10
929.9494            
20
5080.5978           
30
54.0388             
1
 MF
0
TEXT
8
PT_ID
62
3
7
STD
40
0.25
41
1.0
50
0.0
51
0.0
10
929.9494            
20
5080.5978           
30
54.0388             
1
 60
0
TEXT
8
HEIGHT
62
3
7
STD
40
0.25
41
1.0
50
0.0
51
0.0
10
929.9494            
20
5080.5978           
30
54.0388             
1
 54.039
0
TEXT
8
CO_ORDS
62
3
7
STD
40
0.25
41
1.0
50
0.0
51
0.0
10
929.9494            
20
5080.5978           
30
54.0388             
1
 929.949 5080.5980
INSERT
8
POINT
62
2
2
CROSS
10
928.7132            
20
5082.2185           
30
53.9393             
41
0.002
42
0.002
43
0.002
50
0.0
0
TEXT
8
CODE
62
3
7
STD
40
0.25
41
1.0
50
0.0
51
0.0
10
928.7132            
20
5082.2185           
30
53.9393             
1
 MF
0
TEXT
8
PT_ID
62
3
7
STD
40
0.25
41
1.0
50
0.0
51
0.0
10
928.7132            
20
5082.2185           
30
53.9393             
1
 61
0
TEXT
8
HEIGHT
62
3
7
STD
40
0.25
41
1.0
50
0.0
51
0.0
10
928.7132            
20
5082.2185           
30
53.9393             
1
 53.939
0
TEXT
8
CO_ORDS
62
3
7
STD
40
0.25
41
1.0
50
0.0
51
0.0
10
928.7132            
20
5082.2185           
30
53.9393             
1
 928.713 5082.2190
INSERT
8
POINT
62
2
2
CROSS
10
928.5730            
20
5082.0334           
30
54.0955             
41
0.002
42
0.002
43
0.002
50
0.0
0
TEXT
8
CODE
62
3
7
STD
40
0.25
41
1.0
50
0.0
51
0.0
10
928.5730            
20
5082.0334           
30
54.0955             
1
 MF
0
TEXT
8
PT_ID
62
3
7
STD
40
0.25
41
1.0
50
0.0
51
0.0
10
928.5730            
20
5082.0334           
30
54.0955             
1
 62
0
TEXT
8
HEIGHT
62
3
7
STD
40
0.25
41
1.0
50
0.0
51
0.0
10
928.5730            
20
5082.0334           
30
54.0955             
1
 54.096
0
TEXT
8
CO_ORDS
62
3
7
STD
40
0.25
41
1.0
50
0.0
51
0.0
10
928.5730            
20
5082.0334           
30
54.0955             
1
 928.573 5082.0330
INSERT
8
POINT
62
2
2
CROSS
10
927.5563            
20
5082.7697           
30
53.9645             
41
0.002
42
0.002
43
0.002
50
0.0
0
TEXT
8
CODE
62
3
7
STD
40
0.25
41
1.0
50
0.0
51
0.0
10
927.5563            
20
5082.7697           
30
53.9645             
1
 MF
0
TEXT
8
PT_ID
62
3
7
STD
40
0.25
41
1.0
50
0.0
51
0.0
10
927.5563            
20
5082.7697           
30
53.9645             
1
 63
0
TEXT
8
HEIGHT
62
3
7
STD
40
0.25
41
1.0
50
0.0
51
0.0
10
927.5563            
20
5082.7697           
30
53.9645             
1
 53.965
0
TEXT
8
CO_ORDS
62
3
7
STD
40
0.25
41
1.0
50
0.0
51
0.0
10
927.5563            
20
5082.7697           
30
53.9645             
1
 927.556 5082.7700
INSERT
8
POINT
62
2
2
CROSS
10
927.6245            
20
5082.4540           
30
54.1244             
41
0.002
42
0.002
43
0.002
50
0.0
0
TEXT
8
CODE
62
3
7
STD
40
0.25
41
1.0
50
0.0
51
0.0
10
927.6245            
20
5082.4540           
30
54.1244             
1
 MF
0
TEXT
8
PT_ID
62
3
7
STD
40
0.25
41
1.0
50
0.0
51
0.0
10
927.6245            
20
5082.4540           
30
54.1244             
1
 64
0
TEXT
8
HEIGHT
62
3
7
STD
40
0.25
41
1.0
50
0.0
51
0.0
10
927.6245            
20
5082.4540           
30
54.1244             
1
 54.124
0
TEXT
8
CO_ORDS
62
3
7
STD
40
0.25
41
1.0
50
0.0
51
0.0
10
927.6245            
20
5082.4540           
30
54.1244             
1
 927.625 5082.4540
INSERT
8
POINT
62
2
2
CROSS
10
927.1493            
20
5082.2229           
30
53.9678             
41
0.002
42
0.002
43
0.002
50
0.0
0
TEXT
8
CODE
62
3
7
STD
40
0.25
41
1.0
50
0.0
51
0.0
10
927.1493            
20
5082.2229           
30
53.9678             
1
 MF
0
TEXT
8
PT_ID
62
3
7
STD
40
0.25
41
1.0
50
0.0
51
0.0
10
927.1493            
20
5082.2229           
30
53.9678             
1
 65
0
TEXT
8
HEIGHT
62
3
7
STD
40
0.25
41
1.0
50
0.0
51
0.0
10
927.1493            
20
5082.2229           
30
53.9678             
1
 53.968
0
TEXT
8
CO_ORDS
62
3
7
STD
40
0.25
41
1.0
50
0.0
51
0.0
10
927.1493            
20
5082.2229           
30
53.9678             
1
 927.149 5082.2230
INSERT
8
POINT
62
2
2
CROSS
10
927.2847            
20
5082.1718           
30
54.1264             
41
0.002
42
0.002
43
0.002
50
0.0
0
TEXT
8
CODE
62
3
7
STD
40
0.25
41
1.0
50
0.0
51
0.0
10
927.2847            
20
5082.1718           
30
54.1264             
1
 MF
0
TEXT
8
PT_ID
62
3
7
STD
40
0.25
41
1.0
50
0.0
51
0.0
10
927.2847            
20
5082.1718           
30
54.1264             
1
 66
0
TEXT
8
HEIGHT
62
3
7
STD
40
0.25
41
1.0
50
0.0
51
0.0
10
927.2847            
20
5082.1718           
30
54.1264             
1
 54.126
0
TEXT
8
CO_ORDS
62
3
7
STD
40
0.25
41
1.0
50
0.0
51
0.0
10
927.2847            
20
5082.1718           
30
54.1264             
1
 927.285 5082.1720
INSERT
8
POINT
62
2
2
CROSS
10
928.4446            
20
5077.1547           
30
53.8109             
41
0.002
42
0.002
43
0.002
50
0.0
0
TEXT
8
CODE
62
3
7
STD
40
0.25
41
1.0
50
0.0
51
0.0
10
928.4446            
20
5077.1547           
30
53.8109             
1
 MF
0
TEXT
8
PT_ID
62
3
7
STD
40
0.25
41
1.0
50
0.0
51
0.0
10
928.4446            
20
5077.1547           
30
53.8109             
1
 67
0
TEXT
8
HEIGHT
62
3
7
STD
40
0.25
41
1.0
50
0.0
51
0.0
10
928.4446            
20
5077.1547           
30
53.8109             
1
 53.811
0
TEXT
8
CO_ORDS
62
3
7
STD
40
0.25
41
1.0
50
0.0
51
0.0
10
928.4446            
20
5077.1547           
30
53.8109             
1
 928.445 5077.1550
INSERT
8
POINT
62
2
2
CROSS
10
928.6364            
20
5077.0481           
30
53.9409             
41
0.002
42
0.002
43
0.002
50
0.0
0
TEXT
8
CODE
62
3
7
STD
40
0.25
41
1.0
50
0.0
51
0.0
10
928.6364            
20
5077.0481           
30
53.9409             
1
 MF
0
TEXT
8
PT_ID
62
3
7
STD
40
0.25
41
1.0
50
0.0
51
0.0
10
928.6364            
20
5077.0481           
30
53.9409             
1
 68
0
TEXT
8
HEIGHT
62
3
7
STD
40
0.25
41
1.0
50
0.0
51
0.0
10
928.6364            
20
5077.0481           
30
53.9409             
1
 53.941
0
TEXT
8
CO_ORDS
62
3
7
STD
40
0.25
41
1.0
50
0.0
51
0.0
10
928.6364            
20
5077.0481           
30
53.9409             
1
 928.636 5077.0480
INSERT
8
POINT
62
2
2
CROSS
10
930.0608            
20
5072.7153           
30
53.7044             
41
0.002
42
0.002
43
0.002
50
0.0
0
TEXT
8
CODE
62
3
7
STD
40
0.25
41
1.0
50
0.0
51
0.0
10
930.0608            
20
5072.7153           
30
53.7044             
1
 MF
0
TEXT
8
PT_ID
62
3
7
STD
40
0.25
41
1.0
50
0.0
51
0.0
10
930.0608            
20
5072.7153           
30
53.7044             
1
 69
0
TEXT
8
HEIGHT
62
3
7
STD
40
0.25
41
1.0
50
0.0
51
0.0
10
930.0608            
20
5072.7153           
30
53.7044             
1
 53.704
0
TEXT
8
CO_ORDS
62
3
7
STD
40
0.25
41
1.0
50
0.0
51
0.0
10
930.0608            
20
5072.7153           
30
53.7044             
1
 930.061 5072.7150
INSERT
8
POINT
62
2
2
CROSS
10
930.2417            
20
5072.6865           
30
53.8324             
41
0.002
42
0.002
43
0.002
50
0.0
0
TEXT
8
CODE
62
3
7
STD
40
0.25
41
1.0
50
0.0
51
0.0
10
930.2417            
20
5072.6865           
30
53.8324             
1
 MF
0
TEXT
8
PT_ID
62
3
7
STD
40
0.25
41
1.0
50
0.0
51
0.0
10
930.2417            
20
5072.6865           
30
53.8324             
1
 70
0
TEXT
8
HEIGHT
62
3
7
STD
40
0.25
41
1.0
50
0.0
51
0.0
10
930.2417            
20
5072.6865           
30
53.8324             
1
 53.832
0
TEXT
8
CO_ORDS
62
3
7
STD
40
0.25
41
1.0
50
0.0
51
0.0
10
930.2417            
20
5072.6865           
30
53.8324             
1
 930.242 5072.6860
INSERT
8
POINT
62
2
2
CROSS
10
930.8999            
20
5071.2927           
30
53.6592             
41
0.002
42
0.002
43
0.002
50
0.0
0
TEXT
8
CODE
62
3
7
STD
40
0.25
41
1.0
50
0.0
51
0.0
10
930.8999            
20
5071.2927           
30
53.6592             
1
 MF
0
TEXT
8
PT_ID
62
3
7
STD
40
0.25
41
1.0
50
0.0
51
0.0
10
930.8999            
20
5071.2927           
30
53.6592             
1
 71
0
TEXT
8
HEIGHT
62
3
7
STD
40
0.25
41
1.0
50
0.0
51
0.0
10
930.8999            
20
5071.2927           
30
53.6592             
1
 53.659
0
TEXT
8
CO_ORDS
62
3
7
STD
40
0.25
41
1.0
50
0.0
51
0.0
10
930.8999            
20
5071.2927           
30
53.6592             
1
 930.900 5071.2930
INSERT
8
POINT
62
2
2
CROSS
10
931.0400            
20
5071.3064           
30
53.8326             
41
0.002
42
0.002
43
0.002
50
0.0
0
TEXT
8
CODE
62
3
7
STD
40
0.25
41
1.0
50
0.0
51
0.0
10
931.0400            
20
5071.3064           
30
53.8326             
1
 MF
0
TEXT
8
PT_ID
62
3
7
STD
40
0.25
41
1.0
50
0.0
51
0.0
10
931.0400            
20
5071.3064           
30
53.8326             
1
 72
0
TEXT
8
HEIGHT
62
3
7
STD
40
0.25
41
1.0
50
0.0
51
0.0
10
931.0400            
20
5071.3064           
30
53.8326             
1
 53.833
0
TEXT
8
CO_ORDS
62
3
7
STD
40
0.25
41
1.0
50
0.0
51
0.0
10
931.0400            
20
5071.3064           
30
53.8326             
1
 931.040 5071.3060
INSERT
8
POINT
62
2
2
CROSS
10
931.5432            
20
5071.0415           
30
53.6636             
41
0.002
42
0.002
43
0.002
50
0.0
0
TEXT
8
CODE
62
3
7
STD
40
0.25
41
1.0
50
0.0
51
0.0
10
931.5432            
20
5071.0415           
30
53.6636             
1
 MF
0
TEXT
8
PT_ID
62
3
7
STD
40
0.25
41
1.0
50
0.0
51
0.0
10
931.5432            
20
5071.0415           
30
53.6636             
1
 73
0
TEXT
8
HEIGHT
62
3
7
STD
40
0.25
41
1.0
50
0.0
51
0.0
10
931.5432            
20
5071.0415           
30
53.6636             
1
 53.664
0
TEXT
8
CO_ORDS
62
3
7
STD
40
0.25
41
1.0
50
0.0
51
0.0
10
931.5432            
20
5071.0415           
30
53.6636             
1
 931.543 5071.0420
INSERT
8
POINT
62
2
2
CROSS
10
931.4721            
20
5071.2836           
30
53.8370             
41
0.002
42
0.002
43
0.002
50
0.0
0
TEXT
8
CODE
62
3
7
STD
40
0.25
41
1.0
50
0.0
51
0.0
10
931.4721            
20
5071.2836           
30
53.8370             
1
 MF
0
TEXT
8
PT_ID
62
3
7
STD
40
0.25
41
1.0
50
0.0
51
0.0
10
931.4721            
20
5071.2836           
30
53.8370             
1
 74
0
TEXT
8
HEIGHT
62
3
7
STD
40
0.25
41
1.0
50
0.0
51
0.0
10
931.4721            
20
5071.2836           
30
53.8370             
1
 53.837
0
TEXT
8
CO_ORDS
62
3
7
STD
40
0.25
41
1.0
50
0.0
51
0.0
10
931.4721            
20
5071.2836           
30
53.8370             
1
 931.472 5071.2840
INSERT
8
POINT
62
2
2
CROSS
10
932.0338            
20
5071.3043           
30
53.6534             
41
0.002
42
0.002
43
0.002
50
0.0
0
TEXT
8
CODE
62
3
7
STD
40
0.25
41
1.0
50
0.0
51
0.0
10
932.0338            
20
5071.3043           
30
53.6534             
1
 MF
0
TEXT
8
PT_ID
62
3
7
STD
40
0.25
41
1.0
50
0.0
51
0.0
10
932.0338            
20
5071.3043           
30
53.6534             
1
 75
0
TEXT
8
HEIGHT
62
3
7
STD
40
0.25
41
1.0
50
0.0
51
0.0
10
932.0338            
20
5071.3043           
30
53.6534             
1
 53.653
0
TEXT
8
CO_ORDS
62
3
7
STD
40
0.25
41
1.0
50
0.0
51
0.0
10
932.0338            
20
5071.3043           
30
53.6534             
1
 932.034 5071.3040
INSERT
8
POINT
62
2
2
CROSS
10
932.0664            
20
5071.4926           
30
53.8251             
41
0.002
42
0.002
43
0.002
50
0.0
0
TEXT
8
CODE
62
3
7
STD
40
0.25
41
1.0
50
0.0
51
0.0
10
932.0664            
20
5071.4926           
30
53.8251             
1
 MF
0
TEXT
8
PT_ID
62
3
7
STD
40
0.25
41
1.0
50
0.0
51
0.0
10
932.0664            
20
5071.4926           
30
53.8251             
1
 76
0
TEXT
8
HEIGHT
62
3
7
STD
40
0.25
41
1.0
50
0.0
51
0.0
10
932.0664            
20
5071.4926           
30
53.8251             
1
 53.825
0
TEXT
8
CO_ORDS
62
3
7
STD
40
0.25
41
1.0
50
0.0
51
0.0
10
932.0664            
20
5071.4926           
30
53.8251             
1
 932.066 5071.4930
INSERT
8
POINT
62
2
2
CROSS
10
933.6781            
20
5072.8429           
30
53.6769             
41
0.002
42
0.002
43
0.002
50
0.0
0
TEXT
8
CODE
62
3
7
STD
40
0.25
41
1.0
50
0.0
51
0.0
10
933.6781            
20
5072.8429           
30
53.6769             
1
 MF
0
TEXT
8
PT_ID
62
3
7
STD
40
0.25
41
1.0
50
0.0
51
0.0
10
933.6781            
20
5072.8429           
30
53.6769             
1
 77
0
TEXT
8
HEIGHT
62
3
7
STD
40
0.25
41
1.0
50
0.0
51
0.0
10
933.6781            
20
5072.8429           
30
53.6769             
1
 53.677
0
TEXT
8
CO_ORDS
62
3
7
STD
40
0.25
41
1.0
50
0.0
51
0.0
10
933.6781            
20
5072.8429           
30
53.6769             
1
 933.678 5072.8430
INSERT
8
POINT
62
2
2
CROSS
10
933.6111            
20
5072.8743           
30
53.8352             
41
0.002
42
0.002
43
0.002
50
0.0
0
TEXT
8
CODE
62
3
7
STD
40
0.25
41
1.0
50
0.0
51
0.0
10
933.6111            
20
5072.8743           
30
53.8352             
1
 MF
0
TEXT
8
PT_ID
62
3
7
STD
40
0.25
41
1.0
50
0.0
51
0.0
10
933.6111            
20
5072.8743           
30
53.8352             
1
 78
0
TEXT
8
HEIGHT
62
3
7
STD
40
0.25
41
1.0
50
0.0
51
0.0
10
933.6111            
20
5072.8743           
30
53.8352             
1
 53.835
0
TEXT
8
CO_ORDS
62
3
7
STD
40
0.25
41
1.0
50
0.0
51
0.0
10
933.6111            
20
5072.8743           
30
53.8352             
1
 933.611 5072.8740
INSERT
8
POINT
62
2
2
CROSS
10
945.0335            
20
5069.4639           
30
53.5156             
41
0.002
42
0.002
43
0.002
50
0.0
0
TEXT
8
CODE
62
3
7
STD
40
0.25
41
1.0
50
0.0
51
0.0
10
945.0335            
20
5069.4639           
30
53.5156             
1
 MF
0
TEXT
8
PT_ID
62
3
7
STD
40
0.25
41
1.0
50
0.0
51
0.0
10
945.0335            
20
5069.4639           
30
53.5156             
1
 79
0
TEXT
8
HEIGHT
62
3
7
STD
40
0.25
41
1.0
50
0.0
51
0.0
10
945.0335            
20
5069.4639           
30
53.5156             
1
 53.516
0
TEXT
8
CO_ORDS
62
3
7
STD
40
0.25
41
1.0
50
0.0
51
0.0
10
945.0335            
20
5069.4639           
30
53.5156             
1
 945.033 5069.4640
INSERT
8
POINT
62
2
2
CROSS
10
945.0566            
20
5069.4260           
30
53.6429             
41
0.002
42
0.002
43
0.002
50
0.0
0
TEXT
8
CODE
62
3
7
STD
40
0.25
41
1.0
50
0.0
51
0.0
10
945.0566            
20
5069.4260           
30
53.6429             
1
 MF
0
TEXT
8
PT_ID
62
3
7
STD
40
0.25
41
1.0
50
0.0
51
0.0
10
945.0566            
20
5069.4260           
30
53.6429             
1
 80
0
TEXT
8
HEIGHT
62
3
7
STD
40
0.25
41
1.0
50
0.0
51
0.0
10
945.0566            
20
5069.4260           
30
53.6429             
1
 53.643
0
TEXT
8
CO_ORDS
62
3
7
STD
40
0.25
41
1.0
50
0.0
51
0.0
10
945.0566            
20
5069.4260           
30
53.6429             
1
 945.057 5069.4260
INSERT
8
POINT
62
2
2
CROSS
10
941.2063            
20
5069.2670           
30
53.5513             
41
0.002
42
0.002
43
0.002
50
0.0
0
TEXT
8
CODE
62
3
7
STD
40
0.25
41
1.0
50
0.0
51
0.0
10
941.2063            
20
5069.2670           
30
53.5513             
1
 MF
0
TEXT
8
PT_ID
62
3
7
STD
40
0.25
41
1.0
50
0.0
51
0.0
10
941.2063            
20
5069.2670           
30
53.5513             
1
 81
0
TEXT
8
HEIGHT
62
3
7
STD
40
0.25
41
1.0
50
0.0
51
0.0
10
941.2063            
20
5069.2670           
30
53.5513             
1
 53.551
0
TEXT
8
CO_ORDS
62
3
7
STD
40
0.25
41
1.0
50
0.0
51
0.0
10
941.2063            
20
5069.2670           
30
53.5513             
1
 941.206 5069.2670
INSERT
8
POINT
62
2
2
CROSS
10
941.2493            
20
5069.2459           
30
53.6881             
41
0.002
42
0.002
43
0.002
50
0.0
0
TEXT
8
CODE
62
3
7
STD
40
0.25
41
1.0
50
0.0
51
0.0
10
941.2493            
20
5069.2459           
30
53.6881             
1
 MF
0
TEXT
8
PT_ID
62
3
7
STD
40
0.25
41
1.0
50
0.0
51
0.0
10
941.2493            
20
5069.2459           
30
53.6881             
1
 82
0
TEXT
8
HEIGHT
62
3
7
STD
40
0.25
41
1.0
50
0.0
51
0.0
10
941.2493            
20
5069.2459           
30
53.6881             
1
 53.688
0
TEXT
8
CO_ORDS
62
3
7
STD
40
0.25
41
1.0
50
0.0
51
0.0
10
941.2493            
20
5069.2459           
30
53.6881             
1
 941.249 5069.2460
INSERT
8
POINT
62
2
2
CROSS
10
938.6792            
20
5066.7023           
30
53.5476             
41
0.002
42
0.002
43
0.002
50
0.0
0
TEXT
8
CODE
62
3
7
STD
40
0.25
41
1.0
50
0.0
51
0.0
10
938.6792            
20
5066.7023           
30
53.5476             
1
 MF
0
TEXT
8
PT_ID
62
3
7
STD
40
0.25
41
1.0
50
0.0
51
0.0
10
938.6792            
20
5066.7023           
30
53.5476             
1
 83
0
TEXT
8
HEIGHT
62
3
7
STD
40
0.25
41
1.0
50
0.0
51
0.0
10
938.6792            
20
5066.7023           
30
53.5476             
1
 53.548
0
TEXT
8
CO_ORDS
62
3
7
STD
40
0.25
41
1.0
50
0.0
51
0.0
10
938.6792            
20
5066.7023           
30
53.5476             
1
 938.679 5066.7020
INSERT
8
POINT
62
2
2
CROSS
10
938.7484            
20
5066.6589           
30
53.6642             
41
0.002
42
0.002
43
0.002
50
0.0
0
TEXT
8
CODE
62
3
7
STD
40
0.25
41
1.0
50
0.0
51
0.0
10
938.7484            
20
5066.6589           
30
53.6642             
1
 MF
0
TEXT
8
PT_ID
62
3
7
STD
40
0.25
41
1.0
50
0.0
51
0.0
10
938.7484            
20
5066.6589           
30
53.6642             
1
 84
0
TEXT
8
HEIGHT
62
3
7
STD
40
0.25
41
1.0
50
0.0
51
0.0
10
938.7484            
20
5066.6589           
30
53.6642             
1
 53.664
0
TEXT
8
CO_ORDS
62
3
7
STD
40
0.25
41
1.0
50
0.0
51
0.0
10
938.7484            
20
5066.6589           
30
53.6642             
1
 938.748 5066.6590
INSERT
8
POINT
62
2
2
CROSS
10
938.6519            
20
5062.9858           
30
53.4649             
41
0.002
42
0.002
43
0.002
50
0.0
0
TEXT
8
CODE
62
3
7
STD
40
0.25
41
1.0
50
0.0
51
0.0
10
938.6519            
20
5062.9858           
30
53.4649             
1
 MF
0
TEXT
8
PT_ID
62
3
7
STD
40
0.25
41
1.0
50
0.0
51
0.0
10
938.6519            
20
5062.9858           
30
53.4649             
1
 85
0
TEXT
8
HEIGHT
62
3
7
STD
40
0.25
41
1.0
50
0.0
51
0.0
10
938.6519            
20
5062.9858           
30
53.4649             
1
 53.465
0
TEXT
8
CO_ORDS
62
3
7
STD
40
0.25
41
1.0
50
0.0
51
0.0
10
938.6519            
20
5062.9858           
30
53.4649             
1
 938.652 5062.9860
INSERT
8
POINT
62
2
2
CROSS
10
938.6610            
20
5063.0008           
30
53.6180             
41
0.002
42
0.002
43
0.002
50
0.0
0
TEXT
8
CODE
62
3
7
STD
40
0.25
41
1.0
50
0.0
51
0.0
10
938.6610            
20
5063.0008           
30
53.6180             
1
 MF
0
TEXT
8
PT_ID
62
3
7
STD
40
0.25
41
1.0
50
0.0
51
0.0
10
938.6610            
20
5063.0008           
30
53.6180             
1
 86
0
TEXT
8
HEIGHT
62
3
7
STD
40
0.25
41
1.0
50
0.0
51
0.0
10
938.6610            
20
5063.0008           
30
53.6180             
1
 53.618
0
TEXT
8
CO_ORDS
62
3
7
STD
40
0.25
41
1.0
50
0.0
51
0.0
10
938.6610            
20
5063.0008           
30
53.6180             
1
 938.661 5063.0010
INSERT
8
POINT
62
2
2
CROSS
10
941.1304            
20
5060.0641           
30
53.3521             
41
0.002
42
0.002
43
0.002
50
0.0
0
TEXT
8
CODE
62
3
7
STD
40
0.25
41
1.0
50
0.0
51
0.0
10
941.1304            
20
5060.0641           
30
53.3521             
1
 MF
0
TEXT
8
PT_ID
62
3
7
STD
40
0.25
41
1.0
50
0.0
51
0.0
10
941.1304            
20
5060.0641           
30
53.3521             
1
 87
0
TEXT
8
HEIGHT
62
3
7
STD
40
0.25
41
1.0
50
0.0
51
0.0
10
941.1304            
20
5060.0641           
30
53.3521             
1
 53.352
0
TEXT
8
CO_ORDS
62
3
7
STD
40
0.25
41
1.0
50
0.0
51
0.0
10
941.1304            
20
5060.0641           
30
53.3521             
1
 941.130 5060.0640
INSERT
8
POINT
62
2
2
CROSS
10
941.2047            
20
5060.2624           
30
53.5218             
41
0.002
42
0.002
43
0.002
50
0.0
0
TEXT
8
CODE
62
3
7
STD
40
0.25
41
1.0
50
0.0
51
0.0
10
941.2047            
20
5060.2624           
30
53.5218             
1
 MF
0
TEXT
8
PT_ID
62
3
7
STD
40
0.25
41
1.0
50
0.0
51
0.0
10
941.2047            
20
5060.2624           
30
53.5218             
1
 88
0
TEXT
8
HEIGHT
62
3
7
STD
40
0.25
41
1.0
50
0.0
51
0.0
10
941.2047            
20
5060.2624           
30
53.5218             
1
 53.522
0
TEXT
8
CO_ORDS
62
3
7
STD
40
0.25
41
1.0
50
0.0
51
0.0
10
941.2047            
20
5060.2624           
30
53.5218             
1
 941.205 5060.2620
INSERT
8
POINT
62
2
2
CROSS
10
945.1611            
20
5059.9937           
30
53.3312             
41
0.002
42
0.002
43
0.002
50
0.0
0
TEXT
8
CODE
62
3
7
STD
40
0.25
41
1.0
50
0.0
51
0.0
10
945.1611            
20
5059.9937           
30
53.3312             
1
 MF
0
TEXT
8
PT_ID
62
3
7
STD
40
0.25
41
1.0
50
0.0
51
0.0
10
945.1611            
20
5059.9937           
30
53.3312             
1
 89
0
TEXT
8
HEIGHT
62
3
7
STD
40
0.25
41
1.0
50
0.0
51
0.0
10
945.1611            
20
5059.9937           
30
53.3312             
1
 53.331
0
TEXT
8
CO_ORDS
62
3
7
STD
40
0.25
41
1.0
50
0.0
51
0.0
10
945.1611            
20
5059.9937           
30
53.3312             
1
 945.161 5059.9940
INSERT
8
POINT
62
2
2
CROSS
10
945.1882            
20
5060.0632           
30
53.4503             
41
0.002
42
0.002
43
0.002
50
0.0
0
TEXT
8
CODE
62
3
7
STD
40
0.25
41
1.0
50
0.0
51
0.0
10
945.1882            
20
5060.0632           
30
53.4503             
1
 MF
0
TEXT
8
PT_ID
62
3
7
STD
40
0.25
41
1.0
50
0.0
51
0.0
10
945.1882            
20
5060.0632           
30
53.4503             
1
 90
0
TEXT
8
HEIGHT
62
3
7
STD
40
0.25
41
1.0
50
0.0
51
0.0
10
945.1882            
20
5060.0632           
30
53.4503             
1
 53.450
0
TEXT
8
CO_ORDS
62
3
7
STD
40
0.25
41
1.0
50
0.0
51
0.0
10
945.1882            
20
5060.0632           
30
53.4503             
1
 945.188 5060.0630
INSERT
8
POINT
62
2
2
CROSS
10
948.0560            
20
5062.7565           
30
53.3727             
41
0.002
42
0.002
43
0.002
50
0.0
0
TEXT
8
CODE
62
3
7
STD
40
0.25
41
1.0
50
0.0
51
0.0
10
948.0560            
20
5062.7565           
30
53.3727             
1
 MF
0
TEXT
8
PT_ID
62
3
7
STD
40
0.25
41
1.0
50
0.0
51
0.0
10
948.0560            
20
5062.7565           
30
53.3727             
1
 91
0
TEXT
8
HEIGHT
62
3
7
STD
40
0.25
41
1.0
50
0.0
51
0.0
10
948.0560            
20
5062.7565           
30
53.3727             
1
 53.373
0
TEXT
8
CO_ORDS
62
3
7
STD
40
0.25
41
1.0
50
0.0
51
0.0
10
948.0560            
20
5062.7565           
30
53.3727             
1
 948.056 5062.7560
INSERT
8
POINT
62
2
2
CROSS
10
948.0268            
20
5062.7855           
30
53.4918             
41
0.002
42
0.002
43
0.002
50
0.0
0
TEXT
8
CODE
62
3
7
STD
40
0.25
41
1.0
50
0.0
51
0.0
10
948.0268            
20
5062.7855           
30
53.4918             
1
 MF
0
TEXT
8
PT_ID
62
3
7
STD
40
0.25
41
1.0
50
0.0
51
0.0
10
948.0268            
20
5062.7855           
30
53.4918             
1
 92
0
TEXT
8
HEIGHT
62
3
7
STD
40
0.25
41
1.0
50
0.0
51
0.0
10
948.0268            
20
5062.7855           
30
53.4918             
1
 53.492
0
TEXT
8
CO_ORDS
62
3
7
STD
40
0.25
41
1.0
50
0.0
51
0.0
10
948.0268            
20
5062.7855           
30
53.4918             
1
 948.027 5062.7850
INSERT
8
POINT
62
2
2
CROSS
10
948.4562            
20
5065.7592           
30
53.4099             
41
0.002
42
0.002
43
0.002
50
0.0
0
TEXT
8
CODE
62
3
7
STD
40
0.25
41
1.0
50
0.0
51
0.0
10
948.4562            
20
5065.7592           
30
53.4099             
1
 MF
0
TEXT
8
PT_ID
62
3
7
STD
40
0.25
41
1.0
50
0.0
51
0.0
10
948.4562            
20
5065.7592           
30
53.4099             
1
 93
0
TEXT
8
HEIGHT
62
3
7
STD
40
0.25
41
1.0
50
0.0
51
0.0
10
948.4562            
20
5065.7592           
30
53.4099             
1
 53.410
0
TEXT
8
CO_ORDS
62
3
7
STD
40
0.25
41
1.0
50
0.0
51
0.0
10
948.4562            
20
5065.7592           
30
53.4099             
1
 948.456 5065.7590
INSERT
8
POINT
62
2
2
CROSS
10
948.3135            
20
5065.7505           
30
53.5191             
41
0.002
42
0.002
43
0.002
50
0.0
0
TEXT
8
CODE
62
3
7
STD
40
0.25
41
1.0
50
0.0
51
0.0
10
948.3135            
20
5065.7505           
30
53.5191             
1
 MF
0
TEXT
8
PT_ID
62
3
7
STD
40
0.25
41
1.0
50
0.0
51
0.0
10
948.3135            
20
5065.7505           
30
53.5191             
1
 94
0
TEXT
8
HEIGHT
62
3
7
STD
40
0.25
41
1.0
50
0.0
51
0.0
10
948.3135            
20
5065.7505           
30
53.5191             
1
 53.519
0
TEXT
8
CO_ORDS
62
3
7
STD
40
0.25
41
1.0
50
0.0
51
0.0
10
948.3135            
20
5065.7505           
30
53.5191             
1
 948.314 5065.7500
INSERT
8
POINT
62
2
2
CROSS
10
954.5107            
20
5056.0081           
30
53.1574             
41
0.002
42
0.002
43
0.002
50
0.0
0
TEXT
8
CODE
62
3
7
STD
40
0.25
41
1.0
50
0.0
51
0.0
10
954.5107            
20
5056.0081           
30
53.1574             
1
 MF
0
TEXT
8
PT_ID
62
3
7
STD
40
0.25
41
1.0
50
0.0
51
0.0
10
954.5107            
20
5056.0081           
30
53.1574             
1
 95
0
TEXT
8
HEIGHT
62
3
7
STD
40
0.25
41
1.0
50
0.0
51
0.0
10
954.5107            
20
5056.0081           
30
53.1574             
1
 53.157
0
TEXT
8
CO_ORDS
62
3
7
STD
40
0.25
41
1.0
50
0.0
51
0.0
10
954.5107            
20
5056.0081           
30
53.1574             
1
 954.511 5056.0080
INSERT
8
POINT
62
2
2
CROSS
10
954.4715            
20
5056.0047           
30
53.2260             
41
0.002
42
0.002
43
0.002
50
0.0
0
TEXT
8
CODE
62
3
7
STD
40
0.25
41
1.0
50
0.0
51
0.0
10
954.4715            
20
5056.0047           
30
53.2260             
1
 MF
0
TEXT
8
PT_ID
62
3
7
STD
40
0.25
41
1.0
50
0.0
51
0.0
10
954.4715            
20
5056.0047           
30
53.2260             
1
 96
0
TEXT
8
HEIGHT
62
3
7
STD
40
0.25
41
1.0
50
0.0
51
0.0
10
954.4715            
20
5056.0047           
30
53.2260             
1
 53.226
0
TEXT
8
CO_ORDS
62
3
7
STD
40
0.25
41
1.0
50
0.0
51
0.0
10
954.4715            
20
5056.0047           
30
53.2260             
1
 954.471 5056.0050
INSERT
8
POINT
62
2
2
CROSS
10
953.8808            
20
5056.3287           
30
53.1789             
41
0.002
42
0.002
43
0.002
50
0.0
0
TEXT
8
CODE
62
3
7
STD
40
0.25
41
1.0
50
0.0
51
0.0
10
953.8808            
20
5056.3287           
30
53.1789             
1
 MF
0
TEXT
8
PT_ID
62
3
7
STD
40
0.25
41
1.0
50
0.0
51
0.0
10
953.8808            
20
5056.3287           
30
53.1789             
1
 97
0
TEXT
8
HEIGHT
62
3
7
STD
40
0.25
41
1.0
50
0.0
51
0.0
10
953.8808            
20
5056.3287           
30
53.1789             
1
 53.179
0
TEXT
8
CO_ORDS
62
3
7
STD
40
0.25
41
1.0
50
0.0
51
0.0
10
953.8808            
20
5056.3287           
30
53.1789             
1
 953.881 5056.3290
INSERT
8
POINT
62
2
2
CROSS
10
953.8565            
20
5056.3027           
30
53.2563             
41
0.002
42
0.002
43
0.002
50
0.0
0
TEXT
8
CODE
62
3
7
STD
40
0.25
41
1.0
50
0.0
51
0.0
10
953.8565            
20
5056.3027           
30
53.2563             
1
 MF
0
TEXT
8
PT_ID
62
3
7
STD
40
0.25
41
1.0
50
0.0
51
0.0
10
953.8565            
20
5056.3027           
30
53.2563             
1
 98
0
TEXT
8
HEIGHT
62
3
7
STD
40
0.25
41
1.0
50
0.0
51
0.0
10
953.8565            
20
5056.3027           
30
53.2563             
1
 53.256
0
TEXT
8
CO_ORDS
62
3
7
STD
40
0.25
41
1.0
50
0.0
51
0.0
10
953.8565            
20
5056.3027           
30
53.2563             
1
 953.857 5056.3030
INSERT
8
POINT
62
2
2
CROSS
10
953.3108            
20
5056.1536           
30
53.1936             
41
0.002
42
0.002
43
0.002
50
0.0
0
TEXT
8
CODE
62
3
7
STD
40
0.25
41
1.0
50
0.0
51
0.0
10
953.3108            
20
5056.1536           
30
53.1936             
1
 MF
0
TEXT
8
PT_ID
62
3
7
STD
40
0.25
41
1.0
50
0.0
51
0.0
10
953.3108            
20
5056.1536           
30
53.1936             
1
 99
0
TEXT
8
HEIGHT
62
3
7
STD
40
0.25
41
1.0
50
0.0
51
0.0
10
953.3108            
20
5056.1536           
30
53.1936             
1
 53.194
0
TEXT
8
CO_ORDS
62
3
7
STD
40
0.25
41
1.0
50
0.0
51
0.0
10
953.3108            
20
5056.1536           
30
53.1936             
1
 953.311 5056.1540
INSERT
8
POINT
62
2
2
CROSS
10
953.2922            
20
5056.1146           
30
53.2788             
41
0.002
42
0.002
43
0.002
50
0.0
0
TEXT
8
CODE
62
3
7
STD
40
0.25
41
1.0
50
0.0
51
0.0
10
953.2922            
20
5056.1146           
30
53.2788             
1
 MF
0
TEXT
8
PT_ID
62
3
7
STD
40
0.25
41
1.0
50
0.0
51
0.0
10
953.2922            
20
5056.1146           
30
53.2788             
1
 100
0
TEXT
8
HEIGHT
62
3
7
STD
40
0.25
41
1.0
50
0.0
51
0.0
10
953.2922            
20
5056.1146           
30
53.2788             
1
 53.279
0
TEXT
8
CO_ORDS
62
3
7
STD
40
0.25
41
1.0
50
0.0
51
0.0
10
953.2922            
20
5056.1146           
30
53.2788             
1
 953.292 5056.1150
INSERT
8
POINT
62
2
2
CROSS
10
949.4138            
20
5053.3176           
30
53.1290             
41
0.002
42
0.002
43
0.002
50
0.0
0
TEXT
8
CODE
62
3
7
STD
40
0.25
41
1.0
50
0.0
51
0.0
10
949.4138            
20
5053.3176           
30
53.1290             
1
 MF
0
TEXT
8
PT_ID
62
3
7
STD
40
0.25
41
1.0
50
0.0
51
0.0
10
949.4138            
20
5053.3176           
30
53.1290             
1
 101
0
TEXT
8
HEIGHT
62
3
7
STD
40
0.25
41
1.0
50
0.0
51
0.0
10
949.4138            
20
5053.3176           
30
53.1290             
1
 53.129
0
TEXT
8
CO_ORDS
62
3
7
STD
40
0.25
41
1.0
50
0.0
51
0.0
10
949.4138            
20
5053.3176           
30
53.1290             
1
 949.414 5053.3180
INSERT
8
POINT
62
2
2
CROSS
10
949.4436            
20
5053.2986           
30
53.2760             
41
0.002
42
0.002
43
0.002
50
0.0
0
TEXT
8
CODE
62
3
7
STD
40
0.25
41
1.0
50
0.0
51
0.0
10
949.4436            
20
5053.2986           
30
53.2760             
1
 MF
0
TEXT
8
PT_ID
62
3
7
STD
40
0.25
41
1.0
50
0.0
51
0.0
10
949.4436            
20
5053.2986           
30
53.2760             
1
 102
0
TEXT
8
HEIGHT
62
3
7
STD
40
0.25
41
1.0
50
0.0
51
0.0
10
949.4436            
20
5053.2986           
30
53.2760             
1
 53.276
0
TEXT
8
CO_ORDS
62
3
7
STD
40
0.25
41
1.0
50
0.0
51
0.0
10
949.4436            
20
5053.2986           
30
53.2760             
1
 949.444 5053.2990
INSERT
8
POINT
62
2
2
CROSS
10
949.1167            
20
5052.8012           
30
53.1158             
41
0.002
42
0.002
43
0.002
50
0.0
0
TEXT
8
CODE
62
3
7
STD
40
0.25
41
1.0
50
0.0
51
0.0
10
949.1167            
20
5052.8012           
30
53.1158             
1
 MF
0
TEXT
8
PT_ID
62
3
7
STD
40
0.25
41
1.0
50
0.0
51
0.0
10
949.1167            
20
5052.8012           
30
53.1158             
1
 103
0
TEXT
8
HEIGHT
62
3
7
STD
40
0.25
41
1.0
50
0.0
51
0.0
10
949.1167            
20
5052.8012           
30
53.1158             
1
 53.116
0
TEXT
8
CO_ORDS
62
3
7
STD
40
0.25
41
1.0
50
0.0
51
0.0
10
949.1167            
20
5052.8012           
30
53.1158             
1
 949.117 5052.8010
INSERT
8
POINT
62
2
2
CROSS
10
949.1592            
20
5052.7984           
30
53.2461             
41
0.002
42
0.002
43
0.002
50
0.0
0
TEXT
8
CODE
62
3
7
STD
40
0.25
41
1.0
50
0.0
51
0.0
10
949.1592            
20
5052.7984           
30
53.2461             
1
 MF
0
TEXT
8
PT_ID
62
3
7
STD
40
0.25
41
1.0
50
0.0
51
0.0
10
949.1592            
20
5052.7984           
30
53.2461             
1
 104
0
TEXT
8
HEIGHT
62
3
7
STD
40
0.25
41
1.0
50
0.0
51
0.0
10
949.1592            
20
5052.7984           
30
53.2461             
1
 53.246
0
TEXT
8
CO_ORDS
62
3
7
STD
40
0.25
41
1.0
50
0.0
51
0.0
10
949.1592            
20
5052.7984           
30
53.2461             
1
 949.159 5052.7980
INSERT
8
POINT
62
2
2
CROSS
10
949.3568            
20
5052.2513           
30
53.1085             
41
0.002
42
0.002
43
0.002
50
0.0
0
TEXT
8
CODE
62
3
7
STD
40
0.25
41
1.0
50
0.0
51
0.0
10
949.3568            
20
5052.2513           
30
53.1085             
1
 MF
0
TEXT
8
PT_ID
62
3
7
STD
40
0.25
41
1.0
50
0.0
51
0.0
10
949.3568            
20
5052.2513           
30
53.1085             
1
 105
0
TEXT
8
HEIGHT
62
3
7
STD
40
0.25
41
1.0
50
0.0
51
0.0
10
949.3568            
20
5052.2513           
30
53.1085             
1
 53.109
0
TEXT
8
CO_ORDS
62
3
7
STD
40
0.25
41
1.0
50
0.0
51
0.0
10
949.3568            
20
5052.2513           
30
53.1085             
1
 949.357 5052.2510
INSERT
8
POINT
62
2
2
CROSS
10
949.3683            
20
5052.2717           
30
53.2427             
41
0.002
42
0.002
43
0.002
50
0.0
0
TEXT
8
CODE
62
3
7
STD
40
0.25
41
1.0
50
0.0
51
0.0
10
949.3683            
20
5052.2717           
30
53.2427             
1
 MF
0
TEXT
8
PT_ID
62
3
7
STD
40
0.25
41
1.0
50
0.0
51
0.0
10
949.3683            
20
5052.2717           
30
53.2427             
1
 106
0
TEXT
8
HEIGHT
62
3
7
STD
40
0.25
41
1.0
50
0.0
51
0.0
10
949.3683            
20
5052.2717           
30
53.2427             
1
 53.243
0
TEXT
8
CO_ORDS
62
3
7
STD
40
0.25
41
1.0
50
0.0
51
0.0
10
949.3683            
20
5052.2717           
30
53.2427             
1
 949.368 5052.2720
INSERT
8
POINT
62
2
2
CROSS
10
952.4698            
20
5049.2476           
30
52.9747             
41
0.002
42
0.002
43
0.002
50
0.0
0
TEXT
8
CODE
62
3
7
STD
40
0.25
41
1.0
50
0.0
51
0.0
10
952.4698            
20
5049.2476           
30
52.9747             
1
 MF
0
TEXT
8
PT_ID
62
3
7
STD
40
0.25
41
1.0
50
0.0
51
0.0
10
952.4698            
20
5049.2476           
30
52.9747             
1
 107
0
TEXT
8
HEIGHT
62
3
7
STD
40
0.25
41
1.0
50
0.0
51
0.0
10
952.4698            
20
5049.2476           
30
52.9747             
1
 52.975
0
TEXT
8
CO_ORDS
62
3
7
STD
40
0.25
41
1.0
50
0.0
51
0.0
10
952.4698            
20
5049.2476           
30
52.9747             
1
 952.470 5049.2480
INSERT
8
POINT
62
2
2
CROSS
10
952.4866            
20
5049.3474           
30
53.1663             
41
0.002
42
0.002
43
0.002
50
0.0
0
TEXT
8
CODE
62
3
7
STD
40
0.25
41
1.0
50
0.0
51
0.0
10
952.4866            
20
5049.3474           
30
53.1663             
1
 MF
0
TEXT
8
PT_ID
62
3
7
STD
40
0.25
41
1.0
50
0.0
51
0.0
10
952.4866            
20
5049.3474           
30
53.1663             
1
 108
0
TEXT
8
HEIGHT
62
3
7
STD
40
0.25
41
1.0
50
0.0
51
0.0
10
952.4866            
20
5049.3474           
30
53.1663             
1
 53.166
0
TEXT
8
CO_ORDS
62
3
7
STD
40
0.25
41
1.0
50
0.0
51
0.0
10
952.4866            
20
5049.3474           
30
53.1663             
1
 952.487 5049.3470
INSERT
8
POINT
62
2
2
CROSS
10
955.5387            
20
5046.5038           
30
52.8535             
41
0.002
42
0.002
43
0.002
50
0.0
0
TEXT
8
CODE
62
3
7
STD
40
0.25
41
1.0
50
0.0
51
0.0
10
955.5387            
20
5046.5038           
30
52.8535             
1
 MF
0
TEXT
8
PT_ID
62
3
7
STD
40
0.25
41
1.0
50
0.0
51
0.0
10
955.5387            
20
5046.5038           
30
52.8535             
1
 109
0
TEXT
8
HEIGHT
62
3
7
STD
40
0.25
41
1.0
50
0.0
51
0.0
10
955.5387            
20
5046.5038           
30
52.8535             
1
 52.854
0
TEXT
8
CO_ORDS
62
3
7
STD
40
0.25
41
1.0
50
0.0
51
0.0
10
955.5387            
20
5046.5038           
30
52.8535             
1
 955.539 5046.5040
INSERT
8
POINT
62
2
2
CROSS
10
955.5565            
20
5046.5356           
30
53.0055             
41
0.002
42
0.002
43
0.002
50
0.0
0
TEXT
8
CODE
62
3
7
STD
40
0.25
41
1.0
50
0.0
51
0.0
10
955.5565            
20
5046.5356           
30
53.0055             
1
 MF
0
TEXT
8
PT_ID
62
3
7
STD
40
0.25
41
1.0
50
0.0
51
0.0
10
955.5565            
20
5046.5356           
30
53.0055             
1
 110
0
TEXT
8
HEIGHT
62
3
7
STD
40
0.25
41
1.0
50
0.0
51
0.0
10
955.5565            
20
5046.5356           
30
53.0055             
1
 53.005
0
TEXT
8
CO_ORDS
62
3
7
STD
40
0.25
41
1.0
50
0.0
51
0.0
10
955.5565            
20
5046.5356           
30
53.0055             
1
 955.556 5046.5360
INSERT
8
POINT
62
2
2
CROSS
10
961.9448            
20
5040.6513           
30
52.7512             
41
0.002
42
0.002
43
0.002
50
0.0
0
TEXT
8
CODE
62
3
7
STD
40
0.25
41
1.0
50
0.0
51
0.0
10
961.9448            
20
5040.6513           
30
52.7512             
1
 MF
0
TEXT
8
PT_ID
62
3
7
STD
40
0.25
41
1.0
50
0.0
51
0.0
10
961.9448            
20
5040.6513           
30
52.7512             
1
 111
0
TEXT
8
HEIGHT
62
3
7
STD
40
0.25
41
1.0
50
0.0
51
0.0
10
961.9448            
20
5040.6513           
30
52.7512             
1
 52.751
0
TEXT
8
CO_ORDS
62
3
7
STD
40
0.25
41
1.0
50
0.0
51
0.0
10
961.9448            
20
5040.6513           
30
52.7512             
1
 961.945 5040.6510
INSERT
8
POINT
62
2
2
CROSS
10
961.7623            
20
5040.8152           
30
52.7610             
41
0.002
42
0.002
43
0.002
50
0.0
0
TEXT
8
CODE
62
3
7
STD
40
0.25
41
1.0
50
0.0
51
0.0
10
961.7623            
20
5040.8152           
30
52.7610             
1
 MF
0
TEXT
8
PT_ID
62
3
7
STD
40
0.25
41
1.0
50
0.0
51
0.0
10
961.7623            
20
5040.8152           
30
52.7610             
1
 112
0
TEXT
8
HEIGHT
62
3
7
STD
40
0.25
41
1.0
50
0.0
51
0.0
10
961.7623            
20
5040.8152           
30
52.7610             
1
 52.761
0
TEXT
8
CO_ORDS
62
3
7
STD
40
0.25
41
1.0
50
0.0
51
0.0
10
961.7623            
20
5040.8152           
30
52.7610             
1
 961.762 5040.8150
INSERT
8
POINT
62
2
2
CROSS
10
961.6680            
20
5040.6908           
30
52.6130             
41
0.002
42
0.002
43
0.002
50
0.0
0
TEXT
8
CODE
62
3
7
STD
40
0.25
41
1.0
50
0.0
51
0.0
10
961.6680            
20
5040.6908           
30
52.6130             
1
 MF
0
TEXT
8
PT_ID
62
3
7
STD
40
0.25
41
1.0
50
0.0
51
0.0
10
961.6680            
20
5040.6908           
30
52.6130             
1
 113
0
TEXT
8
HEIGHT
62
3
7
STD
40
0.25
41
1.0
50
0.0
51
0.0
10
961.6680            
20
5040.6908           
30
52.6130             
1
 52.613
0
TEXT
8
CO_ORDS
62
3
7
STD
40
0.25
41
1.0
50
0.0
51
0.0
10
961.6680            
20
5040.6908           
30
52.6130             
1
 961.668 5040.6910
INSERT
8
POINT
62
2
2
CROSS
10
968.8353            
20
5036.5838           
30
52.4121             
41
0.002
42
0.002
43
0.002
50
0.0
0
TEXT
8
CODE
62
3
7
STD
40
0.25
41
1.0
50
0.0
51
0.0
10
968.8353            
20
5036.5838           
30
52.4121             
1
 MF
0
TEXT
8
PT_ID
62
3
7
STD
40
0.25
41
1.0
50
0.0
51
0.0
10
968.8353            
20
5036.5838           
30
52.4121             
1
 114
0
TEXT
8
HEIGHT
62
3
7
STD
40
0.25
41
1.0
50
0.0
51
0.0
10
968.8353            
20
5036.5838           
30
52.4121             
1
 52.412
0
TEXT
8
CO_ORDS
62
3
7
STD
40
0.25
41
1.0
50
0.0
51
0.0
10
968.8353            
20
5036.5838           
30
52.4121             
1
 968.835 5036.5840
INSERT
8
POINT
62
2
2
CROSS
10
968.6419            
20
5036.7604           
30
52.5839             
41
0.002
42
0.002
43
0.002
50
0.0
0
TEXT
8
CODE
62
3
7
STD
40
0.25
41
1.0
50
0.0
51
0.0
10
968.6419            
20
5036.7604           
30
52.5839             
1
 MF
0
TEXT
8
PT_ID
62
3
7
STD
40
0.25
41
1.0
50
0.0
51
0.0
10
968.6419            
20
5036.7604           
30
52.5839             
1
 115
0
TEXT
8
HEIGHT
62
3
7
STD
40
0.25
41
1.0
50
0.0
51
0.0
10
968.6419            
20
5036.7604           
30
52.5839             
1
 52.584
0
TEXT
8
CO_ORDS
62
3
7
STD
40
0.25
41
1.0
50
0.0
51
0.0
10
968.6419            
20
5036.7604           
30
52.5839             
1
 968.642 5036.7600
INSERT
8
POINT
62
2
2
CROSS
10
968.8602            
20
5037.3356           
30
52.4291             
41
0.002
42
0.002
43
0.002
50
0.0
0
TEXT
8
CODE
62
3
7
STD
40
0.25
41
1.0
50
0.0
51
0.0
10
968.8602            
20
5037.3356           
30
52.4291             
1
 MF
0
TEXT
8
PT_ID
62
3
7
STD
40
0.25
41
1.0
50
0.0
51
0.0
10
968.8602            
20
5037.3356           
30
52.4291             
1
 116
0
TEXT
8
HEIGHT
62
3
7
STD
40
0.25
41
1.0
50
0.0
51
0.0
10
968.8602            
20
5037.3356           
30
52.4291             
1
 52.429
0
TEXT
8
CO_ORDS
62
3
7
STD
40
0.25
41
1.0
50
0.0
51
0.0
10
968.8602            
20
5037.3356           
30
52.4291             
1
 968.860 5037.3360
INSERT
8
POINT
62
2
2
CROSS
10
968.8186            
20
5037.3541           
30
52.5877             
41
0.002
42
0.002
43
0.002
50
0.0
0
TEXT
8
CODE
62
3
7
STD
40
0.25
41
1.0
50
0.0
51
0.0
10
968.8186            
20
5037.3541           
30
52.5877             
1
 MF
0
TEXT
8
PT_ID
62
3
7
STD
40
0.25
41
1.0
50
0.0
51
0.0
10
968.8186            
20
5037.3541           
30
52.5877             
1
 117
0
TEXT
8
HEIGHT
62
3
7
STD
40
0.25
41
1.0
50
0.0
51
0.0
10
968.8186            
20
5037.3541           
30
52.5877             
1
 52.588
0
TEXT
8
CO_ORDS
62
3
7
STD
40
0.25
41
1.0
50
0.0
51
0.0
10
968.8186            
20
5037.3541           
30
52.5877             
1
 968.819 5037.3540
INSERT
8
POINT
62
2
2
CROSS
10
966.3617            
20
5040.8423           
30
52.5661             
41
0.002
42
0.002
43
0.002
50
0.0
0
TEXT
8
CODE
62
3
7
STD
40
0.25
41
1.0
50
0.0
51
0.0
10
966.3617            
20
5040.8423           
30
52.5661             
1
 MF
0
TEXT
8
PT_ID
62
3
7
STD
40
0.25
41
1.0
50
0.0
51
0.0
10
966.3617            
20
5040.8423           
30
52.5661             
1
 118
0
TEXT
8
HEIGHT
62
3
7
STD
40
0.25
41
1.0
50
0.0
51
0.0
10
966.3617            
20
5040.8423           
30
52.5661             
1
 52.566
0
TEXT
8
CO_ORDS
62
3
7
STD
40
0.25
41
1.0
50
0.0
51
0.0
10
966.3617            
20
5040.8423           
30
52.5661             
1
 966.362 5040.8420
INSERT
8
POINT
62
2
2
CROSS
10
966.2885            
20
5040.8447           
30
52.7105             
41
0.002
42
0.002
43
0.002
50
0.0
0
TEXT
8
CODE
62
3
7
STD
40
0.25
41
1.0
50
0.0
51
0.0
10
966.2885            
20
5040.8447           
30
52.7105             
1
 MF
0
TEXT
8
PT_ID
62
3
7
STD
40
0.25
41
1.0
50
0.0
51
0.0
10
966.2885            
20
5040.8447           
30
52.7105             
1
 119
0
TEXT
8
HEIGHT
62
3
7
STD
40
0.25
41
1.0
50
0.0
51
0.0
10
966.2885            
20
5040.8447           
30
52.7105             
1
 52.711
0
TEXT
8
CO_ORDS
62
3
7
STD
40
0.25
41
1.0
50
0.0
51
0.0
10
966.2885            
20
5040.8447           
30
52.7105             
1
 966.288 5040.8450
INSERT
8
POINT
62
2
2
CROSS
10
963.7715            
20
5044.3428           
30
52.6764             
41
0.002
42
0.002
43
0.002
50
0.0
0
TEXT
8
CODE
62
3
7
STD
40
0.25
41
1.0
50
0.0
51
0.0
10
963.7715            
20
5044.3428           
30
52.6764             
1
 MF
0
TEXT
8
PT_ID
62
3
7
STD
40
0.25
41
1.0
50
0.0
51
0.0
10
963.7715            
20
5044.3428           
30
52.6764             
1
 120
0
TEXT
8
HEIGHT
62
3
7
STD
40
0.25
41
1.0
50
0.0
51
0.0
10
963.7715            
20
5044.3428           
30
52.6764             
1
 52.676
0
TEXT
8
CO_ORDS
62
3
7
STD
40
0.25
41
1.0
50
0.0
51
0.0
10
963.7715            
20
5044.3428           
30
52.6764             
1
 963.771 5044.3430
INSERT
8
POINT
62
2
2
CROSS
10
963.6163            
20
5044.3164           
30
52.8632             
41
0.002
42
0.002
43
0.002
50
0.0
0
TEXT
8
CODE
62
3
7
STD
40
0.25
41
1.0
50
0.0
51
0.0
10
963.6163            
20
5044.3164           
30
52.8632             
1
 MF
0
TEXT
8
PT_ID
62
3
7
STD
40
0.25
41
1.0
50
0.0
51
0.0
10
963.6163            
20
5044.3164           
30
52.8632             
1
 121
0
TEXT
8
HEIGHT
62
3
7
STD
40
0.25
41
1.0
50
0.0
51
0.0
10
963.6163            
20
5044.3164           
30
52.8632             
1
 52.863
0
TEXT
8
CO_ORDS
62
3
7
STD
40
0.25
41
1.0
50
0.0
51
0.0
10
963.6163            
20
5044.3164           
30
52.8632             
1
 963.616 5044.3160
INSERT
8
POINT
62
2
2
CROSS
10
961.1075            
20
5047.9454           
30
52.8309             
41
0.002
42
0.002
43
0.002
50
0.0
0
TEXT
8
CODE
62
3
7
STD
40
0.25
41
1.0
50
0.0
51
0.0
10
961.1075            
20
5047.9454           
30
52.8309             
1
 MF
0
TEXT
8
PT_ID
62
3
7
STD
40
0.25
41
1.0
50
0.0
51
0.0
10
961.1075            
20
5047.9454           
30
52.8309             
1
 122
0
TEXT
8
HEIGHT
62
3
7
STD
40
0.25
41
1.0
50
0.0
51
0.0
10
961.1075            
20
5047.9454           
30
52.8309             
1
 52.831
0
TEXT
8
CO_ORDS
62
3
7
STD
40
0.25
41
1.0
50
0.0
51
0.0
10
961.1075            
20
5047.9454           
30
52.8309             
1
 961.108 5047.9450
INSERT
8
POINT
62
2
2
CROSS
10
960.9248            
20
5047.8455           
30
53.0208             
41
0.002
42
0.002
43
0.002
50
0.0
0
TEXT
8
CODE
62
3
7
STD
40
0.25
41
1.0
50
0.0
51
0.0
10
960.9248            
20
5047.8455           
30
53.0208             
1
 MF
0
TEXT
8
PT_ID
62
3
7
STD
40
0.25
41
1.0
50
0.0
51
0.0
10
960.9248            
20
5047.8455           
30
53.0208             
1
 123
0
TEXT
8
HEIGHT
62
3
7
STD
40
0.25
41
1.0
50
0.0
51
0.0
10
960.9248            
20
5047.8455           
30
53.0208             
1
 53.021
0
TEXT
8
CO_ORDS
62
3
7
STD
40
0.25
41
1.0
50
0.0
51
0.0
10
960.9248            
20
5047.8455           
30
53.0208             
1
 960.925 5047.8460
INSERT
8
POINT
62
2
2
CROSS
10
958.3411            
20
5051.1977           
30
52.9739             
41
0.002
42
0.002
43
0.002
50
0.0
0
TEXT
8
CODE
62
3
7
STD
40
0.25
41
1.0
50
0.0
51
0.0
10
958.3411            
20
5051.1977           
30
52.9739             
1
 MF
0
TEXT
8
PT_ID
62
3
7
STD
40
0.25
41
1.0
50
0.0
51
0.0
10
958.3411            
20
5051.1977           
30
52.9739             
1
 124
0
TEXT
8
HEIGHT
62
3
7
STD
40
0.25
41
1.0
50
0.0
51
0.0
10
958.3411            
20
5051.1977           
30
52.9739             
1
 52.974
0
TEXT
8
CO_ORDS
62
3
7
STD
40
0.25
41
1.0
50
0.0
51
0.0
10
958.3411            
20
5051.1977           
30
52.9739             
1
 958.341 5051.1980
INSERT
8
POINT
62
2
2
CROSS
10
958.2655            
20
5051.2071           
30
53.1408             
41
0.002
42
0.002
43
0.002
50
0.0
0
TEXT
8
CODE
62
3
7
STD
40
0.25
41
1.0
50
0.0
51
0.0
10
958.2655            
20
5051.2071           
30
53.1408             
1
 MF
0
TEXT
8
PT_ID
62
3
7
STD
40
0.25
41
1.0
50
0.0
51
0.0
10
958.2655            
20
5051.2071           
30
53.1408             
1
 125
0
TEXT
8
HEIGHT
62
3
7
STD
40
0.25
41
1.0
50
0.0
51
0.0
10
958.2655            
20
5051.2071           
30
53.1408             
1
 53.141
0
TEXT
8
CO_ORDS
62
3
7
STD
40
0.25
41
1.0
50
0.0
51
0.0
10
958.2655            
20
5051.2071           
30
53.1408             
1
 958.265 5051.2070
INSERT
8
POINT
62
2
2
CROSS
10
955.6170            
20
5054.9519           
30
53.1037             
41
0.002
42
0.002
43
0.002
50
0.0
0
TEXT
8
CODE
62
3
7
STD
40
0.25
41
1.0
50
0.0
51
0.0
10
955.6170            
20
5054.9519           
30
53.1037             
1
 MF
0
TEXT
8
PT_ID
62
3
7
STD
40
0.25
41
1.0
50
0.0
51
0.0
10
955.6170            
20
5054.9519           
30
53.1037             
1
 126
0
TEXT
8
HEIGHT
62
3
7
STD
40
0.25
41
1.0
50
0.0
51
0.0
10
955.6170            
20
5054.9519           
30
53.1037             
1
 53.104
0
TEXT
8
CO_ORDS
62
3
7
STD
40
0.25
41
1.0
50
0.0
51
0.0
10
955.6170            
20
5054.9519           
30
53.1037             
1
 955.617 5054.9520
INSERT
8
POINT
62
2
2
CROSS
10
955.4855            
20
5054.8164           
30
53.2334             
41
0.002
42
0.002
43
0.002
50
0.0
0
TEXT
8
CODE
62
3
7
STD
40
0.25
41
1.0
50
0.0
51
0.0
10
955.4855            
20
5054.8164           
30
53.2334             
1
 MF
0
TEXT
8
PT_ID
62
3
7
STD
40
0.25
41
1.0
50
0.0
51
0.0
10
955.4855            
20
5054.8164           
30
53.2334             
1
 127
0
TEXT
8
HEIGHT
62
3
7
STD
40
0.25
41
1.0
50
0.0
51
0.0
10
955.4855            
20
5054.8164           
30
53.2334             
1
 53.233
0
TEXT
8
CO_ORDS
62
3
7
STD
40
0.25
41
1.0
50
0.0
51
0.0
10
955.4855            
20
5054.8164           
30
53.2334             
1
 955.486 5054.8160
INSERT
8
POINT
62
2
2
CROSS
10
932.5428            
20
5075.4103           
30
54.0576             
41
0.002
42
0.002
43
0.002
50
0.0
0
TEXT
8
CODE
62
3
7
STD
40
0.25
41
1.0
50
0.0
51
0.0
10
932.5428            
20
5075.4103           
30
54.0576             
1
 POSTE
0
TEXT
8
PT_ID
62
3
7
STD
40
0.25
41
1.0
50
0.0
51
0.0
10
932.5428            
20
5075.4103           
30
54.0576             
1
 128
0
TEXT
8
HEIGHT
62
3
7
STD
40
0.25
41
1.0
50
0.0
51
0.0
10
932.5428            
20
5075.4103           
30
54.0576             
1
 54.058
0
TEXT
8
CO_ORDS
62
3
7
STD
40
0.25
41
1.0
50
0.0
51
0.0
10
932.5428            
20
5075.4103           
30
54.0576             
1
 932.543 5075.4100
INSERT
8
POINT
62
2
2
CROSS
10
927.9163            
20
5093.0829           
30
54.0958             
41
0.002
42
0.002
43
0.002
50
0.0
0
TEXT
8
CODE
62
3
7
STD
40
0.25
41
1.0
50
0.0
51
0.0
10
927.9163            
20
5093.0829           
30
54.0958             
1
 SARJETA
0
TEXT
8
PT_ID
62
3
7
STD
40
0.25
41
1.0
50
0.0
51
0.0
10
927.9163            
20
5093.0829           
30
54.0958             
1
 129
0
TEXT
8
HEIGHT
62
3
7
STD
40
0.25
41
1.0
50
0.0
51
0.0
10
927.9163            
20
5093.0829           
30
54.0958             
1
 54.096
0
TEXT
8
CO_ORDS
62
3
7
STD
40
0.25
41
1.0
50
0.0
51
0.0
10
927.9163            
20
5093.0829           
30
54.0958             
1
 927.916 5093.0830
INSERT
8
POINT
62
2
2
CROSS
10
929.7297            
20
5089.1027           
30
54.0173             
41
0.002
42
0.002
43
0.002
50
0.0
0
TEXT
8
CODE
62
3
7
STD
40
0.25
41
1.0
50
0.0
51
0.0
10
929.7297            
20
5089.1027           
30
54.0173             
1
 SARJETA
0
TEXT
8
PT_ID
62
3
7
STD
40
0.25
41
1.0
50
0.0
51
0.0
10
929.7297            
20
5089.1027           
30
54.0173             
1
 130
0
TEXT
8
HEIGHT
62
3
7
STD
40
0.25
41
1.0
50
0.0
51
0.0
10
929.7297            
20
5089.1027           
30
54.0173             
1
 54.017
0
TEXT
8
CO_ORDS
62
3
7
STD
40
0.25
41
1.0
50
0.0
51
0.0
10
929.7297            
20
5089.1027           
30
54.0173             
1
 929.730 5089.1030
INSERT
8
POINT
62
2
2
CROSS
10
932.9812            
20
5086.1372           
30
53.9620             
41
0.002
42
0.002
43
0.002
50
0.0
0
TEXT
8
CODE
62
3
7
STD
40
0.25
41
1.0
50
0.0
51
0.0
10
932.9812            
20
5086.1372           
30
53.9620             
1
 SARJETA
0
TEXT
8
PT_ID
62
3
7
STD
40
0.25
41
1.0
50
0.0
51
0.0
10
932.9812            
20
5086.1372           
30
53.9620             
1
 131
0
TEXT
8
HEIGHT
62
3
7
STD
40
0.25
41
1.0
50
0.0
51
0.0
10
932.9812            
20
5086.1372           
30
53.9620             
1
 53.962
0
TEXT
8
CO_ORDS
62
3
7
STD
40
0.25
41
1.0
50
0.0
51
0.0
10
932.9812            
20
5086.1372           
30
53.9620             
1
 932.981 5086.1370
INSERT
8
POINT
62
2
2
CROSS
10
937.2711            
20
5084.2672           
30
53.9081             
41
0.002
42
0.002
43
0.002
50
0.0
0
TEXT
8
CODE
62
3
7
STD
40
0.25
41
1.0
50
0.0
51
0.0
10
937.2711            
20
5084.2672           
30
53.9081             
1
 SARJETA
0
TEXT
8
PT_ID
62
3
7
STD
40
0.25
41
1.0
50
0.0
51
0.0
10
937.2711            
20
5084.2672           
30
53.9081             
1
 132
0
TEXT
8
HEIGHT
62
3
7
STD
40
0.25
41
1.0
50
0.0
51
0.0
10
937.2711            
20
5084.2672           
30
53.9081             
1
 53.908
0
TEXT
8
CO_ORDS
62
3
7
STD
40
0.25
41
1.0
50
0.0
51
0.0
10
937.2711            
20
5084.2672           
30
53.9081             
1
 937.271 5084.2670
INSERT
8
POINT
62
2
2
CROSS
10
941.3938            
20
5083.1731           
30
53.8502             
41
0.002
42
0.002
43
0.002
50
0.0
0
TEXT
8
CODE
62
3
7
STD
40
0.25
41
1.0
50
0.0
51
0.0
10
941.3938            
20
5083.1731           
30
53.8502             
1
 SARJETA
0
TEXT
8
PT_ID
62
3
7
STD
40
0.25
41
1.0
50
0.0
51
0.0
10
941.3938            
20
5083.1731           
30
53.8502             
1
 133
0
TEXT
8
HEIGHT
62
3
7
STD
40
0.25
41
1.0
50
0.0
51
0.0
10
941.3938            
20
5083.1731           
30
53.8502             
1
 53.850
0
TEXT
8
CO_ORDS
62
3
7
STD
40
0.25
41
1.0
50
0.0
51
0.0
10
941.3938            
20
5083.1731           
30
53.8502             
1
 941.394 5083.1730
INSERT
8
POINT
62
2
2
CROSS
10
945.7136            
20
5082.1663           
30
53.8047             
41
0.002
42
0.002
43
0.002
50
0.0
0
TEXT
8
CODE
62
3
7
STD
40
0.25
41
1.0
50
0.0
51
0.0
10
945.7136            
20
5082.1663           
30
53.8047             
1
 SARJETA
0
TEXT
8
PT_ID
62
3
7
STD
40
0.25
41
1.0
50
0.0
51
0.0
10
945.7136            
20
5082.1663           
30
53.8047             
1
 134
0
TEXT
8
HEIGHT
62
3
7
STD
40
0.25
41
1.0
50
0.0
51
0.0
10
945.7136            
20
5082.1663           
30
53.8047             
1
 53.805
0
TEXT
8
CO_ORDS
62
3
7
STD
40
0.25
41
1.0
50
0.0
51
0.0
10
945.7136            
20
5082.1663           
30
53.8047             
1
 945.714 5082.1660
INSERT
8
POINT
62
2
2
CROSS
10
950.5495            
20
5081.4978           
30
53.7422             
41
0.002
42
0.002
43
0.002
50
0.0
0
TEXT
8
CODE
62
3
7
STD
40
0.25
41
1.0
50
0.0
51
0.0
10
950.5495            
20
5081.4978           
30
53.7422             
1
 SARJETA
0
TEXT
8
PT_ID
62
3
7
STD
40
0.25
41
1.0
50
0.0
51
0.0
10
950.5495            
20
5081.4978           
30
53.7422             
1
 135
0
TEXT
8
HEIGHT
62
3
7
STD
40
0.25
41
1.0
50
0.0
51
0.0
10
950.5495            
20
5081.4978           
30
53.7422             
1
 53.742
0
TEXT
8
CO_ORDS
62
3
7
STD
40
0.25
41
1.0
50
0.0
51
0.0
10
950.5495            
20
5081.4978           
30
53.7422             
1
 950.549 5081.4980
INSERT
8
POINT
62
2
2
CROSS
10
956.0087            
20
5080.7824           
30
53.7255             
41
0.002
42
0.002
43
0.002
50
0.0
0
TEXT
8
CODE
62
3
7
STD
40
0.25
41
1.0
50
0.0
51
0.0
10
956.0087            
20
5080.7824           
30
53.7255             
1
 SARJETA
0
TEXT
8
PT_ID
62
3
7
STD
40
0.25
41
1.0
50
0.0
51
0.0
10
956.0087            
20
5080.7824           
30
53.7255             
1
 136
0
TEXT
8
HEIGHT
62
3
7
STD
40
0.25
41
1.0
50
0.0
51
0.0
10
956.0087            
20
5080.7824           
30
53.7255             
1
 53.726
0
TEXT
8
CO_ORDS
62
3
7
STD
40
0.25
41
1.0
50
0.0
51
0.0
10
956.0087            
20
5080.7824           
30
53.7255             
1
 956.009 5080.7820
INSERT
8
POINT
62
2
2
CROSS
10
925.8419            
20
5062.4881           
30
53.4790             
41
0.002
42
0.002
43
0.002
50
0.0
0
TEXT
8
CODE
62
3
7
STD
40
0.25
41
1.0
50
0.0
51
0.0
10
925.8419            
20
5062.4881           
30
53.4790             
1
 AUX
0
TEXT
8
PT_ID
62
3
7
STD
40
0.25
41
1.0
50
0.0
51
0.0
10
925.8419            
20
5062.4881           
30
53.4790             
1
 137
0
TEXT
8
HEIGHT
62
3
7
STD
40
0.25
41
1.0
50
0.0
51
0.0
10
925.8419            
20
5062.4881           
30
53.4790             
1
 53.479
0
TEXT
8
CO_ORDS
62
3
7
STD
40
0.25
41
1.0
50
0.0
51
0.0
10
925.8419            
20
5062.4881           
30
53.4790             
1
 925.842 5062.4880
INSERT
8
POINT
62
2
2
CROSS
10
968.2385            
20
5036.1789           
30
52.4084             
41
0.002
42
0.002
43
0.002
50
0.0
0
TEXT
8
CODE
62
3
7
STD
40
0.25
41
1.0
50
0.0
51
0.0
10
968.2385            
20
5036.1789           
30
52.4084             
1
 MF
0
TEXT
8
PT_ID
62
3
7
STD
40
0.25
41
1.0
50
0.0
51
0.0
10
968.2385            
20
5036.1789           
30
52.4084             
1
 138
0
TEXT
8
HEIGHT
62
3
7
STD
40
0.25
41
1.0
50
0.0
51
0.0
10
968.2385            
20
5036.1789           
30
52.4084             
1
 52.408
0
TEXT
8
CO_ORDS
62
3
7
STD
40
0.25
41
1.0
50
0.0
51
0.0
10
968.2385            
20
5036.1789           
30
52.4084             
1
 968.238 5036.1790
INSERT
8
POINT
62
2
2
CROSS
10
968.0663            
20
5036.2482           
30
52.5828             
41
0.002
42
0.002
43
0.002
50
0.0
0
TEXT
8
CODE
62
3
7
STD
40
0.25
41
1.0
50
0.0
51
0.0
10
968.0663            
20
5036.2482           
30
52.5828             
1
 MF
0
TEXT
8
PT_ID
62
3
7
STD
40
0.25
41
1.0
50
0.0
51
0.0
10
968.0663            
20
5036.2482           
30
52.5828             
1
 139
0
TEXT
8
HEIGHT
62
3
7
STD
40
0.25
41
1.0
50
0.0
51
0.0
10
968.0663            
20
5036.2482           
30
52.5828             
1
 52.583
0
TEXT
8
CO_ORDS
62
3
7
STD
40
0.25
41
1.0
50
0.0
51
0.0
10
968.0663            
20
5036.2482           
30
52.5828             
1
 968.066 5036.2480
INSERT
8
POINT
62
2
2
CROSS
10
967.2510            
20
5035.9861           
30
52.4136             
41
0.002
42
0.002
43
0.002
50
0.0
0
TEXT
8
CODE
62
3
7
STD
40
0.25
41
1.0
50
0.0
51
0.0
10
967.2510            
20
5035.9861           
30
52.4136             
1
 MF
0
TEXT
8
PT_ID
62
3
7
STD
40
0.25
41
1.0
50
0.0
51
0.0
10
967.2510            
20
5035.9861           
30
52.4136             
1
 140
0
TEXT
8
HEIGHT
62
3
7
STD
40
0.25
41
1.0
50
0.0
51
0.0
10
967.2510            
20
5035.9861           
30
52.4136             
1
 52.414
0
TEXT
8
CO_ORDS
62
3
7
STD
40
0.25
41
1.0
50
0.0
51
0.0
10
967.2510            
20
5035.9861           
30
52.4136             
1
 967.251 5035.9860
INSERT
8
POINT
62
2
2
CROSS
10
967.2562            
20
5036.0577           
30
52.5736             
41
0.002
42
0.002
43
0.002
50
0.0
0
TEXT
8
CODE
62
3
7
STD
40
0.25
41
1.0
50
0.0
51
0.0
10
967.2562            
20
5036.0577           
30
52.5736             
1
 MF
0
TEXT
8
PT_ID
62
3
7
STD
40
0.25
41
1.0
50
0.0
51
0.0
10
967.2562            
20
5036.0577           
30
52.5736             
1
 141
0
TEXT
8
HEIGHT
62
3
7
STD
40
0.25
41
1.0
50
0.0
51
0.0
10
967.2562            
20
5036.0577           
30
52.5736             
1
 52.574
0
TEXT
8
CO_ORDS
62
3
7
STD
40
0.25
41
1.0
50
0.0
51
0.0
10
967.2562            
20
5036.0577           
30
52.5736             
1
 967.256 5036.0580
INSERT
8
POINT
62
2
2
CROSS
10
965.1108            
20
5037.5488           
30
52.5019             
41
0.002
42
0.002
43
0.002
50
0.0
0
TEXT
8
CODE
62
3
7
STD
40
0.25
41
1.0
50
0.0
51
0.0
10
965.1108            
20
5037.5488           
30
52.5019             
1
 MF
0
TEXT
8
PT_ID
62
3
7
STD
40
0.25
41
1.0
50
0.0
51
0.0
10
965.1108            
20
5037.5488           
30
52.5019             
1
 142
0
TEXT
8
HEIGHT
62
3
7
STD
40
0.25
41
1.0
50
0.0
51
0.0
10
965.1108            
20
5037.5488           
30
52.5019             
1
 52.502
0
TEXT
8
CO_ORDS
62
3
7
STD
40
0.25
41
1.0
50
0.0
51
0.0
10
965.1108            
20
5037.5488           
30
52.5019             
1
 965.111 5037.5490
INSERT
8
POINT
62
2
2
CROSS
10
965.1798            
20
5037.6880           
30
52.6467             
41
0.002
42
0.002
43
0.002
50
0.0
0
TEXT
8
CODE
62
3
7
STD
40
0.25
41
1.0
50
0.0
51
0.0
10
965.1798            
20
5037.6880           
30
52.6467             
1
 MF
0
TEXT
8
PT_ID
62
3
7
STD
40
0.25
41
1.0
50
0.0
51
0.0
10
965.1798            
20
5037.6880           
30
52.6467             
1
 143
0
TEXT
8
HEIGHT
62
3
7
STD
40
0.25
41
1.0
50
0.0
51
0.0
10
965.1798            
20
5037.6880           
30
52.6467             
1
 52.647
0
TEXT
8
CO_ORDS
62
3
7
STD
40
0.25
41
1.0
50
0.0
51
0.0
10
965.1798            
20
5037.6880           
30
52.6467             
1
 965.180 5037.6880
INSERT
8
POINT
62
2
2
CROSS
10
958.7084            
20
5043.5063           
30
52.7024             
41
0.002
42
0.002
43
0.002
50
0.0
0
TEXT
8
CODE
62
3
7
STD
40
0.25
41
1.0
50
0.0
51
0.0
10
958.7084            
20
5043.5063           
30
52.7024             
1
 MF
0
TEXT
8
PT_ID
62
3
7
STD
40
0.25
41
1.0
50
0.0
51
0.0
10
958.7084            
20
5043.5063           
30
52.7024             
1
 144
0
TEXT
8
HEIGHT
62
3
7
STD
40
0.25
41
1.0
50
0.0
51
0.0
10
958.7084            
20
5043.5063           
30
52.7024             
1
 52.702
0
TEXT
8
CO_ORDS
62
3
7
STD
40
0.25
41
1.0
50
0.0
51
0.0
10
958.7084            
20
5043.5063           
30
52.7024             
1
 958.708 5043.5060
INSERT
8
POINT
62
2
2
CROSS
10
958.7058            
20
5043.6188           
30
52.8871             
41
0.002
42
0.002
43
0.002
50
0.0
0
TEXT
8
CODE
62
3
7
STD
40
0.25
41
1.0
50
0.0
51
0.0
10
958.7058            
20
5043.6188           
30
52.8871             
1
 MF
0
TEXT
8
PT_ID
62
3
7
STD
40
0.25
41
1.0
50
0.0
51
0.0
10
958.7058            
20
5043.6188           
30
52.8871             
1
 145
0
TEXT
8
HEIGHT
62
3
7
STD
40
0.25
41
1.0
50
0.0
51
0.0
10
958.7058            
20
5043.6188           
30
52.8871             
1
 52.887
0
TEXT
8
CO_ORDS
62
3
7
STD
40
0.25
41
1.0
50
0.0
51
0.0
10
958.7058            
20
5043.6188           
30
52.8871             
1
 958.706 5043.6190
INSERT
8
POINT
62
2
2
CROSS
10
926.4280            
20
5107.4067           
30
54.2786             
41
0.002
42
0.002
43
0.002
50
0.0
0
TEXT
8
CODE
62
3
7
STD
40
0.25
41
1.0
50
0.0
51
0.0
10
926.4280            
20
5107.4067           
30
54.2786             
1
 MF
0
TEXT
8
PT_ID
62
3
7
STD
40
0.25
41
1.0
50
0.0
51
0.0
10
926.4280            
20
5107.4067           
30
54.2786             
1
 146
0
TEXT
8
HEIGHT
62
3
7
STD
40
0.25
41
1.0
50
0.0
51
0.0
10
926.4280            
20
5107.4067           
30
54.2786             
1
 54.279
0
TEXT
8
CO_ORDS
62
3
7
STD
40
0.25
41
1.0
50
0.0
51
0.0
10
926.4280            
20
5107.4067           
30
54.2786             
1
 926.428 5107.4070
INSERT
8
POINT
62
2
2
CROSS
10
926.4557            
20
5107.3967           
30
54.4214             
41
0.002
42
0.002
43
0.002
50
0.0
0
TEXT
8
CODE
62
3
7
STD
40
0.25
41
1.0
50
0.0
51
0.0
10
926.4557            
20
5107.3967           
30
54.4214             
1
 MF
0
TEXT
8
PT_ID
62
3
7
STD
40
0.25
41
1.0
50
0.0
51
0.0
10
926.4557            
20
5107.3967           
30
54.4214             
1
 147
0
TEXT
8
HEIGHT
62
3
7
STD
40
0.25
41
1.0
50
0.0
51
0.0
10
926.4557            
20
5107.3967           
30
54.4214             
1
 54.421
0
TEXT
8
CO_ORDS
62
3
7
STD
40
0.25
41
1.0
50
0.0
51
0.0
10
926.4557            
20
5107.3967           
30
54.4214             
1
 926.456 5107.3970
INSERT
8
POINT
62
2
2
CROSS
10
926.9100            
20
5102.9808           
30
54.2625             
41
0.002
42
0.002
43
0.002
50
0.0
0
TEXT
8
CODE
62
3
7
STD
40
0.25
41
1.0
50
0.0
51
0.0
10
926.9100            
20
5102.9808           
30
54.2625             
1
 MF
0
TEXT
8
PT_ID
62
3
7
STD
40
0.25
41
1.0
50
0.0
51
0.0
10
926.9100            
20
5102.9808           
30
54.2625             
1
 148
0
TEXT
8
HEIGHT
62
3
7
STD
40
0.25
41
1.0
50
0.0
51
0.0
10
926.9100            
20
5102.9808           
30
54.2625             
1
 54.263
0
TEXT
8
CO_ORDS
62
3
7
STD
40
0.25
41
1.0
50
0.0
51
0.0
10
926.9100            
20
5102.9808           
30
54.2625             
1
 926.910 5102.9810
INSERT
8
POINT
62
2
2
CROSS
10
926.9468            
20
5102.9444           
30
54.3493             
41
0.002
42
0.002
43
0.002
50
0.0
0
TEXT
8
CODE
62
3
7
STD
40
0.25
41
1.0
50
0.0
51
0.0
10
926.9468            
20
5102.9444           
30
54.3493             
1
 MF
0
TEXT
8
PT_ID
62
3
7
STD
40
0.25
41
1.0
50
0.0
51
0.0
10
926.9468            
20
5102.9444           
30
54.3493             
1
 149
0
TEXT
8
HEIGHT
62
3
7
STD
40
0.25
41
1.0
50
0.0
51
0.0
10
926.9468            
20
5102.9444           
30
54.3493             
1
 54.349
0
TEXT
8
CO_ORDS
62
3
7
STD
40
0.25
41
1.0
50
0.0
51
0.0
10
926.9468            
20
5102.9444           
30
54.3493             
1
 926.947 5102.9440
INSERT
8
POINT
62
2
2
CROSS
10
927.3464            
20
5098.6239           
30
54.1622             
41
0.002
42
0.002
43
0.002
50
0.0
0
TEXT
8
CODE
62
3
7
STD
40
0.25
41
1.0
50
0.0
51
0.0
10
927.3464            
20
5098.6239           
30
54.1622             
1
 MF
0
TEXT
8
PT_ID
62
3
7
STD
40
0.25
41
1.0
50
0.0
51
0.0
10
927.3464            
20
5098.6239           
30
54.1622             
1
 150
0
TEXT
8
HEIGHT
62
3
7
STD
40
0.25
41
1.0
50
0.0
51
0.0
10
927.3464            
20
5098.6239           
30
54.1622             
1
 54.162
0
TEXT
8
CO_ORDS
62
3
7
STD
40
0.25
41
1.0
50
0.0
51
0.0
10
927.3464            
20
5098.6239           
30
54.1622             
1
 927.346 5098.6240
INSERT
8
POINT
62
2
2
CROSS
10
927.3938            
20
5098.6039           
30
54.3142             
41
0.002
42
0.002
43
0.002
50
0.0
0
TEXT
8
CODE
62
3
7
STD
40
0.25
41
1.0
50
0.0
51
0.0
10
927.3938            
20
5098.6039           
30
54.3142             
1
 MF
0
TEXT
8
PT_ID
62
3
7
STD
40
0.25
41
1.0
50
0.0
51
0.0
10
927.3938            
20
5098.6039           
30
54.3142             
1
 151
0
TEXT
8
HEIGHT
62
3
7
STD
40
0.25
41
1.0
50
0.0
51
0.0
10
927.3938            
20
5098.6039           
30
54.3142             
1
 54.314
0
TEXT
8
CO_ORDS
62
3
7
STD
40
0.25
41
1.0
50
0.0
51
0.0
10
927.3938            
20
5098.6039           
30
54.3142             
1
 927.394 5098.6040
INSERT
8
POINT
62
2
2
CROSS
10
916.3365            
20
5106.2035           
30
54.2535             
41
0.002
42
0.002
43
0.002
50
0.0
0
TEXT
8
CODE
62
3
7
STD
40
0.25
41
1.0
50
0.0
51
0.0
10
916.3365            
20
5106.2035           
30
54.2535             
1
 CALCADA
0
TEXT
8
PT_ID
62
3
7
STD
40
0.25
41
1.0
50
0.0
51
0.0
10
916.3365            
20
5106.2035           
30
54.2535             
1
 152
0
TEXT
8
HEIGHT
62
3
7
STD
40
0.25
41
1.0
50
0.0
51
0.0
10
916.3365            
20
5106.2035           
30
54.2535             
1
 54.253
0
TEXT
8
CO_ORDS
62
3
7
STD
40
0.25
41
1.0
50
0.0
51
0.0
10
916.3365            
20
5106.2035           
30
54.2535             
1
 916.336 5106.2040
INSERT
8
POINT
62
2
2
CROSS
10
916.3226            
20
5106.1904           
30
54.3381             
41
0.002
42
0.002
43
0.002
50
0.0
0
TEXT
8
CODE
62
3
7
STD
40
0.25
41
1.0
50
0.0
51
0.0
10
916.3226            
20
5106.1904           
30
54.3381             
1
 CALCADA
0
TEXT
8
PT_ID
62
3
7
STD
40
0.25
41
1.0
50
0.0
51
0.0
10
916.3226            
20
5106.1904           
30
54.3381             
1
 153
0
TEXT
8
HEIGHT
62
3
7
STD
40
0.25
41
1.0
50
0.0
51
0.0
10
916.3226            
20
5106.1904           
30
54.3381             
1
 54.338
0
TEXT
8
CO_ORDS
62
3
7
STD
40
0.25
41
1.0
50
0.0
51
0.0
10
916.3226            
20
5106.1904           
30
54.3381             
1
 916.323 5106.1900
INSERT
8
POINT
62
2
2
CROSS
10
914.2489            
20
5106.0193           
30
54.3617             
41
0.002
42
0.002
43
0.002
50
0.0
0
TEXT
8
CODE
62
3
7
STD
40
0.25
41
1.0
50
0.0
51
0.0
10
914.2489            
20
5106.0193           
30
54.3617             
1
 CALCADA
0
TEXT
8
PT_ID
62
3
7
STD
40
0.25
41
1.0
50
0.0
51
0.0
10
914.2489            
20
5106.0193           
30
54.3617             
1
 154
0
TEXT
8
HEIGHT
62
3
7
STD
40
0.25
41
1.0
50
0.0
51
0.0
10
914.2489            
20
5106.0193           
30
54.3617             
1
 54.362
0
TEXT
8
CO_ORDS
62
3
7
STD
40
0.25
41
1.0
50
0.0
51
0.0
10
914.2489            
20
5106.0193           
30
54.3617             
1
 914.249 5106.0190
INSERT
8
POINT
62
2
2
CROSS
10
916.9800            
20
5101.8599           
30
54.2264             
41
0.002
42
0.002
43
0.002
50
0.0
0
TEXT
8
CODE
62
3
7
STD
40
0.25
41
1.0
50
0.0
51
0.0
10
916.9800            
20
5101.8599           
30
54.2264             
1
 CALCADA
0
TEXT
8
PT_ID
62
3
7
STD
40
0.25
41
1.0
50
0.0
51
0.0
10
916.9800            
20
5101.8599           
30
54.2264             
1
 155
0
TEXT
8
HEIGHT
62
3
7
STD
40
0.25
41
1.0
50
0.0
51
0.0
10
916.9800            
20
5101.8599           
30
54.2264             
1
 54.226
0
TEXT
8
CO_ORDS
62
3
7
STD
40
0.25
41
1.0
50
0.0
51
0.0
10
916.9800            
20
5101.8599           
30
54.2264             
1
 916.980 5101.8600
INSERT
8
POINT
62
2
2
CROSS
10
916.8137            
20
5101.8747           
30
54.3001             
41
0.002
42
0.002
43
0.002
50
0.0
0
TEXT
8
CODE
62
3
7
STD
40
0.25
41
1.0
50
0.0
51
0.0
10
916.8137            
20
5101.8747           
30
54.3001             
1
 CALCADA
0
TEXT
8
PT_ID
62
3
7
STD
40
0.25
41
1.0
50
0.0
51
0.0
10
916.8137            
20
5101.8747           
30
54.3001             
1
 156
0
TEXT
8
HEIGHT
62
3
7
STD
40
0.25
41
1.0
50
0.0
51
0.0
10
916.8137            
20
5101.8747           
30
54.3001             
1
 54.300
0
TEXT
8
CO_ORDS
62
3
7
STD
40
0.25
41
1.0
50
0.0
51
0.0
10
916.8137            
20
5101.8747           
30
54.3001             
1
 916.814 5101.8750
INSERT
8
POINT
62
2
2
CROSS
10
914.7461            
20
5101.6550           
30
54.3034             
41
0.002
42
0.002
43
0.002
50
0.0
0
TEXT
8
CODE
62
3
7
STD
40
0.25
41
1.0
50
0.0
51
0.0
10
914.7461            
20
5101.6550           
30
54.3034             
1
 CALCADA
0
TEXT
8
PT_ID
62
3
7
STD
40
0.25
41
1.0
50
0.0
51
0.0
10
914.7461            
20
5101.6550           
30
54.3034             
1
 157
0
TEXT
8
HEIGHT
62
3
7
STD
40
0.25
41
1.0
50
0.0
51
0.0
10
914.7461            
20
5101.6550           
30
54.3034             
1
 54.303
0
TEXT
8
CO_ORDS
62
3
7
STD
40
0.25
41
1.0
50
0.0
51
0.0
10
914.7461            
20
5101.6550           
30
54.3034             
1
 914.746 5101.6550
INSERT
8
POINT
62
2
2
CROSS
10
917.3237            
20
5097.4609           
30
54.1526             
41
0.002
42
0.002
43
0.002
50
0.0
0
TEXT
8
CODE
62
3
7
STD
40
0.25
41
1.0
50
0.0
51
0.0
10
917.3237            
20
5097.4609           
30
54.1526             
1
 CALCADA
0
TEXT
8
PT_ID
62
3
7
STD
40
0.25
41
1.0
50
0.0
51
0.0
10
917.3237            
20
5097.4609           
30
54.1526             
1
 158
0
TEXT
8
HEIGHT
62
3
7
STD
40
0.25
41
1.0
50
0.0
51
0.0
10
917.3237            
20
5097.4609           
30
54.1526             
1
 54.153
0
TEXT
8
CO_ORDS
62
3
7
STD
40
0.25
41
1.0
50
0.0
51
0.0
10
917.3237            
20
5097.4609           
30
54.1526             
1
 917.324 5097.4610
INSERT
8
POINT
62
2
2
CROSS
10
917.2927            
20
5097.4540           
30
54.2297             
41
0.002
42
0.002
43
0.002
50
0.0
0
TEXT
8
CODE
62
3
7
STD
40
0.25
41
1.0
50
0.0
51
0.0
10
917.2927            
20
5097.4540           
30
54.2297             
1
 CALCADA
0
TEXT
8
PT_ID
62
3
7
STD
40
0.25
41
1.0
50
0.0
51
0.0
10
917.2927            
20
5097.4540           
30
54.2297             
1
 159
0
TEXT
8
HEIGHT
62
3
7
STD
40
0.25
41
1.0
50
0.0
51
0.0
10
917.2927            
20
5097.4540           
30
54.2297             
1
 54.230
0
TEXT
8
CO_ORDS
62
3
7
STD
40
0.25
41
1.0
50
0.0
51
0.0
10
917.2927            
20
5097.4540           
30
54.2297             
1
 917.293 5097.4540
INSERT
8
POINT
62
2
2
CROSS
10
915.2673            
20
5097.0203           
30
54.2122             
41
0.002
42
0.002
43
0.002
50
0.0
0
TEXT
8
CODE
62
3
7
STD
40
0.25
41
1.0
50
0.0
51
0.0
10
915.2673            
20
5097.0203           
30
54.2122             
1
 CALCADA
0
TEXT
8
PT_ID
62
3
7
STD
40
0.25
41
1.0
50
0.0
51
0.0
10
915.2673            
20
5097.0203           
30
54.2122             
1
 160
0
TEXT
8
HEIGHT
62
3
7
STD
40
0.25
41
1.0
50
0.0
51
0.0
10
915.2673            
20
5097.0203           
30
54.2122             
1
 54.212
0
TEXT
8
CO_ORDS
62
3
7
STD
40
0.25
41
1.0
50
0.0
51
0.0
10
915.2673            
20
5097.0203           
30
54.2122             
1
 915.267 5097.0200
INSERT
8
POINT
62
2
2
CROSS
10
915.8860            
20
5092.4727           
30
54.1367             
41
0.002
42
0.002
43
0.002
50
0.0
0
TEXT
8
CODE
62
3
7
STD
40
0.25
41
1.0
50
0.0
51
0.0
10
915.8860            
20
5092.4727           
30
54.1367             
1
 CALCADA
0
TEXT
8
PT_ID
62
3
7
STD
40
0.25
41
1.0
50
0.0
51
0.0
10
915.8860            
20
5092.4727           
30
54.1367             
1
 161
0
TEXT
8
HEIGHT
62
3
7
STD
40
0.25
41
1.0
50
0.0
51
0.0
10
915.8860            
20
5092.4727           
30
54.1367             
1
 54.137
0
TEXT
8
CO_ORDS
62
3
7
STD
40
0.25
41
1.0
50
0.0
51
0.0
10
915.8860            
20
5092.4727           
30
54.1367             
1
 915.886 5092.4730
INSERT
8
POINT
62
2
2
CROSS
10
917.8061            
20
5092.7341           
30
54.1630             
41
0.002
42
0.002
43
0.002
50
0.0
0
TEXT
8
CODE
62
3
7
STD
40
0.25
41
1.0
50
0.0
51
0.0
10
917.8061            
20
5092.7341           
30
54.1630             
1
 CALCADA
0
TEXT
8
PT_ID
62
3
7
STD
40
0.25
41
1.0
50
0.0
51
0.0
10
917.8061            
20
5092.7341           
30
54.1630             
1
 162
0
TEXT
8
HEIGHT
62
3
7
STD
40
0.25
41
1.0
50
0.0
51
0.0
10
917.8061            
20
5092.7341           
30
54.1630             
1
 54.163
0
TEXT
8
CO_ORDS
62
3
7
STD
40
0.25
41
1.0
50
0.0
51
0.0
10
917.8061            
20
5092.7341           
30
54.1630             
1
 917.806 5092.7340
INSERT
8
POINT
62
2
2
CROSS
10
917.8604            
20
5092.7472           
30
54.0718             
41
0.002
42
0.002
43
0.002
50
0.0
0
TEXT
8
CODE
62
3
7
STD
40
0.25
41
1.0
50
0.0
51
0.0
10
917.8604            
20
5092.7472           
30
54.0718             
1
 CALCADA
0
TEXT
8
PT_ID
62
3
7
STD
40
0.25
41
1.0
50
0.0
51
0.0
10
917.8604            
20
5092.7472           
30
54.0718             
1
 163
0
TEXT
8
HEIGHT
62
3
7
STD
40
0.25
41
1.0
50
0.0
51
0.0
10
917.8604            
20
5092.7472           
30
54.0718             
1
 54.072
0
TEXT
8
CO_ORDS
62
3
7
STD
40
0.25
41
1.0
50
0.0
51
0.0
10
917.8604            
20
5092.7472           
30
54.0718             
1
 917.860 5092.7470
INSERT
8
POINT
62
2
2
CROSS
10
918.3460            
20
5088.0467           
30
53.9789             
41
0.002
42
0.002
43
0.002
50
0.0
0
TEXT
8
CODE
62
3
7
STD
40
0.25
41
1.0
50
0.0
51
0.0
10
918.3460            
20
5088.0467           
30
53.9789             
1
 CALCADA
0
TEXT
8
PT_ID
62
3
7
STD
40
0.25
41
1.0
50
0.0
51
0.0
10
918.3460            
20
5088.0467           
30
53.9789             
1
 164
0
TEXT
8
HEIGHT
62
3
7
STD
40
0.25
41
1.0
50
0.0
51
0.0
10
918.3460            
20
5088.0467           
30
53.9789             
1
 53.979
0
TEXT
8
CO_ORDS
62
3
7
STD
40
0.25
41
1.0
50
0.0
51
0.0
10
918.3460            
20
5088.0467           
30
53.9789             
1
 918.346 5088.0470
INSERT
8
POINT
62
2
2
CROSS
10
918.3058            
20
5088.0508           
30
54.0563             
41
0.002
42
0.002
43
0.002
50
0.0
0
TEXT
8
CODE
62
3
7
STD
40
0.25
41
1.0
50
0.0
51
0.0
10
918.3058            
20
5088.0508           
30
54.0563             
1
 CALCADA
0
TEXT
8
PT_ID
62
3
7
STD
40
0.25
41
1.0
50
0.0
51
0.0
10
918.3058            
20
5088.0508           
30
54.0563             
1
 165
0
TEXT
8
HEIGHT
62
3
7
STD
40
0.25
41
1.0
50
0.0
51
0.0
10
918.3058            
20
5088.0508           
30
54.0563             
1
 54.056
0
TEXT
8
CO_ORDS
62
3
7
STD
40
0.25
41
1.0
50
0.0
51
0.0
10
918.3058            
20
5088.0508           
30
54.0563             
1
 918.306 5088.0510
INSERT
8
POINT
62
2
2
CROSS
10
916.4318            
20
5087.4913           
30
54.0394             
41
0.002
42
0.002
43
0.002
50
0.0
0
TEXT
8
CODE
62
3
7
STD
40
0.25
41
1.0
50
0.0
51
0.0
10
916.4318            
20
5087.4913           
30
54.0394             
1
 CALCADA
0
TEXT
8
PT_ID
62
3
7
STD
40
0.25
41
1.0
50
0.0
51
0.0
10
916.4318            
20
5087.4913           
30
54.0394             
1
 166
0
TEXT
8
HEIGHT
62
3
7
STD
40
0.25
41
1.0
50
0.0
51
0.0
10
916.4318            
20
5087.4913           
30
54.0394             
1
 54.039
0
TEXT
8
CO_ORDS
62
3
7
STD
40
0.25
41
1.0
50
0.0
51
0.0
10
916.4318            
20
5087.4913           
30
54.0394             
1
 916.432 5087.4910
INSERT
8
POINT
62
2
2
CROSS
10
917.0540            
20
5083.3996           
30
53.9649             
41
0.002
42
0.002
43
0.002
50
0.0
0
TEXT
8
CODE
62
3
7
STD
40
0.25
41
1.0
50
0.0
51
0.0
10
917.0540            
20
5083.3996           
30
53.9649             
1
 CALCADA
0
TEXT
8
PT_ID
62
3
7
STD
40
0.25
41
1.0
50
0.0
51
0.0
10
917.0540            
20
5083.3996           
30
53.9649             
1
 167
0
TEXT
8
HEIGHT
62
3
7
STD
40
0.25
41
1.0
50
0.0
51
0.0
10
917.0540            
20
5083.3996           
30
53.9649             
1
 53.965
0
TEXT
8
CO_ORDS
62
3
7
STD
40
0.25
41
1.0
50
0.0
51
0.0
10
917.0540            
20
5083.3996           
30
53.9649             
1
 917.054 5083.4000
INSERT
8
POINT
62
2
2
CROSS
10
918.8290            
20
5083.6219           
30
53.9548             
41
0.002
42
0.002
43
0.002
50
0.0
0
TEXT
8
CODE
62
3
7
STD
40
0.25
41
1.0
50
0.0
51
0.0
10
918.8290            
20
5083.6219           
30
53.9548             
1
 CALCADA
0
TEXT
8
PT_ID
62
3
7
STD
40
0.25
41
1.0
50
0.0
51
0.0
10
918.8290            
20
5083.6219           
30
53.9548             
1
 168
0
TEXT
8
HEIGHT
62
3
7
STD
40
0.25
41
1.0
50
0.0
51
0.0
10
918.8290            
20
5083.6219           
30
53.9548             
1
 53.955
0
TEXT
8
CO_ORDS
62
3
7
STD
40
0.25
41
1.0
50
0.0
51
0.0
10
918.8290            
20
5083.6219           
30
53.9548             
1
 918.829 5083.6220
INSERT
8
POINT
62
2
2
CROSS
10
918.8585            
20
5083.6248           
30
53.8514             
41
0.002
42
0.002
43
0.002
50
0.0
0
TEXT
8
CODE
62
3
7
STD
40
0.25
41
1.0
50
0.0
51
0.0
10
918.8585            
20
5083.6248           
30
53.8514             
1
 CALCADA
0
TEXT
8
PT_ID
62
3
7
STD
40
0.25
41
1.0
50
0.0
51
0.0
10
918.8585            
20
5083.6248           
30
53.8514             
1
 169
0
TEXT
8
HEIGHT
62
3
7
STD
40
0.25
41
1.0
50
0.0
51
0.0
10
918.8585            
20
5083.6248           
30
53.8514             
1
 53.851
0
TEXT
8
CO_ORDS
62
3
7
STD
40
0.25
41
1.0
50
0.0
51
0.0
10
918.8585            
20
5083.6248           
30
53.8514             
1
 918.858 5083.6250
INSERT
8
POINT
62
2
2
CROSS
10
920.4939            
20
5076.4134           
30
53.7387             
41
0.002
42
0.002
43
0.002
50
0.0
0
TEXT
8
CODE
62
3
7
STD
40
0.25
41
1.0
50
0.0
51
0.0
10
920.4939            
20
5076.4134           
30
53.7387             
1
 CALCADA
0
TEXT
8
PT_ID
62
3
7
STD
40
0.25
41
1.0
50
0.0
51
0.0
10
920.4939            
20
5076.4134           
30
53.7387             
1
 170
0
TEXT
8
HEIGHT
62
3
7
STD
40
0.25
41
1.0
50
0.0
51
0.0
10
920.4939            
20
5076.4134           
30
53.7387             
1
 53.739
0
TEXT
8
CO_ORDS
62
3
7
STD
40
0.25
41
1.0
50
0.0
51
0.0
10
920.4939            
20
5076.4134           
30
53.7387             
1
 920.494 5076.4130
INSERT
8
POINT
62
2
2
CROSS
10
920.4784            
20
5076.4050           
30
53.8133             
41
0.002
42
0.002
43
0.002
50
0.0
0
TEXT
8
CODE
62
3
7
STD
40
0.25
41
1.0
50
0.0
51
0.0
10
920.4784            
20
5076.4050           
30
53.8133             
1
 CALCADA
0
TEXT
8
PT_ID
62
3
7
STD
40
0.25
41
1.0
50
0.0
51
0.0
10
920.4784            
20
5076.4050           
30
53.8133             
1
 171
0
TEXT
8
HEIGHT
62
3
7
STD
40
0.25
41
1.0
50
0.0
51
0.0
10
920.4784            
20
5076.4050           
30
53.8133             
1
 53.813
0
TEXT
8
CO_ORDS
62
3
7
STD
40
0.25
41
1.0
50
0.0
51
0.0
10
920.4784            
20
5076.4050           
30
53.8133             
1
 920.478 5076.4050
INSERT
8
POINT
62
2
2
CROSS
10
918.9016            
20
5075.9785           
30
53.8396             
41
0.002
42
0.002
43
0.002
50
0.0
0
TEXT
8
CODE
62
3
7
STD
40
0.25
41
1.0
50
0.0
51
0.0
10
918.9016            
20
5075.9785           
30
53.8396             
1
 CALCADA
0
TEXT
8
PT_ID
62
3
7
STD
40
0.25
41
1.0
50
0.0
51
0.0
10
918.9016            
20
5075.9785           
30
53.8396             
1
 172
0
TEXT
8
HEIGHT
62
3
7
STD
40
0.25
41
1.0
50
0.0
51
0.0
10
918.9016            
20
5075.9785           
30
53.8396             
1
 53.840
0
TEXT
8
CO_ORDS
62
3
7
STD
40
0.25
41
1.0
50
0.0
51
0.0
10
918.9016            
20
5075.9785           
30
53.8396             
1
 918.902 5075.9790
INSERT
8
POINT
62
2
2
CROSS
10
918.4549            
20
5075.8379           
30
53.9258             
41
0.002
42
0.002
43
0.002
50
0.0
0
TEXT
8
CODE
62
3
7
STD
40
0.25
41
1.0
50
0.0
51
0.0
10
918.4549            
20
5075.8379           
30
53.9258             
1
 CALCADA
0
TEXT
8
PT_ID
62
3
7
STD
40
0.25
41
1.0
50
0.0
51
0.0
10
918.4549            
20
5075.8379           
30
53.9258             
1
 173
0
TEXT
8
HEIGHT
62
3
7
STD
40
0.25
41
1.0
50
0.0
51
0.0
10
918.4549            
20
5075.8379           
30
53.9258             
1
 53.926
0
TEXT
8
CO_ORDS
62
3
7
STD
40
0.25
41
1.0
50
0.0
51
0.0
10
918.4549            
20
5075.8379           
30
53.9258             
1
 918.455 5075.8380
INSERT
8
POINT
62
2
2
CROSS
10
919.8085            
20
5072.3192           
30
53.7645             
41
0.002
42
0.002
43
0.002
50
0.0
0
TEXT
8
CODE
62
3
7
STD
40
0.25
41
1.0
50
0.0
51
0.0
10
919.8085            
20
5072.3192           
30
53.7645             
1
 CALCADA
0
TEXT
8
PT_ID
62
3
7
STD
40
0.25
41
1.0
50
0.0
51
0.0
10
919.8085            
20
5072.3192           
30
53.7645             
1
 174
0
TEXT
8
HEIGHT
62
3
7
STD
40
0.25
41
1.0
50
0.0
51
0.0
10
919.8085            
20
5072.3192           
30
53.7645             
1
 53.765
0
TEXT
8
CO_ORDS
62
3
7
STD
40
0.25
41
1.0
50
0.0
51
0.0
10
919.8085            
20
5072.3192           
30
53.7645             
1
 919.809 5072.3190
INSERT
8
POINT
62
2
2
CROSS
10
921.7745            
20
5073.1241           
30
53.7539             
41
0.002
42
0.002
43
0.002
50
0.0
0
TEXT
8
CODE
62
3
7
STD
40
0.25
41
1.0
50
0.0
51
0.0
10
921.7745            
20
5073.1241           
30
53.7539             
1
 CALCADA
0
TEXT
8
PT_ID
62
3
7
STD
40
0.25
41
1.0
50
0.0
51
0.0
10
921.7745            
20
5073.1241           
30
53.7539             
1
 175
0
TEXT
8
HEIGHT
62
3
7
STD
40
0.25
41
1.0
50
0.0
51
0.0
10
921.7745            
20
5073.1241           
30
53.7539             
1
 53.754
0
TEXT
8
CO_ORDS
62
3
7
STD
40
0.25
41
1.0
50
0.0
51
0.0
10
921.7745            
20
5073.1241           
30
53.7539             
1
 921.775 5073.1240
INSERT
8
POINT
62
2
2
CROSS
10
921.7877            
20
5073.1691           
30
53.6790             
41
0.002
42
0.002
43
0.002
50
0.0
0
TEXT
8
CODE
62
3
7
STD
40
0.25
41
1.0
50
0.0
51
0.0
10
921.7877            
20
5073.1691           
30
53.6790             
1
 CALCADA
0
TEXT
8
PT_ID
62
3
7
STD
40
0.25
41
1.0
50
0.0
51
0.0
10
921.7877            
20
5073.1691           
30
53.6790             
1
 176
0
TEXT
8
HEIGHT
62
3
7
STD
40
0.25
41
1.0
50
0.0
51
0.0
10
921.7877            
20
5073.1691           
30
53.6790             
1
 53.679
0
TEXT
8
CO_ORDS
62
3
7
STD
40
0.25
41
1.0
50
0.0
51
0.0
10
921.7877            
20
5073.1691           
30
53.6790             
1
 921.788 5073.1690
INSERT
8
POINT
62
2
2
CROSS
10
923.4694            
20
5069.4194           
30
53.5926             
41
0.002
42
0.002
43
0.002
50
0.0
0
TEXT
8
CODE
62
3
7
STD
40
0.25
41
1.0
50
0.0
51
0.0
10
923.4694            
20
5069.4194           
30
53.5926             
1
 CALCADA
0
TEXT
8
PT_ID
62
3
7
STD
40
0.25
41
1.0
50
0.0
51
0.0
10
923.4694            
20
5069.4194           
30
53.5926             
1
 177
0
TEXT
8
HEIGHT
62
3
7
STD
40
0.25
41
1.0
50
0.0
51
0.0
10
923.4694            
20
5069.4194           
30
53.5926             
1
 53.593
0
TEXT
8
CO_ORDS
62
3
7
STD
40
0.25
41
1.0
50
0.0
51
0.0
10
923.4694            
20
5069.4194           
30
53.5926             
1
 923.469 5069.4190
INSERT
8
POINT
62
2
2
CROSS
10
923.4387            
20
5069.3972           
30
53.6460             
41
0.002
42
0.002
43
0.002
50
0.0
0
TEXT
8
CODE
62
3
7
STD
40
0.25
41
1.0
50
0.0
51
0.0
10
923.4387            
20
5069.3972           
30
53.6460             
1
 CALCADA
0
TEXT
8
PT_ID
62
3
7
STD
40
0.25
41
1.0
50
0.0
51
0.0
10
923.4387            
20
5069.3972           
30
53.6460             
1
 178
0
TEXT
8
HEIGHT
62
3
7
STD
40
0.25
41
1.0
50
0.0
51
0.0
10
923.4387            
20
5069.3972           
30
53.6460             
1
 53.646
0
TEXT
8
CO_ORDS
62
3
7
STD
40
0.25
41
1.0
50
0.0
51
0.0
10
923.4387            
20
5069.3972           
30
53.6460             
1
 923.439 5069.3970
INSERT
8
POINT
62
2
2
CROSS
10
921.5645            
20
5068.3828           
30
53.6654             
41
0.002
42
0.002
43
0.002
50
0.0
0
TEXT
8
CODE
62
3
7
STD
40
0.25
41
1.0
50
0.0
51
0.0
10
921.5645            
20
5068.3828           
30
53.6654             
1
 CALCADA
0
TEXT
8
PT_ID
62
3
7
STD
40
0.25
41
1.0
50
0.0
51
0.0
10
921.5645            
20
5068.3828           
30
53.6654             
1
 179
0
TEXT
8
HEIGHT
62
3
7
STD
40
0.25
41
1.0
50
0.0
51
0.0
10
921.5645            
20
5068.3828           
30
53.6654             
1
 53.665
0
TEXT
8
CO_ORDS
62
3
7
STD
40
0.25
41
1.0
50
0.0
51
0.0
10
921.5645            
20
5068.3828           
30
53.6654             
1
 921.564 5068.3830
INSERT
8
POINT
62
2
2
CROSS
10
923.5965            
20
5064.6198           
30
53.5722             
41
0.002
42
0.002
43
0.002
50
0.0
0
TEXT
8
CODE
62
3
7
STD
40
0.25
41
1.0
50
0.0
51
0.0
10
923.5965            
20
5064.6198           
30
53.5722             
1
 CALCADA
0
TEXT
8
PT_ID
62
3
7
STD
40
0.25
41
1.0
50
0.0
51
0.0
10
923.5965            
20
5064.6198           
30
53.5722             
1
 180
0
TEXT
8
HEIGHT
62
3
7
STD
40
0.25
41
1.0
50
0.0
51
0.0
10
923.5965            
20
5064.6198           
30
53.5722             
1
 53.572
0
TEXT
8
CO_ORDS
62
3
7
STD
40
0.25
41
1.0
50
0.0
51
0.0
10
923.5965            
20
5064.6198           
30
53.5722             
1
 923.596 5064.6200
INSERT
8
POINT
62
2
2
CROSS
10
925.3803            
20
5065.7026           
30
53.5416             
41
0.002
42
0.002
43
0.002
50
0.0
0
TEXT
8
CODE
62
3
7
STD
40
0.25
41
1.0
50
0.0
51
0.0
10
925.3803            
20
5065.7026           
30
53.5416             
1
 CALCADA
0
TEXT
8
PT_ID
62
3
7
STD
40
0.25
41
1.0
50
0.0
51
0.0
10
925.3803            
20
5065.7026           
30
53.5416             
1
 181
0
TEXT
8
HEIGHT
62
3
7
STD
40
0.25
41
1.0
50
0.0
51
0.0
10
925.3803            
20
5065.7026           
30
53.5416             
1
 53.542
0
TEXT
8
CO_ORDS
62
3
7
STD
40
0.25
41
1.0
50
0.0
51
0.0
10
925.3803            
20
5065.7026           
30
53.5416             
1
 925.380 5065.7030
INSERT
8
POINT
62
2
2
CROSS
10
925.4007            
20
5065.7287           
30
53.4671             
41
0.002
42
0.002
43
0.002
50
0.0
0
TEXT
8
CODE
62
3
7
STD
40
0.25
41
1.0
50
0.0
51
0.0
10
925.4007            
20
5065.7287           
30
53.4671             
1
 CALCADA
0
TEXT
8
PT_ID
62
3
7
STD
40
0.25
41
1.0
50
0.0
51
0.0
10
925.4007            
20
5065.7287           
30
53.4671             
1
 182
0
TEXT
8
HEIGHT
62
3
7
STD
40
0.25
41
1.0
50
0.0
51
0.0
10
925.4007            
20
5065.7287           
30
53.4671             
1
 53.467
0
TEXT
8
CO_ORDS
62
3
7
STD
40
0.25
41
1.0
50
0.0
51
0.0
10
925.4007            
20
5065.7287           
30
53.4671             
1
 925.401 5065.7290
INSERT
8
POINT
62
2
2
CROSS
10
928.4026            
20
5060.4701           
30
53.3273             
41
0.002
42
0.002
43
0.002
50
0.0
0
TEXT
8
CODE
62
3
7
STD
40
0.25
41
1.0
50
0.0
51
0.0
10
928.4026            
20
5060.4701           
30
53.3273             
1
 CALCADA
0
TEXT
8
PT_ID
62
3
7
STD
40
0.25
41
1.0
50
0.0
51
0.0
10
928.4026            
20
5060.4701           
30
53.3273             
1
 183
0
TEXT
8
HEIGHT
62
3
7
STD
40
0.25
41
1.0
50
0.0
51
0.0
10
928.4026            
20
5060.4701           
30
53.3273             
1
 53.327
0
TEXT
8
CO_ORDS
62
3
7
STD
40
0.25
41
1.0
50
0.0
51
0.0
10
928.4026            
20
5060.4701           
30
53.3273             
1
 928.403 5060.4700
INSERT
8
POINT
62
2
2
CROSS
10
928.3810            
20
5060.4407           
30
53.3813             
41
0.002
42
0.002
43
0.002
50
0.0
0
TEXT
8
CODE
62
3
7
STD
40
0.25
41
1.0
50
0.0
51
0.0
10
928.3810            
20
5060.4407           
30
53.3813             
1
 CALCADA
0
TEXT
8
PT_ID
62
3
7
STD
40
0.25
41
1.0
50
0.0
51
0.0
10
928.3810            
20
5060.4407           
30
53.3813             
1
 184
0
TEXT
8
HEIGHT
62
3
7
STD
40
0.25
41
1.0
50
0.0
51
0.0
10
928.3810            
20
5060.4407           
30
53.3813             
1
 53.381
0
TEXT
8
CO_ORDS
62
3
7
STD
40
0.25
41
1.0
50
0.0
51
0.0
10
928.3810            
20
5060.4407           
30
53.3813             
1
 928.381 5060.4410
INSERT
8
POINT
62
2
2
CROSS
10
926.5672            
20
5059.2576           
30
53.4788             
41
0.002
42
0.002
43
0.002
50
0.0
0
TEXT
8
CODE
62
3
7
STD
40
0.25
41
1.0
50
0.0
51
0.0
10
926.5672            
20
5059.2576           
30
53.4788             
1
 CALCADA
0
TEXT
8
PT_ID
62
3
7
STD
40
0.25
41
1.0
50
0.0
51
0.0
10
926.5672            
20
5059.2576           
30
53.4788             
1
 185
0
TEXT
8
HEIGHT
62
3
7
STD
40
0.25
41
1.0
50
0.0
51
0.0
10
926.5672            
20
5059.2576           
30
53.4788             
1
 53.479
0
TEXT
8
CO_ORDS
62
3
7
STD
40
0.25
41
1.0
50
0.0
51
0.0
10
926.5672            
20
5059.2576           
30
53.4788             
1
 926.567 5059.2580
INSERT
8
POINT
62
2
2
CROSS
10
929.2111            
20
5055.6986           
30
53.3793             
41
0.002
42
0.002
43
0.002
50
0.0
0
TEXT
8
CODE
62
3
7
STD
40
0.25
41
1.0
50
0.0
51
0.0
10
929.2111            
20
5055.6986           
30
53.3793             
1
 CALCADA
0
TEXT
8
PT_ID
62
3
7
STD
40
0.25
41
1.0
50
0.0
51
0.0
10
929.2111            
20
5055.6986           
30
53.3793             
1
 186
0
TEXT
8
HEIGHT
62
3
7
STD
40
0.25
41
1.0
50
0.0
51
0.0
10
929.2111            
20
5055.6986           
30
53.3793             
1
 53.379
0
TEXT
8
CO_ORDS
62
3
7
STD
40
0.25
41
1.0
50
0.0
51
0.0
10
929.2111            
20
5055.6986           
30
53.3793             
1
 929.211 5055.6990
INSERT
8
POINT
62
2
2
CROSS
10
930.9409            
20
5057.2284           
30
53.3005             
41
0.002
42
0.002
43
0.002
50
0.0
0
TEXT
8
CODE
62
3
7
STD
40
0.25
41
1.0
50
0.0
51
0.0
10
930.9409            
20
5057.2284           
30
53.3005             
1
 CALCADA
0
TEXT
8
PT_ID
62
3
7
STD
40
0.25
41
1.0
50
0.0
51
0.0
10
930.9409            
20
5057.2284           
30
53.3005             
1
 187
0
TEXT
8
HEIGHT
62
3
7
STD
40
0.25
41
1.0
50
0.0
51
0.0
10
930.9409            
20
5057.2284           
30
53.3005             
1
 53.300
0
TEXT
8
CO_ORDS
62
3
7
STD
40
0.25
41
1.0
50
0.0
51
0.0
10
930.9409            
20
5057.2284           
30
53.3005             
1
 930.941 5057.2280
INSERT
8
POINT
62
2
2
CROSS
10
930.9531            
20
5057.2427           
30
53.2411             
41
0.002
42
0.002
43
0.002
50
0.0
0
TEXT
8
CODE
62
3
7
STD
40
0.25
41
1.0
50
0.0
51
0.0
10
930.9531            
20
5057.2427           
30
53.2411             
1
 CALCADA
0
TEXT
8
PT_ID
62
3
7
STD
40
0.25
41
1.0
50
0.0
51
0.0
10
930.9531            
20
5057.2427           
30
53.2411             
1
 188
0
TEXT
8
HEIGHT
62
3
7
STD
40
0.25
41
1.0
50
0.0
51
0.0
10
930.9531            
20
5057.2427           
30
53.2411             
1
 53.241
0
TEXT
8
CO_ORDS
62
3
7
STD
40
0.25
41
1.0
50
0.0
51
0.0
10
930.9531            
20
5057.2427           
30
53.2411             
1
 930.953 5057.2430
INSERT
8
POINT
62
2
2
CROSS
10
933.7963            
20
5054.0524           
30
53.1436             
41
0.002
42
0.002
43
0.002
50
0.0
0
TEXT
8
CODE
62
3
7
STD
40
0.25
41
1.0
50
0.0
51
0.0
10
933.7963            
20
5054.0524           
30
53.1436             
1
 CALCADA
0
TEXT
8
PT_ID
62
3
7
STD
40
0.25
41
1.0
50
0.0
51
0.0
10
933.7963            
20
5054.0524           
30
53.1436             
1
 189
0
TEXT
8
HEIGHT
62
3
7
STD
40
0.25
41
1.0
50
0.0
51
0.0
10
933.7963            
20
5054.0524           
30
53.1436             
1
 53.144
0
TEXT
8
CO_ORDS
62
3
7
STD
40
0.25
41
1.0
50
0.0
51
0.0
10
933.7963            
20
5054.0524           
30
53.1436             
1
 933.796 5054.0520
INSERT
8
POINT
62
2
2
CROSS
10
933.8054            
20
5054.0059           
30
53.2193             
41
0.002
42
0.002
43
0.002
50
0.0
0
TEXT
8
CODE
62
3
7
STD
40
0.25
41
1.0
50
0.0
51
0.0
10
933.8054            
20
5054.0059           
30
53.2193             
1
 CALCADA
0
TEXT
8
PT_ID
62
3
7
STD
40
0.25
41
1.0
50
0.0
51
0.0
10
933.8054            
20
5054.0059           
30
53.2193             
1
 190
0
TEXT
8
HEIGHT
62
3
7
STD
40
0.25
41
1.0
50
0.0
51
0.0
10
933.8054            
20
5054.0059           
30
53.2193             
1
 53.219
0
TEXT
8
CO_ORDS
62
3
7
STD
40
0.25
41
1.0
50
0.0
51
0.0
10
933.8054            
20
5054.0059           
30
53.2193             
1
 933.805 5054.0060
INSERT
8
POINT
62
2
2
CROSS
10
932.1433            
20
5052.1475           
30
53.2757             
41
0.002
42
0.002
43
0.002
50
0.0
0
TEXT
8
CODE
62
3
7
STD
40
0.25
41
1.0
50
0.0
51
0.0
10
932.1433            
20
5052.1475           
30
53.2757             
1
 CALCADA
0
TEXT
8
PT_ID
62
3
7
STD
40
0.25
41
1.0
50
0.0
51
0.0
10
932.1433            
20
5052.1475           
30
53.2757             
1
 191
0
TEXT
8
HEIGHT
62
3
7
STD
40
0.25
41
1.0
50
0.0
51
0.0
10
932.1433            
20
5052.1475           
30
53.2757             
1
 53.276
0
TEXT
8
CO_ORDS
62
3
7
STD
40
0.25
41
1.0
50
0.0
51
0.0
10
932.1433            
20
5052.1475           
30
53.2757             
1
 932.143 5052.1470
INSERT
8
POINT
62
2
2
CROSS
10
936.7822            
20
5048.6491           
30
53.2085             
41
0.002
42
0.002
43
0.002
50
0.0
0
TEXT
8
CODE
62
3
7
STD
40
0.25
41
1.0
50
0.0
51
0.0
10
936.7822            
20
5048.6491           
30
53.2085             
1
 CALCADA
0
TEXT
8
PT_ID
62
3
7
STD
40
0.25
41
1.0
50
0.0
51
0.0
10
936.7822            
20
5048.6491           
30
53.2085             
1
 192
0
TEXT
8
HEIGHT
62
3
7
STD
40
0.25
41
1.0
50
0.0
51
0.0
10
936.7822            
20
5048.6491           
30
53.2085             
1
 53.208
0
TEXT
8
CO_ORDS
62
3
7
STD
40
0.25
41
1.0
50
0.0
51
0.0
10
936.7822            
20
5048.6491           
30
53.2085             
1
 936.782 5048.6490
INSERT
8
POINT
62
2
2
CROSS
10
937.9981            
20
5050.3111           
30
53.1037             
41
0.002
42
0.002
43
0.002
50
0.0
0
TEXT
8
CODE
62
3
7
STD
40
0.25
41
1.0
50
0.0
51
0.0
10
937.9981            
20
5050.3111           
30
53.1037             
1
 CALCADA
0
TEXT
8
PT_ID
62
3
7
STD
40
0.25
41
1.0
50
0.0
51
0.0
10
937.9981            
20
5050.3111           
30
53.1037             
1
 193
0
TEXT
8
HEIGHT
62
3
7
STD
40
0.25
41
1.0
50
0.0
51
0.0
10
937.9981            
20
5050.3111           
30
53.1037             
1
 53.104
0
TEXT
8
CO_ORDS
62
3
7
STD
40
0.25
41
1.0
50
0.0
51
0.0
10
937.9981            
20
5050.3111           
30
53.1037             
1
 937.998 5050.3110
INSERT
8
POINT
62
2
2
CROSS
10
938.0145            
20
5050.3297           
30
53.0274             
41
0.002
42
0.002
43
0.002
50
0.0
0
TEXT
8
CODE
62
3
7
STD
40
0.25
41
1.0
50
0.0
51
0.0
10
938.0145            
20
5050.3297           
30
53.0274             
1
 CALCADA
0
TEXT
8
PT_ID
62
3
7
STD
40
0.25
41
1.0
50
0.0
51
0.0
10
938.0145            
20
5050.3297           
30
53.0274             
1
 194
0
TEXT
8
HEIGHT
62
3
7
STD
40
0.25
41
1.0
50
0.0
51
0.0
10
938.0145            
20
5050.3297           
30
53.0274             
1
 53.027
0
TEXT
8
CO_ORDS
62
3
7
STD
40
0.25
41
1.0
50
0.0
51
0.0
10
938.0145            
20
5050.3297           
30
53.0274             
1
 938.014 5050.3300
INSERT
8
POINT
62
2
2
CROSS
10
941.2757            
20
5047.4844           
30
52.8806             
41
0.002
42
0.002
43
0.002
50
0.0
0
TEXT
8
CODE
62
3
7
STD
40
0.25
41
1.0
50
0.0
51
0.0
10
941.2757            
20
5047.4844           
30
52.8806             
1
 CALCADA
0
TEXT
8
PT_ID
62
3
7
STD
40
0.25
41
1.0
50
0.0
51
0.0
10
941.2757            
20
5047.4844           
30
52.8806             
1
 195
0
TEXT
8
HEIGHT
62
3
7
STD
40
0.25
41
1.0
50
0.0
51
0.0
10
941.2757            
20
5047.4844           
30
52.8806             
1
 52.881
0
TEXT
8
CO_ORDS
62
3
7
STD
40
0.25
41
1.0
50
0.0
51
0.0
10
941.2757            
20
5047.4844           
30
52.8806             
1
 941.276 5047.4840
INSERT
8
POINT
62
2
2
CROSS
10
941.2455            
20
5047.4463           
30
52.9546             
41
0.002
42
0.002
43
0.002
50
0.0
0
TEXT
8
CODE
62
3
7
STD
40
0.25
41
1.0
50
0.0
51
0.0
10
941.2455            
20
5047.4463           
30
52.9546             
1
 CALCADA
0
TEXT
8
PT_ID
62
3
7
STD
40
0.25
41
1.0
50
0.0
51
0.0
10
941.2455            
20
5047.4463           
30
52.9546             
1
 196
0
TEXT
8
HEIGHT
62
3
7
STD
40
0.25
41
1.0
50
0.0
51
0.0
10
941.2455            
20
5047.4463           
30
52.9546             
1
 52.955
0
TEXT
8
CO_ORDS
62
3
7
STD
40
0.25
41
1.0
50
0.0
51
0.0
10
941.2455            
20
5047.4463           
30
52.9546             
1
 941.246 5047.4460
INSERT
8
POINT
62
2
2
CROSS
10
939.0489            
20
5046.1561           
30
53.0510             
41
0.002
42
0.002
43
0.002
50
0.0
0
TEXT
8
CODE
62
3
7
STD
40
0.25
41
1.0
50
0.0
51
0.0
10
939.0489            
20
5046.1561           
30
53.0510             
1
 CALCADA
0
TEXT
8
PT_ID
62
3
7
STD
40
0.25
41
1.0
50
0.0
51
0.0
10
939.0489            
20
5046.1561           
30
53.0510             
1
 197
0
TEXT
8
HEIGHT
62
3
7
STD
40
0.25
41
1.0
50
0.0
51
0.0
10
939.0489            
20
5046.1561           
30
53.0510             
1
 53.051
0
TEXT
8
CO_ORDS
62
3
7
STD
40
0.25
41
1.0
50
0.0
51
0.0
10
939.0489            
20
5046.1561           
30
53.0510             
1
 939.049 5046.1560
INSERT
8
POINT
62
2
2
CROSS
10
942.7138            
20
5043.7770           
30
52.9286             
41
0.002
42
0.002
43
0.002
50
0.0
0
TEXT
8
CODE
62
3
7
STD
40
0.25
41
1.0
50
0.0
51
0.0
10
942.7138            
20
5043.7770           
30
52.9286             
1
 CALCADA
0
TEXT
8
PT_ID
62
3
7
STD
40
0.25
41
1.0
50
0.0
51
0.0
10
942.7138            
20
5043.7770           
30
52.9286             
1
 198
0
TEXT
8
HEIGHT
62
3
7
STD
40
0.25
41
1.0
50
0.0
51
0.0
10
942.7138            
20
5043.7770           
30
52.9286             
1
 52.929
0
TEXT
8
CO_ORDS
62
3
7
STD
40
0.25
41
1.0
50
0.0
51
0.0
10
942.7138            
20
5043.7770           
30
52.9286             
1
 942.714 5043.7770
INSERT
8
POINT
62
2
2
CROSS
10
943.6983            
20
5045.7592           
30
52.8715             
41
0.002
42
0.002
43
0.002
50
0.0
0
TEXT
8
CODE
62
3
7
STD
40
0.25
41
1.0
50
0.0
51
0.0
10
943.6983            
20
5045.7592           
30
52.8715             
1
 CALCADA
0
TEXT
8
PT_ID
62
3
7
STD
40
0.25
41
1.0
50
0.0
51
0.0
10
943.6983            
20
5045.7592           
30
52.8715             
1
 199
0
TEXT
8
HEIGHT
62
3
7
STD
40
0.25
41
1.0
50
0.0
51
0.0
10
943.6983            
20
5045.7592           
30
52.8715             
1
 52.872
0
TEXT
8
CO_ORDS
62
3
7
STD
40
0.25
41
1.0
50
0.0
51
0.0
10
943.6983            
20
5045.7592           
30
52.8715             
1
 943.698 5045.7590
INSERT
8
POINT
62
2
2
CROSS
10
943.7017            
20
5045.7828           
30
52.8183             
41
0.002
42
0.002
43
0.002
50
0.0
0
TEXT
8
CODE
62
3
7
STD
40
0.25
41
1.0
50
0.0
51
0.0
10
943.7017            
20
5045.7828           
30
52.8183             
1
 CALCADA
0
TEXT
8
PT_ID
62
3
7
STD
40
0.25
41
1.0
50
0.0
51
0.0
10
943.7017            
20
5045.7828           
30
52.8183             
1
 200
0
TEXT
8
HEIGHT
62
3
7
STD
40
0.25
41
1.0
50
0.0
51
0.0
10
943.7017            
20
5045.7828           
30
52.8183             
1
 52.818
0
TEXT
8
CO_ORDS
62
3
7
STD
40
0.25
41
1.0
50
0.0
51
0.0
10
943.7017            
20
5045.7828           
30
52.8183             
1
 943.702 5045.7830
INSERT
8
POINT
62
2
2
CROSS
10
946.8767            
20
5043.6724           
30
52.7099             
41
0.002
42
0.002
43
0.002
50
0.0
0
TEXT
8
CODE
62
3
7
STD
40
0.25
41
1.0
50
0.0
51
0.0
10
946.8767            
20
5043.6724           
30
52.7099             
1
 CALCADA
0
TEXT
8
PT_ID
62
3
7
STD
40
0.25
41
1.0
50
0.0
51
0.0
10
946.8767            
20
5043.6724           
30
52.7099             
1
 201
0
TEXT
8
HEIGHT
62
3
7
STD
40
0.25
41
1.0
50
0.0
51
0.0
10
946.8767            
20
5043.6724           
30
52.7099             
1
 52.710
0
TEXT
8
CO_ORDS
62
3
7
STD
40
0.25
41
1.0
50
0.0
51
0.0
10
946.8767            
20
5043.6724           
30
52.7099             
1
 946.877 5043.6720
INSERT
8
POINT
62
2
2
CROSS
10
946.8420            
20
5043.6036           
30
52.8036             
41
0.002
42
0.002
43
0.002
50
0.0
0
TEXT
8
CODE
62
3
7
STD
40
0.25
41
1.0
50
0.0
51
0.0
10
946.8420            
20
5043.6036           
30
52.8036             
1
 CALCADA
0
TEXT
8
PT_ID
62
3
7
STD
40
0.25
41
1.0
50
0.0
51
0.0
10
946.8420            
20
5043.6036           
30
52.8036             
1
 202
0
TEXT
8
HEIGHT
62
3
7
STD
40
0.25
41
1.0
50
0.0
51
0.0
10
946.8420            
20
5043.6036           
30
52.8036             
1
 52.804
0
TEXT
8
CO_ORDS
62
3
7
STD
40
0.25
41
1.0
50
0.0
51
0.0
10
946.8420            
20
5043.6036           
30
52.8036             
1
 946.842 5043.6040
INSERT
8
POINT
62
2
2
CROSS
10
945.7463            
20
5041.9005           
30
52.8404             
41
0.002
42
0.002
43
0.002
50
0.0
0
TEXT
8
CODE
62
3
7
STD
40
0.25
41
1.0
50
0.0
51
0.0
10
945.7463            
20
5041.9005           
30
52.8404             
1
 CALCADA
0
TEXT
8
PT_ID
62
3
7
STD
40
0.25
41
1.0
50
0.0
51
0.0
10
945.7463            
20
5041.9005           
30
52.8404             
1
 203
0
TEXT
8
HEIGHT
62
3
7
STD
40
0.25
41
1.0
50
0.0
51
0.0
10
945.7463            
20
5041.9005           
30
52.8404             
1
 52.840
0
TEXT
8
CO_ORDS
62
3
7
STD
40
0.25
41
1.0
50
0.0
51
0.0
10
945.7463            
20
5041.9005           
30
52.8404             
1
 945.746 5041.9000
INSERT
8
POINT
62
2
2
CROSS
10
949.4700            
20
5039.2624           
30
52.8079             
41
0.002
42
0.002
43
0.002
50
0.0
0
TEXT
8
CODE
62
3
7
STD
40
0.25
41
1.0
50
0.0
51
0.0
10
949.4700            
20
5039.2624           
30
52.8079             
1
 CALCADA
0
TEXT
8
PT_ID
62
3
7
STD
40
0.25
41
1.0
50
0.0
51
0.0
10
949.4700            
20
5039.2624           
30
52.8079             
1
 204
0
TEXT
8
HEIGHT
62
3
7
STD
40
0.25
41
1.0
50
0.0
51
0.0
10
949.4700            
20
5039.2624           
30
52.8079             
1
 52.808
0
TEXT
8
CO_ORDS
62
3
7
STD
40
0.25
41
1.0
50
0.0
51
0.0
10
949.4700            
20
5039.2624           
30
52.8079             
1
 949.470 5039.2620
INSERT
8
POINT
62
2
2
CROSS
10
950.5816            
20
5041.1817           
30
52.7494             
41
0.002
42
0.002
43
0.002
50
0.0
0
TEXT
8
CODE
62
3
7
STD
40
0.25
41
1.0
50
0.0
51
0.0
10
950.5816            
20
5041.1817           
30
52.7494             
1
 CALCADA
0
TEXT
8
PT_ID
62
3
7
STD
40
0.25
41
1.0
50
0.0
51
0.0
10
950.5816            
20
5041.1817           
30
52.7494             
1
 205
0
TEXT
8
HEIGHT
62
3
7
STD
40
0.25
41
1.0
50
0.0
51
0.0
10
950.5816            
20
5041.1817           
30
52.7494             
1
 52.749
0
TEXT
8
CO_ORDS
62
3
7
STD
40
0.25
41
1.0
50
0.0
51
0.0
10
950.5816            
20
5041.1817           
30
52.7494             
1
 950.582 5041.1820
INSERT
8
POINT
62
2
2
CROSS
10
950.6269            
20
5041.1962           
30
52.6522             
41
0.002
42
0.002
43
0.002
50
0.0
0
TEXT
8
CODE
62
3
7
STD
40
0.25
41
1.0
50
0.0
51
0.0
10
950.6269            
20
5041.1962           
30
52.6522             
1
 CALCADA
0
TEXT
8
PT_ID
62
3
7
STD
40
0.25
41
1.0
50
0.0
51
0.0
10
950.6269            
20
5041.1962           
30
52.6522             
1
 206
0
TEXT
8
HEIGHT
62
3
7
STD
40
0.25
41
1.0
50
0.0
51
0.0
10
950.6269            
20
5041.1962           
30
52.6522             
1
 52.652
0
TEXT
8
CO_ORDS
62
3
7
STD
40
0.25
41
1.0
50
0.0
51
0.0
10
950.6269            
20
5041.1962           
30
52.6522             
1
 950.627 5041.1960
INSERT
8
POINT
62
2
2
CROSS
10
954.4244            
20
5038.7248           
30
52.5979             
41
0.002
42
0.002
43
0.002
50
0.0
0
TEXT
8
CODE
62
3
7
STD
40
0.25
41
1.0
50
0.0
51
0.0
10
954.4244            
20
5038.7248           
30
52.5979             
1
 CALCADA
0
TEXT
8
PT_ID
62
3
7
STD
40
0.25
41
1.0
50
0.0
51
0.0
10
954.4244            
20
5038.7248           
30
52.5979             
1
 207
0
TEXT
8
HEIGHT
62
3
7
STD
40
0.25
41
1.0
50
0.0
51
0.0
10
954.4244            
20
5038.7248           
30
52.5979             
1
 52.598
0
TEXT
8
CO_ORDS
62
3
7
STD
40
0.25
41
1.0
50
0.0
51
0.0
10
954.4244            
20
5038.7248           
30
52.5979             
1
 954.424 5038.7250
INSERT
8
POINT
62
2
2
CROSS
10
954.3473            
20
5038.6967           
30
52.7297             
41
0.002
42
0.002
43
0.002
50
0.0
0
TEXT
8
CODE
62
3
7
STD
40
0.25
41
1.0
50
0.0
51
0.0
10
954.3473            
20
5038.6967           
30
52.7297             
1
 CALCADA
0
TEXT
8
PT_ID
62
3
7
STD
40
0.25
41
1.0
50
0.0
51
0.0
10
954.3473            
20
5038.6967           
30
52.7297             
1
 208
0
TEXT
8
HEIGHT
62
3
7
STD
40
0.25
41
1.0
50
0.0
51
0.0
10
954.3473            
20
5038.6967           
30
52.7297             
1
 52.730
0
TEXT
8
CO_ORDS
62
3
7
STD
40
0.25
41
1.0
50
0.0
51
0.0
10
954.3473            
20
5038.6967           
30
52.7297             
1
 954.347 5038.6970
INSERT
8
POINT
62
2
2
CROSS
10
953.2811            
20
5036.7798           
30
52.7414             
41
0.002
42
0.002
43
0.002
50
0.0
0
TEXT
8
CODE
62
3
7
STD
40
0.25
41
1.0
50
0.0
51
0.0
10
953.2811            
20
5036.7798           
30
52.7414             
1
 CALCADA
0
TEXT
8
PT_ID
62
3
7
STD
40
0.25
41
1.0
50
0.0
51
0.0
10
953.2811            
20
5036.7798           
30
52.7414             
1
 209
0
TEXT
8
HEIGHT
62
3
7
STD
40
0.25
41
1.0
50
0.0
51
0.0
10
953.2811            
20
5036.7798           
30
52.7414             
1
 52.741
0
TEXT
8
CO_ORDS
62
3
7
STD
40
0.25
41
1.0
50
0.0
51
0.0
10
953.2811            
20
5036.7798           
30
52.7414             
1
 953.281 5036.7800
INSERT
8
POINT
62
2
2
CROSS
10
957.1483            
20
5034.2993           
30
52.6592             
41
0.002
42
0.002
43
0.002
50
0.0
0
TEXT
8
CODE
62
3
7
STD
40
0.25
41
1.0
50
0.0
51
0.0
10
957.1483            
20
5034.2993           
30
52.6592             
1
 CALCADA
0
TEXT
8
PT_ID
62
3
7
STD
40
0.25
41
1.0
50
0.0
51
0.0
10
957.1483            
20
5034.2993           
30
52.6592             
1
 210
0
TEXT
8
HEIGHT
62
3
7
STD
40
0.25
41
1.0
50
0.0
51
0.0
10
957.1483            
20
5034.2993           
30
52.6592             
1
 52.659
0
TEXT
8
CO_ORDS
62
3
7
STD
40
0.25
41
1.0
50
0.0
51
0.0
10
957.1483            
20
5034.2993           
30
52.6592             
1
 957.148 5034.2990
INSERT
8
POINT
62
2
2
CROSS
10
958.1940            
20
5036.1776           
30
52.6187             
41
0.002
42
0.002
43
0.002
50
0.0
0
TEXT
8
CODE
62
3
7
STD
40
0.25
41
1.0
50
0.0
51
0.0
10
958.1940            
20
5036.1776           
30
52.6187             
1
 CALCADA
0
TEXT
8
PT_ID
62
3
7
STD
40
0.25
41
1.0
50
0.0
51
0.0
10
958.1940            
20
5036.1776           
30
52.6187             
1
 211
0
TEXT
8
HEIGHT
62
3
7
STD
40
0.25
41
1.0
50
0.0
51
0.0
10
958.1940            
20
5036.1776           
30
52.6187             
1
 52.619
0
TEXT
8
CO_ORDS
62
3
7
STD
40
0.25
41
1.0
50
0.0
51
0.0
10
958.1940            
20
5036.1776           
30
52.6187             
1
 958.194 5036.1780
INSERT
8
POINT
62
2
2
CROSS
10
958.2262            
20
5036.2076           
30
52.4546             
41
0.002
42
0.002
43
0.002
50
0.0
0
TEXT
8
CODE
62
3
7
STD
40
0.25
41
1.0
50
0.0
51
0.0
10
958.2262            
20
5036.2076           
30
52.4546             
1
 CALCADA
0
TEXT
8
PT_ID
62
3
7
STD
40
0.25
41
1.0
50
0.0
51
0.0
10
958.2262            
20
5036.2076           
30
52.4546             
1
 212
0
TEXT
8
HEIGHT
62
3
7
STD
40
0.25
41
1.0
50
0.0
51
0.0
10
958.2262            
20
5036.2076           
30
52.4546             
1
 52.455
0
TEXT
8
CO_ORDS
62
3
7
STD
40
0.25
41
1.0
50
0.0
51
0.0
10
958.2262            
20
5036.2076           
30
52.4546             
1
 958.226 5036.2080
INSERT
8
POINT
62
2
2
CROSS
10
961.8954            
20
5033.7197           
30
52.3082             
41
0.002
42
0.002
43
0.002
50
0.0
0
TEXT
8
CODE
62
3
7
STD
40
0.25
41
1.0
50
0.0
51
0.0
10
961.8954            
20
5033.7197           
30
52.3082             
1
 CALCADA
0
TEXT
8
PT_ID
62
3
7
STD
40
0.25
41
1.0
50
0.0
51
0.0
10
961.8954            
20
5033.7197           
30
52.3082             
1
 213
0
TEXT
8
HEIGHT
62
3
7
STD
40
0.25
41
1.0
50
0.0
51
0.0
10
961.8954            
20
5033.7197           
30
52.3082             
1
 52.308
0
TEXT
8
CO_ORDS
62
3
7
STD
40
0.25
41
1.0
50
0.0
51
0.0
10
961.8954            
20
5033.7197           
30
52.3082             
1
 961.895 5033.7200
INSERT
8
POINT
62
2
2
CROSS
10
961.8467            
20
5033.6891           
30
52.5180             
41
0.002
42
0.002
43
0.002
50
0.0
0
TEXT
8
CODE
62
3
7
STD
40
0.25
41
1.0
50
0.0
51
0.0
10
961.8467            
20
5033.6891           
30
52.5180             
1
 CALCADA
0
TEXT
8
PT_ID
62
3
7
STD
40
0.25
41
1.0
50
0.0
51
0.0
10
961.8467            
20
5033.6891           
30
52.5180             
1
 214
0
TEXT
8
HEIGHT
62
3
7
STD
40
0.25
41
1.0
50
0.0
51
0.0
10
961.8467            
20
5033.6891           
30
52.5180             
1
 52.518
0
TEXT
8
CO_ORDS
62
3
7
STD
40
0.25
41
1.0
50
0.0
51
0.0
10
961.8467            
20
5033.6891           
30
52.5180             
1
 961.847 5033.6890
INSERT
8
POINT
62
2
2
CROSS
10
960.6051            
20
5032.0341           
30
52.5298             
41
0.002
42
0.002
43
0.002
50
0.0
0
TEXT
8
CODE
62
3
7
STD
40
0.25
41
1.0
50
0.0
51
0.0
10
960.6051            
20
5032.0341           
30
52.5298             
1
 CALCADA
0
TEXT
8
PT_ID
62
3
7
STD
40
0.25
41
1.0
50
0.0
51
0.0
10
960.6051            
20
5032.0341           
30
52.5298             
1
 215
0
TEXT
8
HEIGHT
62
3
7
STD
40
0.25
41
1.0
50
0.0
51
0.0
10
960.6051            
20
5032.0341           
30
52.5298             
1
 52.530
0
TEXT
8
CO_ORDS
62
3
7
STD
40
0.25
41
1.0
50
0.0
51
0.0
10
960.6051            
20
5032.0341           
30
52.5298             
1
 960.605 5032.0340
INSERT
8
POINT
62
2
2
CROSS
10
964.2653            
20
5029.2649           
30
52.3664             
41
0.002
42
0.002
43
0.002
50
0.0
0
TEXT
8
CODE
62
3
7
STD
40
0.25
41
1.0
50
0.0
51
0.0
10
964.2653            
20
5029.2649           
30
52.3664             
1
 CALCADA
0
TEXT
8
PT_ID
62
3
7
STD
40
0.25
41
1.0
50
0.0
51
0.0
10
964.2653            
20
5029.2649           
30
52.3664             
1
 216
0
TEXT
8
HEIGHT
62
3
7
STD
40
0.25
41
1.0
50
0.0
51
0.0
10
964.2653            
20
5029.2649           
30
52.3664             
1
 52.366
0
TEXT
8
CO_ORDS
62
3
7
STD
40
0.25
41
1.0
50
0.0
51
0.0
10
964.2653            
20
5029.2649           
30
52.3664             
1
 964.265 5029.2650
INSERT
8
POINT
62
2
2
CROSS
10
965.4670            
20
5030.8265           
30
52.3336             
41
0.002
42
0.002
43
0.002
50
0.0
0
TEXT
8
CODE
62
3
7
STD
40
0.25
41
1.0
50
0.0
51
0.0
10
965.4670            
20
5030.8265           
30
52.3336             
1
 CALCADA
0
TEXT
8
PT_ID
62
3
7
STD
40
0.25
41
1.0
50
0.0
51
0.0
10
965.4670            
20
5030.8265           
30
52.3336             
1
 217
0
TEXT
8
HEIGHT
62
3
7
STD
40
0.25
41
1.0
50
0.0
51
0.0
10
965.4670            
20
5030.8265           
30
52.3336             
1
 52.334
0
TEXT
8
CO_ORDS
62
3
7
STD
40
0.25
41
1.0
50
0.0
51
0.0
10
965.4670            
20
5030.8265           
30
52.3336             
1
 965.467 5030.8260
INSERT
8
POINT
62
2
2
CROSS
10
965.4917            
20
5030.8576           
30
52.1431             
41
0.002
42
0.002
43
0.002
50
0.0
0
TEXT
8
CODE
62
3
7
STD
40
0.25
41
1.0
50
0.0
51
0.0
10
965.4917            
20
5030.8576           
30
52.1431             
1
 CALCADA
0
TEXT
8
PT_ID
62
3
7
STD
40
0.25
41
1.0
50
0.0
51
0.0
10
965.4917            
20
5030.8576           
30
52.1431             
1
 218
0
TEXT
8
HEIGHT
62
3
7
STD
40
0.25
41
1.0
50
0.0
51
0.0
10
965.4917            
20
5030.8576           
30
52.1431             
1
 52.143
0
TEXT
8
CO_ORDS
62
3
7
STD
40
0.25
41
1.0
50
0.0
51
0.0
10
965.4917            
20
5030.8576           
30
52.1431             
1
 965.492 5030.8580
INSERT
8
POINT
62
2
2
CROSS
10
949.5209            
20
5041.4203           
30
52.8009             
41
0.002
42
0.002
43
0.002
50
0.0
0
TEXT
8
CODE
62
3
7
STD
40
0.25
41
1.0
50
0.0
51
0.0
10
949.5209            
20
5041.4203           
30
52.8009             
1
 POSTE
0
TEXT
8
PT_ID
62
3
7
STD
40
0.25
41
1.0
50
0.0
51
0.0
10
949.5209            
20
5041.4203           
30
52.8009             
1
 219
0
TEXT
8
HEIGHT
62
3
7
STD
40
0.25
41
1.0
50
0.0
51
0.0
10
949.5209            
20
5041.4203           
30
52.8009             
1
 52.801
0
TEXT
8
CO_ORDS
62
3
7
STD
40
0.25
41
1.0
50
0.0
51
0.0
10
949.5209            
20
5041.4203           
30
52.8009             
1
 949.521 5041.4200
INSERT
8
POINT
62
2
2
CROSS
10
932.8220            
20
5054.1535           
30
53.1841             
41
0.002
42
0.002
43
0.002
50
0.0
0
TEXT
8
CODE
62
3
7
STD
40
0.25
41
1.0
50
0.0
51
0.0
10
932.8220            
20
5054.1535           
30
53.1841             
1
 POSTE
0
TEXT
8
PT_ID
62
3
7
STD
40
0.25
41
1.0
50
0.0
51
0.0
10
932.8220            
20
5054.1535           
30
53.1841             
1
 220
0
TEXT
8
HEIGHT
62
3
7
STD
40
0.25
41
1.0
50
0.0
51
0.0
10
932.8220            
20
5054.1535           
30
53.1841             
1
 53.184
0
TEXT
8
CO_ORDS
62
3
7
STD
40
0.25
41
1.0
50
0.0
51
0.0
10
932.8220            
20
5054.1535           
30
53.1841             
1
 932.822 5054.154 0
ENDSEC
 0
EOF0
SECTION
2
HEADER
9
$EXTMIN
10
89
20
89
9
$EXTMAX
10
111
20
111
9
$LIMMIN
10
89
20
89
9
$LIMMAX
10
111
20
111
0
ENDSEC
0
SECTION
2
TABLES
0
TABLE
2
LTYPE
70
255
0
LTYPE
2
1
70
0
3
SOLID
72
65
73
0
40
0
0
ENDTAB
0
TABLE
2
LAYER
70
4
0
LAYER
2
0
62
7
6
1
70
64
0
ENDTAB
0
TABLE
2
STYLE
70
1
0
STYLE
2
STD
70
0
40
0
41
1
50
0
71
0
42
.2
3
txt
0
ENDTAB
0
ENDSEC
0
SECTION
2
BLOCKS
0
BLOCK
2
CROSS
70
0
10
0
20
0
0
LINE
8
0
62
0
10
-50
20
0
11
50
21
0
0
LINE
8
0
62
0
10
0
20
-50
11
0
21
50
0
ENDBLK
0
ENDSEC
0
SECTION
2
ENTITIES0
INSERT
8
POINT
62
2
2
CROSS
10
1000.0000           
20
5000.0000           
30
50.0000             
41
0.002
42
0.002
43
0.002
50
0.0
0
TEXT
8
CODE
62
3
7
STD
40
0.25
41
1.0
50
0.0
51
0.0
10
1000.0000           
20
5000.0000           
30
50.0000             
1
  
0
TEXT
8
PT_ID
62
3
7
STD
40
0.25
41
1.0
50
0.0
51
0.0
10
1000.0000           
20
5000.0000           
30
50.0000             
1
 0
0
TEXT
8
HEIGHT
62
3
7
STD
40
0.25
41
1.0
50
0.0
51
0.0
10
1000.0000           
20
5000.0000           
30
50.0000             
1
 50.000
0
TEXT
8
CO_ORDS
62
3
7
STD
40
0.25
41
1.0
50
0.0
51
0.0
10
1000.0000           
20
5000.0000           
30
50.0000             
1
 1000.000 5000.000 0
ENDSEC
 0
EOF